<svg xmlns="http://www.w3.org/2000/svg" fill="white" viewBox="0 0 24 24" width="20" height="20">
  <path d="M12 2C6.486 2 2 6.486 2 12s4.486 10 10 10
           10-4.486 10-10S17.514 2 12 2zm7.93 9h-3.115
           a15.798 15.798 0 0 0-1.318-5.348A8.033 8.033
           0 0 1 19.93 11zM12 20c-.828 0-2.051-1.494-2.657-4h5.314
           C14.05 18.506 12.828 20 12 20zM8.763 14a18.9 18.9
           0 0 1 0-4h6.474a18.9 18.9 0 0 1 0 4H8.763zM4.07
           13h3.115a15.798 15.798 0 0 0 1.318 5.348
           A8.033 8.033 0 0 1 4.07 13zm3.115-2H4.07a8.033
           8.033 0 0 1 4.433-5.348A15.798 15.798 0 0 0 7.185
           11zm6.158-6.652A13.889 13.889 0 0 1 14.723 11H9.277
           a13.889 13.889 0 0 1 1.38-6.652A1.017 1.017 0 0 1 12 4c.29 0
           .565.124.842.348zM16.815 17a15.798 15.798 0 0 0
           1.318-5.348h3.115a8.033 8.033 0 0 1-4.433
           5.348z"/>
</svg>
