<svg
  xmlns="http://www.w3.org/2000/svg"
  viewBox="0 0 1536 1024"
  class="w-8 h-8 text-blue-500 dark:text-white transition-colors duration-300"
  fill="currentColor"
>
    <path
        d="M1151.875 364.438l2.062.019c17.021.16 34.042.34 51.063.543-.766 3.303-1.894 5.915-3.52 8.902-.52.962-1.042 1.923-1.58 2.914l-1.713 3.122-1.773 3.252c-4.671 8.532-9.474 16.984-14.324 25.415-5.182 9.021-10.23 18.118-15.303 27.201a4325.72 4325.72 0 01-5.33 9.495c-5.74 10.208-11.417 20.443-16.957 30.762-4.89 9.1-10.019 18.033-15.265 26.93-4.682 7.975-9.11 16.068-13.481 24.216-4.906 9.125-10.037 18.11-15.205 27.089-2.79 4.867-5.543 9.754-8.299 14.64A4391.917 4391.917 0 011078 594l-4 7c-2.613-.354-3.713-.638-5.381-2.74l-1.248-2.283-1.432-2.57-1.501-2.782-3.188-5.73-1.629-2.959c-2.52-4.565-5.093-9.098-7.684-13.624l-1.37-2.444-1.29-2.255-1.117-1.975c-1.229-1.943-1.229-1.943-4.16-3.638l-.332-2.48c-.992-5.229-3.681-9.276-6.355-13.832l-3.575-6.208-1.872-3.236c-3.003-5.221-5.933-10.483-8.866-15.744a8140.271 8140.271 0 00-14-24.938l-1.562-2.777c-1.47-2.6-2.95-5.194-4.438-7.785l-1.637-2.88-1.613-2.78-1.453-2.524L997 471h-2l.143-2.219c-.16-3.123-.85-4.605-2.424-7.281l-1.53-2.647L989.5 456c-1.19-2.05-2.377-4.1-3.563-6.152l-1.925-3.324c-2.143-3.73-4.207-7.5-6.262-11.278l-1.074-1.97a1943.37 1943.37 0 01-4.201-7.74c-4.161-7.963-4.161-7.963-9.444-15.188C961 408 961 408 961 405a86.03 86.03 0 00-2.781-5.27l-1.793-3.175-1.926-3.368-1.93-3.41a3234.348 3234.348 0 00-9.416-16.487c-.961-1.672-1.928-3.34-2.896-5.009C939 366 939 366 939 365a35193.185 35193.185 0 0165.646-.582c49.082-.395 98.148-.444 147.229.02zM516 106h250c-.981 4.906-2.62 8.045-5.188 12.188-4.446 7.357-8.58 14.851-12.625 22.437-4.438 8.312-8.952 16.567-13.625 24.75-4.83 8.467-9.485 17.02-14.062 25.625a1091.755 1091.755 0 01-15.656 28.418c-4.06 7.136-7.972 14.343-11.844 21.582-5.957 11.13-12.115 22.133-18.357 33.105a3178.343 3178.343 0 00-8.456 15.02l-1.721 3.065a1222.427 1222.427 0 00-8.694 15.755 3496.87 3496.87 0 01-4.39 8.08 826.43 826.43 0 00-2.119 3.936c-.979 1.83-1.97 3.654-2.962 5.476l-1.714 3.184C643 331 643 331 640 332l-1.095-2.053c-6.17-11.559-12.346-23.103-18.905-34.447-5.158-8.926-10.065-17.974-14.932-27.06a1576.471 1576.471 0 00-13.659-24.919 4039.092 4039.092 0 01-31.025-56.524c-6.352-11.8-12.786-23.54-19.423-35.181-4.865-8.566-9.523-17.237-14.117-25.95-2.98-5.605-6.092-10.945-9.762-16.128C516 108 516 108 516 106zm284 513h250c-1 5-1 5-2.625 8.188L1046 630l1 2-3 1c-1.531 2.119-1.531 2.119-2.934 4.793l-1.697 3.065-1.806 3.33-1.885 3.418A2339.774 2339.774 0 001030 658l-1.634 3a8935.526 8935.526 0 00-5.97 10.974c-3.826 7.032-7.772 13.99-11.76 20.93-5.697 9.921-11.27 19.91-16.85 29.898a21937.328 21937.328 0 01-10.608 18.967 4796.064 4796.064 0 01-11.615 20.606c-4.731 8.351-9.41 16.73-14.063 25.125-10.318 18.606-20.795 37.114-31.5 55.5-3.915-1.305-4.215-2.682-6.152-6.266l-1.835-3.354-1.95-3.63c-1.016-1.866-2.036-3.73-3.055-5.593l-2.058-3.771c-2.945-5.404-5.994-10.745-9.075-16.073-4.916-8.537-9.624-17.178-14.295-25.851a742.865 742.865 0 00-10.642-19.083 865.23 865.23 0 01-6.625-11.817 1804.535 1804.535 0 00-9.988-17.804 1494.547 1494.547 0 01-16.443-29.763c-4.827-8.944-9.82-17.79-14.839-26.628a1640.353 1640.353 0 01-9.075-16.209 2046.86 2046.86 0 00-6.85-12.292 5237.759 5237.759 0 01-4.148-7.399c-.684-1.22-1.37-2.439-2.057-3.657-.966-1.713-1.926-3.43-2.886-5.146l-1.695-3.017C801 623 801 623 800 619zM657 365h250c-1.409 3.521-2.793 6.629-4.582 9.93l-1.554 2.871-1.677 3.074-1.756 3.234a1254.811 1254.811 0 01-11.744 21.016c-5.422 9.511-10.592 19.142-15.715 28.816a988.595 988.595 0 01-15.168 27.559c-4.155 7.293-8.155 14.663-12.116 22.063-4.159 7.765-8.36 15.485-12.774 23.109-3.63 6.31-7.132 12.693-10.658 19.062a3897.869 3897.869 0 01-3.553 6.395 5277.599 5277.599 0 00-11.61 20.96c-.345.63-.691 1.257-1.048 1.905a10966.51 10966.51 0 00-5.16 9.378A1499.673 1499.673 0 01784 589c-3.386-1.129-3.54-1.433-5.129-4.402l-1.181-2.17-1.253-2.365c-.899-1.66-1.799-3.318-2.699-4.977l-1.384-2.575a990.774 990.774 0 00-6.229-11.323l-1.23-2.219a1606.47 1606.47 0 00-9.957-17.594c-.502-.877-1.004-1.753-1.52-2.657-2.911-5.087-2.911-5.087-5.826-10.172a2486.64 2486.64 0 01-3.842-6.734l-1.16-2.016C740 515.228 740 515.228 740 513l-3-1v-3c-1.013-2.132-1.013-2.132-2.406-4.379l-1.504-2.54-1.59-2.644a1319.508 1319.508 0 01-3.094-5.19l-1.396-2.323C726 490 726 490 726 488l-2-1a129.77 129.77 0 01-3.063-6.063A285.13 285.13 0 00712.563 465l-1.134-2.005c-1.91-3.36-3.839-6.708-5.78-10.05l-1.127-1.949a1615.93 1615.93 0 00-3.087-5.3C700 443 700 443 700 441l-4 1v-2l2-1c-6.526-12.06-13.135-24.066-19.904-35.991a3030.491 3030.491 0 01-13.346-23.821l-1.008-1.814c-5.554-9.998-5.554-9.998-6.742-12.374zm-298 12h2l1.46 2.992 1.915 3.883.96 1.973c1.354 2.734 2.493 4.98 4.665 7.152a189.087 189.087 0 012.813 5.688c3.71 7.613 7.883 14.943 12.077 22.297a997.737 997.737 0 0111.047 19.953c4.207 7.777 8.58 15.44 13.063 23.062a817.573 817.573 0 0114.531 25.78c8.044 14.862 16.482 29.506 24.881 44.17a2431.76 2431.76 0 0111.526 20.425 8752.954 8752.954 0 0014.125 25.188l1.587 2.827c2.68 4.75 5.431 9.4 8.465 13.934C485 598 485 598 485 601H235c1.512-3.781 3.042-7.032 5.02-10.55l1.828-3.27.97-1.723c1.706-3.035 3.403-6.076 5.1-9.117l1.046-1.874c3.275-5.876 6.474-11.792 9.661-17.716A1290.498 1290.498 0 01272.912 531c4.451-7.839 8.81-15.726 13.15-23.625 5.21-9.48 10.493-18.914 15.9-28.285a393.513 393.513 0 009.63-17.74c2.197-4.244 2.197-4.244 4.408-5.35a130.75 130.75 0 002-5c.909-1.802 1.844-3.59 2.8-5.367.56-1.039 1.117-2.078 1.693-3.148l1.82-3.36 1.89-3.501c4.572-8.448 9.262-16.826 14.016-25.173 4.432-7.793 8.739-15.65 13-23.536l1.418-2.618 1.24-2.302c.963-1.711 2.034-3.361 3.123-4.995zm422-256h2l1.155 2.082a11356.632 11356.632 0 0022.713 40.781c2.787 4.975 5.586 9.943 8.405 14.899a1488.182 1488.182 0 0118.5 33.553c4.29 7.994 8.704 15.907 13.192 23.79 4.412 7.762 8.733 15.572 13.035 23.395a2936.683 2936.683 0 0019.423 34.722 7170.32 7170.32 0 019.674 17.11c2.85 5.052 5.718 10.093 8.61 15.121l1.828 3.193c1.163 2.03 2.33 4.058 3.504 6.083l1.574 2.755 1.4 2.43C907 343 907 343 907 346H659c0-3.74 1.15-5.5 2.93-8.785l1.895-3.52 2.05-3.757 2.079-3.844a2087.982 2087.982 0 0114.885-27.023 3895.96 3895.96 0 006.036-10.821l1.236-2.221A2463.214 2463.214 0 00700 268a3049.357 3049.357 0 0114.572-26.437c9.837-17.657 19.628-35.34 29.384-53.043 2.394-4.342 4.79-8.683 7.189-13.024a7247.812 7247.812 0 0022.493-40.993C776.088 130 778.544 125.5 781 121zm1 510c2.707 2.415 4.214 4.973 5.898 8.172l1.682 3.166 1.795 3.412a3040.338 3040.338 0 004.773 8.955c3.047 5.693 6.215 11.312 9.414 16.92 4.411 7.74 8.716 15.53 12.938 23.375 5.8 10.77 11.79 21.42 17.832 32.055 2.887 5.097 5.746 10.208 8.606 15.32a674459812.855 674459812.855 0 005.278 9.437c1.808 3.231 3.618 6.462 5.429 9.692a7894.234 7894.234 0 0116.888 30.26c2.91 5.241 5.84 10.471 8.786 15.694a3377.64 3377.64 0 017.146 12.749l1.86 3.332c1.21 2.168 2.42 4.337 3.627 6.506 3.116 5.578 6.297 11.09 9.682 16.51 1.692 3.028 3 6.257 4.366 9.445H659c9.098-18.197 9.098-18.197 12.688-24.5 3.95-7.023 7.804-14.093 11.625-21.187 5.93-10.994 12.045-21.876 18.22-32.733 2.144-3.772 4.276-7.55 6.405-11.33l.997-1.766c4.884-8.675 9.587-17.448 14.265-26.237 5.865-11.01 11.833-21.945 18.014-32.783 4.534-7.967 8.901-16.018 13.248-24.089a777.442 777.442 0 0110.85-19.437C771.15 651.778 776.535 641.362 782 631zM499 120c2.695 1.348 3.155 2.837 4.563 5.5l1.609 3.02L507 132a7915.213 7915.213 0 005.486 10.413 614.039 614.039 0 008.653 15.733c3.595 6.35 7.11 12.742 10.625 19.135 5.034 9.153 10.09 18.289 15.299 27.344 10.095 17.555 19.829 35.317 29.57 53.07l1.177 2.13a340.39 340.39 0 012.498 4.654l1.31 2.45c.384.733.77 1.465 1.167 2.219 1.237 2.15 1.237 2.15 4.215 3.852v3c.98 2.255.98 2.255 2.352 4.7l1.559 2.877 1.714 3.11 1.765 3.232c4.684 8.522 9.555 16.927 14.486 25.307a826.106 826.106 0 0111.499 20.212l1.426 2.584C625 343.87 625 343.87 625 345c-13.418.993-26.776 1.137-40.227 1.114h-6.864c-6.16 0-12.32-.006-18.48-.013-6.457-.006-12.914-.006-19.37-.008-10.821-.002-21.642-.009-32.463-.018-11.136-.009-22.272-.016-33.409-.02h-2.086l-10.364-.005c-28.58-.01-57.158-.028-85.737-.05.88-3.874 2.463-7.222 4.25-10.75l1.766-3.547c1.704-3.277 3.634-6.37 5.613-9.488 2.71-4.38 5.178-8.902 7.684-13.402l1.827-3.273a5190.41 5190.41 0 0015.932-28.821c3.233-5.88 6.496-11.74 9.83-17.563l1.842-3.22c1.143-1.993 2.292-3.983 3.448-5.97l1.527-2.661 1.342-2.313c1.152-2.077 1.152-2.077.939-4.992.99-1.01 1.992-2.008 3-3a157.434 157.434 0 003.574-6.129l.996-1.789c.691-1.243 1.38-2.488 2.065-3.734 1.053-1.911 2.116-3.816 3.18-5.721l2.01-3.63 1.846-3.339c1.478-2.46 1.478-2.46 1.329-4.658h2c.23-.642.461-1.284.7-1.945 1.761-4.138 3.929-8.002 6.113-11.93l1.467-2.656c3.108-5.61 6.26-11.196 9.43-16.772C479.923 156.719 489.994 138.62 499 120zm19 499a231129.916 231129.916 0 01105.252-.056c11.694-.004 23.388-.012 35.082-.021 11.998-.01 23.997-.015 35.995-.017 6.74-.001 13.48-.004 20.22-.012 6.34-.007 12.682-.009 19.023-.007 2.33 0 4.659-.002 6.988-.006a3785 3785 0 019.531-.001l2.8-.01c4.486.011 8.694.217 13.109 1.13l-1.223 2.078c-4.905 8.458-9.551 17.046-14.152 25.672-4.545 8.52-9.123 17.016-13.845 25.44-3.69 6.604-7.266 13.268-10.842 19.935-4.108 7.656-8.25 15.284-12.545 22.836-3.299 5.822-6.47 11.71-9.643 17.601-4.848 8.994-9.818 17.908-14.872 26.787-3.904 6.878-7.694 13.811-11.44 20.776a934.841 934.841 0 01-13.826 24.762c-4.864 8.464-9.476 17.06-14.069 25.673l-1.707 3.198-1.514 2.848C645 840 645 840 643 843h-2l-.895-1.655a2052.108 2052.108 0 00-19.391-35.024 2082.543 2082.543 0 01-9.589-17.071l-1.165-2.091a1170.347 1170.347 0 01-6.74-12.293 2159.13 2159.13 0 00-4.03-7.399 632.99 632.99 0 01-1.975-3.657c-.922-1.72-1.86-3.433-2.797-5.146l-1.632-3.017c-1.686-2.795-1.686-2.795-4.5-4.751L586 749v-4c-1.301-2.794-1.301-2.794-3-5.625-3-5.18-3-5.18-3-7.375l-2-1a82.294 82.294 0 01-2.375-4.75c-3.896-8.013-8.373-15.679-12.82-23.395l-1.447-2.51a538.506 538.506 0 00-2.615-4.468C556 691.21 556 691.21 556 689l-3-1v-2a118.73 118.73 0 00-2.605-5.074l-1.713-3.178-1.87-3.436-1.91-3.528c-7.059-13.007-14.328-25.9-21.75-38.702l-1.303-2.267a461.901 461.901 0 00-2.399-4.122c-.878-1.53-1.674-3.108-2.45-4.693l1-2zM377 365h247c-.908 3.63-1.97 6.055-3.738 9.305l-1.717 3.17-1.857 3.4c-.641 1.18-1.281 2.358-1.92 3.538a3705.175 3705.175 0 01-3.912 7.185 4555.183 4555.183 0 00-4.891 8.992A4801.995 4801.995 0 01574 458.5a4374.739 4374.739 0 00-15.063 27.063l-1.022 1.852a3287.193 3287.193 0 00-15.195 27.914c-4.152 7.678-8.439 15.274-12.76 22.859-4.85 8.543-9.506 17.184-14.116 25.858-3.03 5.68-6.158 11.246-9.567 16.707-1.336 2.351-2.329 4.717-3.277 7.247-3.725-1.242-3.904-2.141-5.68-5.54l-1.545-2.913-1.65-3.172c-1.169-2.204-2.34-4.407-3.512-6.61l-1.814-3.415c-2.75-5.12-5.611-10.175-8.486-15.225a1821.92 1821.92 0 01-11.125-19.813c-3.882-7.022-7.853-13.99-11.844-20.95-7.611-13.275-15.084-26.621-22.49-40.012a6980.97 6980.97 0 00-7.426-13.371 8895.467 8895.467 0 01-16.42-29.651 36604.113 36604.113 0 00-10.01-18.144c-10.344-18.818-10.344-18.818-21.206-37.34C377 367.207 377 367.207 377 365zm264 12c3.012 1.506 3.742 4.317 5.125 7.25 3.868 7.955 8.085 15.705 12.375 23.438l1.036 1.868c1.414 2.55 2.829 5.098 4.245 7.646a3348.69 3348.69 0 017.356 13.31c6.638 12.07 13.325 24.107 20.132 36.083 4.486 7.917 8.822 15.91 13.14 23.92 4.02 7.452 8.133 14.844 12.307 22.21 2.108 3.734 4.196 7.48 6.287 11.224a2899.67 2899.67 0 0016.666 29.444c3.828 6.684 7.544 13.426 11.233 20.188 3.797 6.934 7.742 13.777 11.747 20.593l1.331 2.275 1.185 2.01C766 600 766 600 766 601H518c1.236-3.09 2.3-5.714 3.89-8.547l1.132-2.025 1.228-2.178 1.287-2.303c2.73-4.881 5.482-9.75 8.236-14.619l1.933-3.427c1.27-2.251 2.544-4.5 3.822-6.748l1.761-3.122 1.585-2.795c1.276-2.116 1.276-2.116 1.126-4.236l1.326-1.318c2.012-2.021 3.12-4.074 4.46-6.592l1.59-2.97 1.687-3.183a6005.49 6005.49 0 013.539-6.605l1.758-3.287a792.938 792.938 0 016.578-11.92c4.042-7.226 7.965-14.514 11.875-21.813A1089.252 1089.252 0 01590.5 468.5c5.866-10.296 11.498-20.708 17.094-31.152 3.605-6.73 7.258-13.432 10.922-20.13a2537.43 2537.43 0 007.945-14.64l1.758-3.261c1.112-2.066 2.222-4.132 3.33-6.2 2.967-5.506 6.072-10.853 9.451-16.117zm281 1h2l3.881 7.035 5.304 9.613c3.639 6.594 7.277 13.19 10.913 19.786 11.579 21.005 23.166 42.006 34.993 62.873 6.065 10.712 12.03 21.479 17.997 32.245 10.88 19.624 21.81 39.22 32.787 58.79a51626.663 51626.663 0 017.332 13.075l1.637 2.919 1.412 2.517c2.606 4.702 5.17 9.427 7.744 14.147H800c1.46-3.648 2.892-6.764 4.8-10.148l1.692-3.01 1.82-3.217 1.893-3.363c3.04-5.4 6.094-10.792 9.154-16.18 7.17-12.631 14.161-25.348 21.05-38.134a2961.249 2961.249 0 0119.515-35.616 3040.4 3040.4 0 008.01-14.477l2.124-3.859c1.05-1.908 2.1-3.817 3.148-5.727 3.4-6.196 6.829-12.369 10.407-18.464 5.117-8.718 9.84-17.641 14.59-26.563 6.125-11.5 12.356-22.922 18.848-34.221l1.535-2.681 1.345-2.332c1.197-2.114 1.197-2.114 2.069-5.008z"
        fill="#00A6F6" />
    <path
        d="M659 343l245 1v1c-15.34.79-30.63 1.142-45.99 1.114h-6.572c-5.866 0-11.732-.006-17.598-.013-6.16-.006-12.321-.006-18.482-.008-11.63-.003-23.26-.01-34.89-.021-13.255-.011-26.51-.017-39.766-.022-27.234-.01-54.468-.028-81.702-.05v-3z"
        fill="#0099E7" />
    <path
        d="M622 341c1.021.979 2.02 1.98 3 3v1c-13.418.993-26.776 1.137-40.227 1.114h-6.864c-6.16 0-12.32-.006-18.48-.013-6.457-.006-12.914-.006-19.37-.008-10.821-.002-21.642-.009-32.463-.018-11.136-.009-22.272-.016-33.409-.02h-2.086l-10.364-.005c-28.58-.01-57.158-.028-85.737-.05l1-4 1 2 244-1v-2z"
        fill="#0097E4" />
    <path d="M738 106h28c-1.125 5.625-1.125 5.625-4 8l-1-5-23-1v-2z" fill="#019BE3" />
    <path d="M516 106h24l-1 2h-20l-1 2-2-4z" fill="#019AE3" />
    <path
        d="M781 121h2l2 5-3-1-.813 1.813c-1.172 2.16-2.38 3.545-4.187 5.187l-1-2c.996-2.164.996-2.164 2.438-4.625l1.433-2.477L781 121z"
        fill="#019DE7" />
    <path d="M499 120c2 1 2 1 3.125 4.063L503 127l-3-1-3 1 2-7z" fill="#04A0E7" />
    <path d="M516 106h10c-3 2-3 2-7 2l-1 2-2-4z" fill="#078FD1" />
    <path d="M490 571l2 1-1 2-1-3z" fill="#00A4F2" />
    <path d="M600 776l3 1z" fill="#0395DD" />
    <path d="M1206 367l1 2-2-1 1-1z" fill="#0E83BB" />
    <path d="M1090 1003l2 1z" fill="#37393A" />
    <path d="M1090 979l2 1z" fill="#333739" />
    <path d="M1090 955l2 1z" fill="#2E3539" />
    <path d="M1090 931l2 1z" fill="#2A3439" />
    <path d="M948 805l2 1z" fill="#0496DB" />
    <path d="M585 747l2 1z" fill="#0696DD" />
    <path d="M561 704l2 1z" fill="#0498DF" />
    <path d="M1065 595l2 1z" fill="#029DE7" />
    <path d="M264 543l2 1z" fill="#0594D9" />
    <path d="M864 479l2 1z" fill="#00A3F3" />
    <path d="M344 399l2 1z" fill="#0696DA" />
    <path d="M1090 179l2 1z" fill="#20313A" />
    <path d="M1090 147l2 1z" fill="#262E33" />
    <path d="M1090 59l2 1z" fill="#313231" />
    <path d="M1090 43l2 1z" fill="#323334" />
    <path d="M1090 35l2 1z" fill="#333334" />
    <path d="M1090 27l2 1z" fill="#333435" />
</svg>