<svg xmlns="http://www.w3.org/2000/svg" xmlns:xlink="http://www.w3.org/1999/xlink" width="750" zoomAndPan="magnify" viewBox="0 0 562.5 374.999991" height="500" preserveAspectRatio="xMidYMid meet" version="1.0"><defs><g/></defs><g fill="#778a92" fill-opacity="1"><g transform="translate(212.277408, 217.098677)"><g><path d="M 65.796875 -67.515625 C 64.160156 -68.421875 62.171875 -69.28125 59.828125 -70.09375 C 57.492188 -70.914062 54.398438 -71.328125 50.546875 -71.328125 C 45.546875 -71.328125 41.28125 -70.363281 37.75 -68.4375 C 34.226562 -66.507812 31.398438 -63.945312 29.265625 -60.75 C 27.140625 -57.550781 25.707031 -54.046875 24.96875 -50.234375 C 24.226562 -46.421875 24.226562 -42.609375 24.96875 -38.796875 C 25.707031 -34.984375 27.140625 -31.476562 29.265625 -28.28125 C 31.398438 -25.082031 34.226562 -22.519531 37.75 -20.59375 C 41.28125 -18.664062 45.546875 -17.703125 50.546875 -17.703125 C 54.398438 -17.703125 57.78125 -18.15625 60.6875 -19.0625 C 63.601562 -19.96875 65.878906 -20.828125 67.515625 -21.640625 L 69.859375 -3.4375 C 67.148438 -2.375 64.03125 -1.492188 60.5 -0.796875 C 56.976562 -0.0976562 53.660156 0.25 50.546875 0.25 C 43.085938 0.25 36.566406 -1 30.984375 -3.5 C 25.410156 -6 20.757812 -9.378906 17.03125 -13.640625 C 13.300781 -17.910156 10.515625 -22.6875 8.671875 -27.96875 C 6.828125 -33.257812 5.90625 -38.734375 5.90625 -44.390625 C 5.90625 -50.054688 6.828125 -55.53125 8.671875 -60.8125 C 10.515625 -66.101562 13.300781 -70.878906 17.03125 -75.140625 C 20.757812 -79.398438 25.410156 -82.78125 30.984375 -85.28125 C 36.566406 -87.789062 43.085938 -89.046875 50.546875 -89.046875 C 56.941406 -89.046875 62.722656 -87.894531 67.890625 -85.59375 Z M 65.796875 -67.515625 "/></g></g></g><g fill="#778a92" fill-opacity="1"><g transform="translate(292.709551, 217.098677)"><g><path d="M 27.421875 0 L 9.84375 0 L 9.84375 -87.8125 L 44.390625 -87.8125 C 49.316406 -87.8125 53.519531 -86.828125 57 -84.859375 C 60.488281 -82.890625 63.253906 -80.304688 65.296875 -77.109375 C 67.347656 -73.910156 68.722656 -70.363281 69.421875 -66.46875 C 70.117188 -62.570312 70.117188 -58.695312 69.421875 -54.84375 C 68.722656 -51 67.328125 -47.476562 65.234375 -44.28125 C 63.148438 -41.082031 60.363281 -38.5 56.875 -36.53125 C 53.394531 -34.5625 49.234375 -33.578125 44.390625 -33.578125 L 27.421875 -33.578125 Z M 27.421875 -50.671875 L 42.921875 -50.671875 C 45.296875 -50.671875 47.179688 -51.328125 48.578125 -52.640625 C 49.972656 -53.953125 50.914062 -55.59375 51.40625 -57.5625 C 51.894531 -59.53125 51.894531 -61.492188 51.40625 -63.453125 C 50.914062 -65.421875 49.972656 -67.0625 48.578125 -68.375 C 47.179688 -69.6875 45.296875 -70.34375 42.921875 -70.34375 L 27.421875 -70.34375 Z M 27.421875 -50.671875 "/></g></g></g><g fill="#778a92" fill-opacity="1"><g transform="translate(373.264688, 217.098677)"><g><path d="M 27.421875 0 L 9.84375 0 L 9.84375 -87.8125 L 44.390625 -87.8125 C 49.316406 -87.8125 53.519531 -86.828125 57 -84.859375 C 60.488281 -82.890625 63.253906 -80.304688 65.296875 -77.109375 C 67.347656 -73.910156 68.722656 -70.363281 69.421875 -66.46875 C 70.117188 -62.570312 70.117188 -58.695312 69.421875 -54.84375 C 68.722656 -51 67.328125 -47.476562 65.234375 -44.28125 C 63.148438 -41.082031 60.363281 -38.5 56.875 -36.53125 C 53.394531 -34.5625 49.234375 -33.578125 44.390625 -33.578125 L 27.421875 -33.578125 Z M 27.421875 -50.671875 L 42.921875 -50.671875 C 45.296875 -50.671875 47.179688 -51.328125 48.578125 -52.640625 C 49.972656 -53.953125 50.914062 -55.59375 51.40625 -57.5625 C 51.894531 -59.53125 51.894531 -61.492188 51.40625 -63.453125 C 50.914062 -65.421875 49.972656 -67.0625 48.578125 -68.375 C 47.179688 -69.6875 45.296875 -70.34375 42.921875 -70.34375 L 27.421875 -70.34375 Z M 27.421875 -50.671875 "/></g></g></g><g fill="#778a92" fill-opacity="1"><g transform="translate(453.819819, 217.098677)"><g><path d="M 5.78125 -5.65625 L 8 -24.109375 C 11.351562 -21.722656 14.691406 -20.019531 18.015625 -19 C 21.335938 -17.976562 24.347656 -17.382812 27.046875 -17.21875 C 29.753906 -17.050781 31.765625 -17.007812 33.078125 -17.09375 C 35.703125 -17.257812 37.9375 -18.179688 39.78125 -19.859375 C 41.625 -21.546875 42.425781 -23.578125 42.1875 -25.953125 C 42.019531 -28.492188 41.070312 -30.421875 39.34375 -31.734375 C 37.625 -33.046875 35.535156 -34.109375 33.078125 -34.921875 C 28.492188 -36.648438 24.210938 -38.640625 20.234375 -40.890625 C 16.253906 -43.148438 13.054688 -45.957031 10.640625 -49.3125 C 8.222656 -52.675781 7.015625 -56.816406 7.015625 -61.734375 C 7.015625 -66.660156 8.054688 -71.109375 10.140625 -75.078125 C 12.234375 -79.054688 15.164062 -82.234375 18.9375 -84.609375 C 22.707031 -86.992188 27.015625 -88.304688 31.859375 -88.546875 C 34.148438 -88.710938 36.957031 -88.628906 40.28125 -88.296875 C 43.601562 -87.972656 48.09375 -86.828125 53.75 -84.859375 L 51.53125 -67.890625 C 46.695312 -69.859375 42.84375 -70.984375 39.96875 -71.265625 C 37.101562 -71.554688 34.972656 -71.660156 33.578125 -71.578125 C 30.460938 -71.410156 28.1875 -70.34375 26.75 -68.375 C 25.3125 -66.40625 24.675781 -64.191406 24.84375 -61.734375 C 25.09375 -59.273438 26.160156 -57.410156 28.046875 -56.140625 C 29.929688 -54.867188 32.144531 -53.785156 34.6875 -52.890625 C 39.269531 -51.242188 43.488281 -49.210938 47.34375 -46.796875 C 51.195312 -44.378906 54.289062 -41.46875 56.625 -38.0625 C 58.96875 -34.65625 60.140625 -30.617188 60.140625 -25.953125 C 60.140625 -21.109375 59.070312 -16.71875 56.9375 -12.78125 C 54.8125 -8.851562 51.757812 -5.695312 47.78125 -3.3125 C 43.800781 -0.9375 39.066406 0.410156 33.578125 0.734375 C 31.929688 0.816406 29.691406 0.753906 26.859375 0.546875 C 24.035156 0.347656 20.820312 -0.21875 17.21875 -1.15625 C 13.613281 -2.101562 9.800781 -3.601562 5.78125 -5.65625 Z M 5.78125 -5.65625 "/></g></g></g><g fill="#778a92" fill-opacity="1"><g transform="translate(525.276521, 217.098677)"><g/></g></g><path fill="#71bddb" d="M 91.484375 132.96875 C 85.847656 130.175781 78.632812 134.40625 80.414062 141.210938 C 82.394531 146.480469 87.773438 147.234375 90.957031 146.085938 C 97.097656 143.875 97.421875 135.90625 91.484375 132.96875 Z M 91.484375 132.96875 " fill-opacity="1" fill-rule="nonzero"/><path fill="#71bddb" d="M 84.859375 126.417969 C 90.132812 123.871094 89.667969 117.554688 84.070312 115.6875 C 78.878906 113.957031 71.605469 117.355469 73.800781 123.261719 C 75.886719 127.335938 81.203125 128.179688 84.859375 126.417969 Z M 84.859375 126.417969 " fill-opacity="1" fill-rule="nonzero"/><path fill="#71bddb" d="M 112.523438 129.089844 C 112.328125 128.96875 112.0625 128.820312 111.855469 128.71875 C 106.292969 125.894531 99.832031 129.355469 101.820312 135.96875 C 103.992188 141.242188 109.214844 142.429688 112.226562 141.589844 C 117.9375 139.996094 118.113281 132.519531 112.523438 129.089844 Z M 112.523438 129.089844 " fill-opacity="1" fill-rule="nonzero"/><path fill="#71bddb" d="M 105.773438 121.917969 C 110.992188 120.097656 110.246094 113.984375 104.480469 111.367188 C 104.273438 111.273438 103.992188 111.15625 103.777344 111.078125 C 98.070312 108.960938 91.976562 112.0625 94.273438 117.550781 C 96.800781 122.132812 102.574219 123.03125 105.773438 121.917969 Z M 105.773438 121.917969 " fill-opacity="1" fill-rule="nonzero"/><path fill="#71bddb" d="M 122.035156 133.144531 C 123.933594 138.242188 128.464844 140.050781 131.074219 139.707031 C 135.933594 139.074219 136.050781 132.375 131.277344 128.332031 C 130.777344 127.90625 130.042969 127.410156 129.492188 127.125 C 124.933594 124.75 120.414062 127.292969 122.035156 133.144531 Z M 122.035156 133.144531 " fill-opacity="1" fill-rule="nonzero"/><path fill="#71bddb" d="M 125.398438 120.699219 C 129.945312 119.867188 129.136719 114.253906 123.976562 110.851562 C 123.40625 110.476562 122.585938 110.035156 121.976562 109.777344 C 117.5 107.886719 112.355469 109.394531 114.710938 114.753906 C 117.289062 119.433594 122.574219 121.214844 125.398438 120.699219 Z M 125.398438 120.699219 " fill-opacity="1" fill-rule="nonzero"/><path fill="#71bddb" d="M 139.246094 133.714844 C 140.800781 138.574219 144.421875 141.1875 146.5 141.492188 C 150.507812 142.078125 150.011719 135.816406 146.601562 131.527344 C 145.566406 130.222656 144.558594 129.496094 144.171875 129.242188 C 140.921875 127.117188 138.003906 128.636719 139.246094 133.714844 Z M 139.246094 133.714844 " fill-opacity="1" fill-rule="nonzero"/><path fill="#71bddb" d="M 142.261719 123.445312 C 145.417969 123.359375 144.40625 118.605469 140.398438 114.671875 C 139.144531 113.445312 137.699219 112.441406 136.425781 111.917969 C 133.945312 110.898438 131.117188 111.449219 132.914062 115.871094 C 135.257812 120.65625 139.9375 123.507812 142.261719 123.445312 Z M 142.261719 123.445312 " fill-opacity="1" fill-rule="nonzero"/><path fill="#71bddb" d="M 154.703125 134.726562 C 153.4375 133.878906 151.855469 134.15625 152.695312 138.390625 C 153.917969 143.296875 156.902344 147.210938 158.414062 147.753906 C 160.578125 148.53125 159.964844 143.289062 157.902344 139.015625 C 156.941406 137.027344 155.746094 135.421875 154.703125 134.726562 Z M 154.703125 134.726562 " fill-opacity="1" fill-rule="nonzero"/><path fill="#71bddb" d="M 155.253906 130.878906 C 156.824219 131.050781 155.683594 127.027344 153.039062 123.054688 C 151.480469 120.714844 149.679688 118.84375 148.445312 118.292969 C 148.046875 118.113281 146.140625 117.425781 147.589844 121.367188 C 149.667969 126.296875 153.777344 130.714844 155.253906 130.878906 Z M 155.253906 130.878906 " fill-opacity="1" fill-rule="nonzero"/><path fill="#71bddb" d="M 162.34375 144.328125 C 162.003906 144.128906 161.492188 144.25 161.882812 147.296875 C 162.566406 151.691406 164.660156 158.203125 165.3125 158.484375 C 165.984375 158.773438 165.734375 154.394531 164.859375 150.546875 C 164.050781 146.992188 162.960938 144.691406 162.34375 144.328125 Z M 162.34375 144.328125 " fill-opacity="1" fill-rule="nonzero"/><path fill="#71bddb" d="M 163.585938 142.78125 C 163.90625 142.402344 162.972656 139 161.628906 135.640625 C 160.316406 132.367188 158.496094 128.882812 157.878906 128.917969 C 157.695312 129.140625 157.796875 129.738281 158.285156 131.285156 C 159.527344 134.957031 162.949219 142.742188 163.585938 142.78125 Z M 163.585938 142.78125 " fill-opacity="1" fill-rule="nonzero"/><path fill="#71bddb" d="M 196.101562 203.773438 C 194.121094 198.507812 188.742188 197.753906 185.558594 198.902344 C 179.417969 201.113281 179.09375 209.082031 185.03125 212.019531 C 190.667969 214.808594 197.882812 210.578125 196.101562 203.773438 Z M 196.101562 203.773438 " fill-opacity="1" fill-rule="nonzero"/><path fill="#71bddb" d="M 202.714844 221.726562 C 200.628906 217.652344 195.3125 216.804688 191.65625 218.570312 C 186.386719 221.117188 186.847656 227.433594 192.445312 229.296875 C 197.640625 231.03125 204.910156 227.628906 202.714844 221.726562 Z M 202.714844 221.726562 " fill-opacity="1" fill-rule="nonzero"/><path fill="#71bddb" d="M 174.695312 209.019531 C 172.523438 203.742188 167.304688 202.554688 164.289062 203.398438 C 158.582031 204.992188 158.402344 212.464844 163.992188 215.898438 C 164.1875 216.015625 164.457031 216.164062 164.660156 216.269531 C 170.222656 219.09375 176.683594 215.632812 174.695312 209.019531 Z M 174.695312 209.019531 " fill-opacity="1" fill-rule="nonzero"/><path fill="#71bddb" d="M 170.742188 223.070312 C 165.523438 224.886719 166.269531 231 172.035156 233.621094 C 172.242188 233.710938 172.523438 233.828125 172.738281 233.910156 C 178.449219 236.027344 184.539062 232.925781 182.246094 227.4375 C 179.714844 222.855469 173.941406 221.957031 170.742188 223.070312 Z M 170.742188 223.070312 " fill-opacity="1" fill-rule="nonzero"/><path fill="#71bddb" d="M 154.480469 211.839844 C 152.582031 206.746094 148.050781 204.9375 145.441406 205.277344 C 140.585938 205.914062 140.464844 212.613281 145.242188 216.65625 C 145.742188 217.078125 146.472656 217.574219 147.023438 217.859375 C 151.582031 220.238281 156.105469 217.695312 154.480469 211.839844 Z M 154.480469 211.839844 " fill-opacity="1" fill-rule="nonzero"/><path fill="#71bddb" d="M 151.121094 224.289062 C 146.570312 225.121094 147.378906 230.734375 152.539062 234.136719 C 153.109375 234.511719 153.929688 234.949219 154.539062 235.210938 C 159.019531 237.101562 164.160156 235.59375 161.804688 230.234375 C 159.226562 225.554688 153.941406 223.773438 151.121094 224.289062 Z M 151.121094 224.289062 " fill-opacity="1" fill-rule="nonzero"/><path fill="#71bddb" d="M 137.269531 211.269531 C 135.714844 206.414062 132.09375 203.800781 130.015625 203.496094 C 126.011719 202.910156 126.503906 209.167969 129.914062 213.460938 C 130.953125 214.765625 131.960938 215.492188 132.34375 215.746094 C 135.59375 217.871094 138.515625 216.351562 137.269531 211.269531 Z M 137.269531 211.269531 " fill-opacity="1" fill-rule="nonzero"/><path fill="#71bddb" d="M 134.253906 221.539062 C 131.097656 221.625 132.109375 226.382812 136.121094 230.3125 C 137.371094 231.539062 138.820312 232.542969 140.09375 233.070312 C 142.570312 234.085938 145.398438 233.539062 143.605469 229.117188 C 141.257812 224.332031 136.578125 221.476562 134.253906 221.539062 Z M 134.253906 221.539062 " fill-opacity="1" fill-rule="nonzero"/><path fill="#71bddb" d="M 118.101562 197.234375 C 115.9375 196.457031 116.554688 201.699219 118.613281 205.972656 C 119.574219 207.960938 120.769531 209.5625 121.8125 210.261719 C 123.082031 211.105469 124.660156 210.828125 123.824219 206.597656 C 122.597656 201.691406 119.617188 197.773438 118.101562 197.234375 Z M 118.101562 197.234375 " fill-opacity="1" fill-rule="nonzero"/><path fill="#71bddb" d="M 121.261719 214.109375 C 119.695312 213.9375 120.832031 217.957031 123.476562 221.933594 C 125.035156 224.273438 126.839844 226.144531 128.070312 226.695312 C 128.46875 226.871094 130.375 227.5625 128.925781 223.621094 C 126.847656 218.691406 122.742188 214.273438 121.261719 214.109375 Z M 121.261719 214.109375 " fill-opacity="1" fill-rule="nonzero"/><path fill="#71bddb" d="M 114.175781 200.660156 C 114.515625 200.855469 115.027344 200.738281 114.632812 197.691406 C 113.949219 193.296875 111.859375 186.78125 111.203125 186.5 C 110.535156 186.214844 110.785156 190.59375 111.660156 194.441406 C 112.464844 197.996094 113.558594 200.296875 114.175781 200.660156 Z M 114.175781 200.660156 " fill-opacity="1" fill-rule="nonzero"/><path fill="#71bddb" d="M 112.929688 202.207031 C 112.609375 202.582031 113.546875 205.988281 114.890625 209.347656 C 116.199219 212.621094 118.019531 216.105469 118.640625 216.070312 C 118.820312 215.847656 118.71875 215.25 118.230469 213.703125 C 116.988281 210.027344 113.566406 202.246094 112.929688 202.207031 Z M 112.929688 202.207031 " fill-opacity="1" fill-rule="nonzero"/><path fill="#00adef" d="M 98.734375 219.265625 C 95.941406 224.902344 100.171875 232.117188 106.976562 230.339844 C 112.242188 228.355469 112.996094 222.980469 111.851562 219.792969 C 109.640625 213.652344 101.671875 213.332031 98.734375 219.265625 Z M 98.734375 219.265625 " fill-opacity="1" fill-rule="nonzero"/><path fill="#00adef" d="M 81.453125 226.679688 C 79.722656 231.875 83.121094 239.148438 89.027344 236.949219 C 93.101562 234.867188 93.945312 229.550781 92.179688 225.890625 C 89.636719 220.621094 83.320312 221.085938 81.453125 226.679688 Z M 81.453125 226.679688 " fill-opacity="1" fill-rule="nonzero"/><path fill="#00adef" d="M 101.734375 208.929688 C 107.007812 206.761719 108.195312 201.539062 107.355469 198.523438 C 105.761719 192.816406 98.285156 192.636719 94.855469 198.226562 C 94.734375 198.421875 94.585938 198.691406 94.480469 198.894531 C 91.660156 204.457031 95.121094 210.917969 101.734375 208.929688 Z M 101.734375 208.929688 " fill-opacity="1" fill-rule="nonzero"/><path fill="#00adef" d="M 87.683594 204.980469 C 85.863281 199.757812 79.75 200.503906 77.132812 206.269531 C 77.039062 206.476562 76.921875 206.761719 76.84375 206.972656 C 74.722656 212.683594 77.824219 218.777344 83.316406 216.480469 C 87.898438 213.953125 88.796875 208.175781 87.683594 204.980469 Z M 87.683594 204.980469 " fill-opacity="1" fill-rule="nonzero"/><path fill="#00adef" d="M 98.910156 188.714844 C 104.003906 186.816406 105.816406 182.285156 105.472656 179.675781 C 104.839844 174.820312 98.140625 174.703125 94.097656 179.476562 C 93.671875 179.976562 93.175781 180.710938 92.890625 181.257812 C 90.515625 185.816406 93.058594 190.339844 98.910156 188.714844 Z M 98.910156 188.714844 " fill-opacity="1" fill-rule="nonzero"/><path fill="#00adef" d="M 80.519531 196.039062 C 85.199219 193.460938 86.976562 188.179688 86.460938 185.355469 C 85.632812 180.804688 80.019531 181.617188 76.617188 186.777344 C 76.242188 187.34375 75.800781 188.164062 75.542969 188.773438 C 73.652344 193.253906 75.160156 198.394531 80.519531 196.039062 Z M 80.519531 196.039062 " fill-opacity="1" fill-rule="nonzero"/><path fill="#00adef" d="M 95.007812 166.582031 C 92.878906 169.828125 94.402344 172.75 99.480469 171.503906 C 104.339844 169.949219 106.953125 166.328125 107.253906 164.25 C 107.839844 160.246094 101.582031 160.742188 97.289062 164.152344 C 95.988281 165.1875 95.257812 166.195312 95.007812 166.582031 Z M 95.007812 166.582031 " fill-opacity="1" fill-rule="nonzero"/><path fill="#00adef" d="M 81.632812 177.839844 C 86.421875 175.496094 89.273438 170.8125 89.210938 168.488281 C 89.125 165.332031 84.371094 166.34375 80.4375 170.355469 C 79.210938 171.605469 78.207031 173.054688 77.683594 174.328125 C 76.664062 176.804688 77.214844 179.636719 81.632812 177.839844 Z M 81.632812 177.839844 " fill-opacity="1" fill-rule="nonzero"/><path fill="#00adef" d="M 104.78125 152.851562 C 102.792969 153.808594 101.1875 155.003906 100.492188 156.046875 C 99.644531 157.316406 99.921875 158.894531 104.15625 158.058594 C 109.058594 156.832031 112.976562 153.851562 113.519531 152.335938 C 114.296875 150.175781 109.050781 150.789062 104.78125 152.851562 Z M 104.78125 152.851562 " fill-opacity="1" fill-rule="nonzero"/><path fill="#00adef" d="M 87.128906 163.160156 C 92.0625 161.085938 96.480469 156.976562 96.644531 155.496094 C 96.816406 153.929688 92.792969 155.070312 88.820312 157.714844 C 86.480469 159.269531 84.609375 161.074219 84.058594 162.304688 C 83.878906 162.703125 83.191406 164.609375 87.128906 163.160156 Z M 87.128906 163.160156 " fill-opacity="1" fill-rule="nonzero"/><path fill="#00adef" d="M 116.308594 145.894531 C 112.757812 146.703125 110.453125 147.792969 110.09375 148.410156 C 109.894531 148.75 110.015625 149.261719 113.058594 148.871094 C 117.453125 148.183594 123.96875 146.09375 124.25 145.441406 C 124.539062 144.769531 120.160156 145.019531 116.308594 145.894531 Z M 116.308594 145.894531 " fill-opacity="1" fill-rule="nonzero"/><path fill="#00adef" d="M 97.050781 152.46875 C 100.722656 151.226562 108.503906 147.800781 108.546875 147.164062 C 108.167969 146.847656 104.765625 147.78125 101.40625 149.125 C 98.132812 150.433594 94.648438 152.253906 94.683594 152.875 C 94.90625 153.058594 95.503906 152.953125 97.050781 152.46875 Z M 97.050781 152.46875 " fill-opacity="1" fill-rule="nonzero"/><path fill="#00adef" d="M 177.785156 125.71875 C 180.574219 120.082031 176.34375 112.867188 169.539062 114.648438 C 164.273438 116.628906 163.519531 122.007812 164.664062 125.191406 C 166.875 131.335938 174.84375 131.65625 177.785156 125.71875 Z M 177.785156 125.71875 " fill-opacity="1" fill-rule="nonzero"/><path fill="#00adef" d="M 195.0625 118.304688 C 196.792969 113.113281 193.394531 105.839844 187.492188 108.035156 C 183.417969 110.121094 182.570312 115.4375 184.335938 119.097656 C 186.878906 124.367188 193.195312 123.902344 195.0625 118.304688 Z M 195.0625 118.304688 " fill-opacity="1" fill-rule="nonzero"/><path fill="#00adef" d="M 174.78125 136.058594 C 169.507812 138.226562 168.320312 143.449219 169.160156 146.460938 C 170.753906 152.171875 178.230469 152.347656 181.660156 146.757812 C 181.78125 146.5625 181.929688 146.296875 182.035156 146.09375 C 184.855469 140.53125 181.394531 134.066406 174.78125 136.058594 Z M 174.78125 136.058594 " fill-opacity="1" fill-rule="nonzero"/><path fill="#00adef" d="M 188.832031 140.007812 C 190.652344 145.230469 196.765625 144.480469 199.382812 138.71875 C 199.476562 138.507812 199.59375 138.226562 199.671875 138.011719 C 201.792969 132.304688 198.6875 126.210938 193.203125 128.507812 C 188.617188 131.035156 187.71875 136.808594 188.832031 140.007812 Z M 188.832031 140.007812 " fill-opacity="1" fill-rule="nonzero"/><path fill="#00adef" d="M 177.605469 156.269531 C 172.511719 158.167969 170.699219 162.699219 171.042969 165.3125 C 171.679688 170.167969 178.375 170.285156 182.417969 165.511719 C 182.84375 165.011719 183.339844 164.277344 183.625 163.726562 C 186 159.167969 183.457031 154.648438 177.605469 156.269531 Z M 177.605469 156.269531 " fill-opacity="1" fill-rule="nonzero"/><path fill="#00adef" d="M 195.996094 148.945312 C 191.316406 151.527344 189.539062 156.808594 190.054688 159.632812 C 190.882812 164.183594 196.496094 163.371094 199.898438 158.210938 C 200.273438 157.644531 200.714844 156.820312 200.972656 156.210938 C 202.863281 151.734375 201.355469 146.589844 195.996094 148.945312 Z M 195.996094 148.945312 " fill-opacity="1" fill-rule="nonzero"/><path fill="#00adef" d="M 177.035156 173.480469 C 172.175781 175.035156 169.5625 178.660156 169.261719 180.734375 C 168.675781 184.742188 174.933594 184.246094 179.226562 180.835938 C 180.527344 179.800781 181.257812 178.792969 181.507812 178.40625 C 183.636719 175.160156 182.117188 172.238281 177.035156 173.480469 Z M 177.035156 173.480469 " fill-opacity="1" fill-rule="nonzero"/><path fill="#00adef" d="M 194.882812 167.148438 C 190.09375 169.492188 187.242188 174.175781 187.304688 176.5 C 187.390625 179.652344 192.148438 178.644531 196.078125 174.632812 C 197.304688 173.382812 198.308594 171.933594 198.832031 170.660156 C 199.851562 168.179688 199.300781 165.351562 194.882812 167.148438 Z M 194.882812 167.148438 " fill-opacity="1" fill-rule="nonzero"/><path fill="#00adef" d="M 171.738281 192.136719 C 173.726562 191.175781 175.328125 189.980469 176.023438 188.941406 C 176.871094 187.671875 176.59375 186.089844 172.359375 186.929688 C 167.457031 188.152344 163.539062 191.136719 162.996094 192.648438 C 162.222656 194.8125 167.464844 194.199219 171.738281 192.136719 Z M 171.738281 192.136719 " fill-opacity="1" fill-rule="nonzero"/><path fill="#00adef" d="M 189.386719 181.824219 C 184.457031 183.902344 180.035156 188.011719 179.871094 189.492188 C 179.703125 191.058594 183.722656 189.917969 187.695312 187.273438 C 190.039062 185.714844 191.90625 183.914062 192.460938 182.679688 C 192.636719 182.285156 193.324219 180.375 189.386719 181.824219 Z M 189.386719 181.824219 " fill-opacity="1" fill-rule="nonzero"/><path fill="#00adef" d="M 163.457031 196.117188 C 159.0625 196.800781 152.546875 198.894531 152.265625 199.546875 C 151.980469 200.21875 156.355469 199.96875 160.207031 199.09375 C 163.761719 198.285156 166.0625 197.195312 166.421875 196.578125 C 166.621094 196.238281 166.5 195.726562 163.457031 196.117188 Z M 163.457031 196.117188 " fill-opacity="1" fill-rule="nonzero"/><path fill="#00adef" d="M 179.464844 192.519531 C 175.792969 193.761719 168.011719 197.1875 167.96875 197.824219 C 168.347656 198.140625 171.753906 197.207031 175.109375 195.863281 C 178.386719 194.550781 181.871094 192.734375 181.835938 192.113281 C 181.609375 191.929688 181.011719 192.03125 179.464844 192.519531 Z M 179.464844 192.519531 " fill-opacity="1" fill-rule="nonzero"/><g fill="#778a92" fill-opacity="1"><g transform="translate(111.441639, 267.684803)"><g><path d="M 7.40625 0.109375 C 6.175781 0.109375 5.066406 -0.160156 4.078125 -0.703125 C 3.097656 -1.253906 2.328125 -2.007812 1.765625 -2.96875 C 1.203125 -3.925781 0.921875 -5.003906 0.921875 -6.203125 C 0.921875 -7.390625 1.203125 -8.460938 1.765625 -9.421875 C 2.328125 -10.390625 3.101562 -11.144531 4.09375 -11.6875 C 5.082031 -12.238281 6.191406 -12.515625 7.421875 -12.515625 C 8.347656 -12.515625 9.195312 -12.359375 9.96875 -12.046875 C 10.75 -11.742188 11.410156 -11.296875 11.953125 -10.703125 L 11.125 -9.875 C 10.15625 -10.851562 8.929688 -11.34375 7.453125 -11.34375 C 6.472656 -11.34375 5.582031 -11.117188 4.78125 -10.671875 C 3.976562 -10.222656 3.347656 -9.609375 2.890625 -8.828125 C 2.441406 -8.046875 2.21875 -7.171875 2.21875 -6.203125 C 2.21875 -5.234375 2.441406 -4.359375 2.890625 -3.578125 C 3.347656 -2.796875 3.976562 -2.179688 4.78125 -1.734375 C 5.582031 -1.285156 6.472656 -1.0625 7.453125 -1.0625 C 8.941406 -1.0625 10.164062 -1.554688 11.125 -2.546875 L 11.953125 -1.71875 C 11.410156 -1.125 10.742188 -0.671875 9.953125 -0.359375 C 9.171875 -0.046875 8.320312 0.109375 7.40625 0.109375 Z M 7.40625 0.109375 "/></g></g></g><g fill="#778a92" fill-opacity="1"><g transform="translate(125.100281, 267.684803)"><g><path d="M 9.875 -4.265625 L 2.078125 -4.265625 C 2.140625 -3.296875 2.507812 -2.515625 3.1875 -1.921875 C 3.863281 -1.328125 4.710938 -1.03125 5.734375 -1.03125 C 6.316406 -1.03125 6.847656 -1.128906 7.328125 -1.328125 C 7.816406 -1.535156 8.238281 -1.84375 8.59375 -2.25 L 9.296875 -1.4375 C 8.890625 -0.9375 8.375 -0.554688 7.75 -0.296875 C 7.132812 -0.0351562 6.453125 0.09375 5.703125 0.09375 C 4.742188 0.09375 3.894531 -0.109375 3.15625 -0.515625 C 2.425781 -0.929688 1.851562 -1.5 1.4375 -2.21875 C 1.019531 -2.9375 0.8125 -3.75 0.8125 -4.65625 C 0.8125 -5.570312 1.007812 -6.390625 1.40625 -7.109375 C 1.800781 -7.828125 2.34375 -8.382812 3.03125 -8.78125 C 3.726562 -9.1875 4.507812 -9.390625 5.375 -9.390625 C 6.226562 -9.390625 7 -9.1875 7.6875 -8.78125 C 8.375 -8.382812 8.910156 -7.828125 9.296875 -7.109375 C 9.691406 -6.398438 9.890625 -5.582031 9.890625 -4.65625 Z M 5.375 -8.3125 C 4.46875 -8.3125 3.710938 -8.023438 3.109375 -7.453125 C 2.503906 -6.878906 2.160156 -6.128906 2.078125 -5.203125 L 8.6875 -5.203125 C 8.601562 -6.128906 8.253906 -6.878906 7.640625 -7.453125 C 7.035156 -8.023438 6.28125 -8.3125 5.375 -8.3125 Z M 5.375 -8.3125 "/></g></g></g><g fill="#778a92" fill-opacity="1"><g transform="translate(136.721728, 267.684803)"><g><path d="M 6.5 -9.390625 C 7.664062 -9.390625 8.59375 -9.050781 9.28125 -8.375 C 9.976562 -7.695312 10.328125 -6.707031 10.328125 -5.40625 L 10.328125 0 L 9.078125 0 L 9.078125 -5.28125 C 9.078125 -6.25 8.832031 -6.984375 8.34375 -7.484375 C 7.863281 -7.992188 7.171875 -8.25 6.265625 -8.25 C 5.265625 -8.25 4.472656 -7.953125 3.890625 -7.359375 C 3.304688 -6.765625 3.015625 -5.941406 3.015625 -4.890625 L 3.015625 0 L 1.75 0 L 1.75 -9.3125 L 2.953125 -9.3125 L 2.953125 -7.59375 C 3.296875 -8.164062 3.769531 -8.609375 4.375 -8.921875 C 4.988281 -9.234375 5.695312 -9.390625 6.5 -9.390625 Z M 6.5 -9.390625 "/></g></g></g><g fill="#778a92" fill-opacity="1"><g transform="translate(149.636352, 267.684803)"><g><path d="M 6.65625 -0.5625 C 6.425781 -0.351562 6.132812 -0.191406 5.78125 -0.078125 C 5.4375 0.0351562 5.078125 0.09375 4.703125 0.09375 C 3.828125 0.09375 3.148438 -0.140625 2.671875 -0.609375 C 2.203125 -1.085938 1.96875 -1.757812 1.96875 -2.625 L 1.96875 -8.25 L 0.296875 -8.25 L 0.296875 -9.3125 L 1.96875 -9.3125 L 1.96875 -11.359375 L 3.21875 -11.359375 L 3.21875 -9.3125 L 6.0625 -9.3125 L 6.0625 -8.25 L 3.21875 -8.25 L 3.21875 -2.6875 C 3.21875 -2.132812 3.359375 -1.710938 3.640625 -1.421875 C 3.921875 -1.140625 4.320312 -1 4.84375 -1 C 5.101562 -1 5.351562 -1.035156 5.59375 -1.109375 C 5.832031 -1.191406 6.039062 -1.3125 6.21875 -1.46875 Z M 6.65625 -0.5625 "/></g></g></g><g fill="#778a92" fill-opacity="1"><g transform="translate(157.750282, 267.684803)"><g><path d="M 2.953125 -7.5 C 3.253906 -8.125 3.695312 -8.59375 4.28125 -8.90625 C 4.863281 -9.226562 5.585938 -9.390625 6.453125 -9.390625 L 6.453125 -8.171875 L 6.140625 -8.1875 C 5.160156 -8.1875 4.394531 -7.882812 3.84375 -7.28125 C 3.289062 -6.675781 3.015625 -5.832031 3.015625 -4.75 L 3.015625 0 L 1.75 0 L 1.75 -9.3125 L 2.953125 -9.3125 Z M 2.953125 -7.5 "/></g></g></g><g fill="#778a92" fill-opacity="1"><g transform="translate(165.77563, 267.684803)"><g><path d="M 5.5625 0.09375 C 4.664062 0.09375 3.859375 -0.109375 3.140625 -0.515625 C 2.421875 -0.929688 1.851562 -1.5 1.4375 -2.21875 C 1.019531 -2.9375 0.8125 -3.75 0.8125 -4.65625 C 0.8125 -5.570312 1.019531 -6.390625 1.4375 -7.109375 C 1.851562 -7.828125 2.421875 -8.382812 3.140625 -8.78125 C 3.859375 -9.1875 4.664062 -9.390625 5.5625 -9.390625 C 6.457031 -9.390625 7.265625 -9.1875 7.984375 -8.78125 C 8.710938 -8.382812 9.28125 -7.828125 9.6875 -7.109375 C 10.09375 -6.390625 10.296875 -5.570312 10.296875 -4.65625 C 10.296875 -3.75 10.09375 -2.9375 9.6875 -2.21875 C 9.28125 -1.5 8.710938 -0.929688 7.984375 -0.515625 C 7.265625 -0.109375 6.457031 0.09375 5.5625 0.09375 Z M 5.5625 -1.03125 C 6.226562 -1.03125 6.820312 -1.179688 7.34375 -1.484375 C 7.875 -1.785156 8.285156 -2.210938 8.578125 -2.765625 C 8.867188 -3.316406 9.015625 -3.945312 9.015625 -4.65625 C 9.015625 -5.363281 8.867188 -5.992188 8.578125 -6.546875 C 8.285156 -7.109375 7.875 -7.539062 7.34375 -7.84375 C 6.820312 -8.144531 6.226562 -8.296875 5.5625 -8.296875 C 4.90625 -8.296875 4.3125 -8.144531 3.78125 -7.84375 C 3.257812 -7.539062 2.847656 -7.109375 2.546875 -6.546875 C 2.242188 -5.992188 2.09375 -5.363281 2.09375 -4.65625 C 2.09375 -3.945312 2.242188 -3.316406 2.546875 -2.765625 C 2.847656 -2.210938 3.257812 -1.785156 3.78125 -1.484375 C 4.3125 -1.179688 4.90625 -1.03125 5.5625 -1.03125 Z M 5.5625 -1.03125 "/></g></g></g><g fill="#778a92" fill-opacity="1"><g transform="translate(177.804511, 267.684803)"><g/></g></g><g fill="#778a92" fill-opacity="1"><g transform="translate(183.367517, 267.684803)"><g><path d="M 10.265625 -13.140625 L 10.265625 0 L 9.046875 0 L 9.046875 -1.84375 C 8.671875 -1.21875 8.171875 -0.738281 7.546875 -0.40625 C 6.929688 -0.0703125 6.234375 0.09375 5.453125 0.09375 C 4.578125 0.09375 3.785156 -0.101562 3.078125 -0.5 C 2.367188 -0.90625 1.8125 -1.46875 1.40625 -2.1875 C 1.007812 -2.914062 0.8125 -3.738281 0.8125 -4.65625 C 0.8125 -5.582031 1.007812 -6.40625 1.40625 -7.125 C 1.8125 -7.84375 2.367188 -8.398438 3.078125 -8.796875 C 3.785156 -9.191406 4.578125 -9.390625 5.453125 -9.390625 C 6.210938 -9.390625 6.894531 -9.234375 7.5 -8.921875 C 8.113281 -8.609375 8.613281 -8.148438 9 -7.546875 L 9 -13.140625 Z M 5.5625 -1.03125 C 6.207031 -1.03125 6.789062 -1.179688 7.3125 -1.484375 C 7.84375 -1.785156 8.257812 -2.210938 8.5625 -2.765625 C 8.863281 -3.316406 9.015625 -3.945312 9.015625 -4.65625 C 9.015625 -5.363281 8.863281 -5.992188 8.5625 -6.546875 C 8.257812 -7.109375 7.84375 -7.539062 7.3125 -7.84375 C 6.789062 -8.144531 6.207031 -8.296875 5.5625 -8.296875 C 4.90625 -8.296875 4.3125 -8.144531 3.78125 -7.84375 C 3.257812 -7.539062 2.847656 -7.109375 2.546875 -6.546875 C 2.242188 -5.992188 2.09375 -5.363281 2.09375 -4.65625 C 2.09375 -3.945312 2.242188 -3.316406 2.546875 -2.765625 C 2.847656 -2.210938 3.257812 -1.785156 3.78125 -1.484375 C 4.3125 -1.179688 4.90625 -1.03125 5.5625 -1.03125 Z M 5.5625 -1.03125 "/></g></g></g><g fill="#778a92" fill-opacity="1"><g transform="translate(196.299849, 267.684803)"><g><path d="M 9.875 -4.265625 L 2.078125 -4.265625 C 2.140625 -3.296875 2.507812 -2.515625 3.1875 -1.921875 C 3.863281 -1.328125 4.710938 -1.03125 5.734375 -1.03125 C 6.316406 -1.03125 6.847656 -1.128906 7.328125 -1.328125 C 7.816406 -1.535156 8.238281 -1.84375 8.59375 -2.25 L 9.296875 -1.4375 C 8.890625 -0.9375 8.375 -0.554688 7.75 -0.296875 C 7.132812 -0.0351562 6.453125 0.09375 5.703125 0.09375 C 4.742188 0.09375 3.894531 -0.109375 3.15625 -0.515625 C 2.425781 -0.929688 1.851562 -1.5 1.4375 -2.21875 C 1.019531 -2.9375 0.8125 -3.75 0.8125 -4.65625 C 0.8125 -5.570312 1.007812 -6.390625 1.40625 -7.109375 C 1.800781 -7.828125 2.34375 -8.382812 3.03125 -8.78125 C 3.726562 -9.1875 4.507812 -9.390625 5.375 -9.390625 C 6.226562 -9.390625 7 -9.1875 7.6875 -8.78125 C 8.375 -8.382812 8.910156 -7.828125 9.296875 -7.109375 C 9.691406 -6.398438 9.890625 -5.582031 9.890625 -4.65625 Z M 5.375 -8.3125 C 4.46875 -8.3125 3.710938 -8.023438 3.109375 -7.453125 C 2.503906 -6.878906 2.160156 -6.128906 2.078125 -5.203125 L 8.6875 -5.203125 C 8.601562 -6.128906 8.253906 -6.878906 7.640625 -7.453125 C 7.035156 -8.023438 6.28125 -8.3125 5.375 -8.3125 Z M 5.375 -8.3125 "/></g></g></g><g fill="#778a92" fill-opacity="1"><g transform="translate(207.921294, 267.684803)"><g/></g></g><g fill="#778a92" fill-opacity="1"><g transform="translate(213.4843, 267.684803)"><g><path d="M 6.65625 -12.40625 C 8.238281 -12.40625 9.476562 -12.023438 10.375 -11.265625 C 11.28125 -10.515625 11.734375 -9.476562 11.734375 -8.15625 C 11.734375 -6.832031 11.28125 -5.796875 10.375 -5.046875 C 9.476562 -4.296875 8.238281 -3.921875 6.65625 -3.921875 L 3.328125 -3.921875 L 3.328125 0 L 2.015625 0 L 2.015625 -12.40625 Z M 6.625 -5.0625 C 7.851562 -5.0625 8.789062 -5.332031 9.4375 -5.875 C 10.09375 -6.414062 10.421875 -7.175781 10.421875 -8.15625 C 10.421875 -9.15625 10.09375 -9.921875 9.4375 -10.453125 C 8.789062 -10.992188 7.851562 -11.265625 6.625 -11.265625 L 3.328125 -11.265625 L 3.328125 -5.0625 Z M 6.625 -5.0625 "/></g></g></g><g fill="#778a92" fill-opacity="1"><g transform="translate(227.125216, 267.684803)"><g><path d="M 9.875 -4.265625 L 2.078125 -4.265625 C 2.140625 -3.296875 2.507812 -2.515625 3.1875 -1.921875 C 3.863281 -1.328125 4.710938 -1.03125 5.734375 -1.03125 C 6.316406 -1.03125 6.847656 -1.128906 7.328125 -1.328125 C 7.816406 -1.535156 8.238281 -1.84375 8.59375 -2.25 L 9.296875 -1.4375 C 8.890625 -0.9375 8.375 -0.554688 7.75 -0.296875 C 7.132812 -0.0351562 6.453125 0.09375 5.703125 0.09375 C 4.742188 0.09375 3.894531 -0.109375 3.15625 -0.515625 C 2.425781 -0.929688 1.851562 -1.5 1.4375 -2.21875 C 1.019531 -2.9375 0.8125 -3.75 0.8125 -4.65625 C 0.8125 -5.570312 1.007812 -6.390625 1.40625 -7.109375 C 1.800781 -7.828125 2.34375 -8.382812 3.03125 -8.78125 C 3.726562 -9.1875 4.507812 -9.390625 5.375 -9.390625 C 6.226562 -9.390625 7 -9.1875 7.6875 -8.78125 C 8.375 -8.382812 8.910156 -7.828125 9.296875 -7.109375 C 9.691406 -6.398438 9.890625 -5.582031 9.890625 -4.65625 Z M 5.375 -8.3125 C 4.46875 -8.3125 3.710938 -8.023438 3.109375 -7.453125 C 2.503906 -6.878906 2.160156 -6.128906 2.078125 -5.203125 L 8.6875 -5.203125 C 8.601562 -6.128906 8.253906 -6.878906 7.640625 -7.453125 C 7.035156 -8.023438 6.28125 -8.3125 5.375 -8.3125 Z M 5.375 -8.3125 "/></g></g></g><g fill="#778a92" fill-opacity="1"><g transform="translate(238.74666, 267.684803)"><g><path d="M 4.25 0.09375 C 3.5 0.09375 2.773438 -0.015625 2.078125 -0.234375 C 1.390625 -0.453125 0.847656 -0.726562 0.453125 -1.0625 L 1.03125 -2.0625 C 1.414062 -1.75 1.90625 -1.492188 2.5 -1.296875 C 3.09375 -1.109375 3.707031 -1.015625 4.34375 -1.015625 C 5.1875 -1.015625 5.8125 -1.144531 6.21875 -1.40625 C 6.632812 -1.675781 6.84375 -2.050781 6.84375 -2.53125 C 6.84375 -2.875 6.726562 -3.140625 6.5 -3.328125 C 6.28125 -3.523438 6 -3.675781 5.65625 -3.78125 C 5.3125 -3.882812 4.851562 -3.984375 4.28125 -4.078125 C 3.53125 -4.210938 2.921875 -4.351562 2.453125 -4.5 C 1.992188 -4.65625 1.601562 -4.910156 1.28125 -5.265625 C 0.957031 -5.617188 0.796875 -6.109375 0.796875 -6.734375 C 0.796875 -7.515625 1.117188 -8.148438 1.765625 -8.640625 C 2.421875 -9.140625 3.328125 -9.390625 4.484375 -9.390625 C 5.085938 -9.390625 5.6875 -9.304688 6.28125 -9.140625 C 6.882812 -8.984375 7.382812 -8.773438 7.78125 -8.515625 L 7.234375 -7.515625 C 6.460938 -8.046875 5.546875 -8.3125 4.484375 -8.3125 C 3.679688 -8.3125 3.078125 -8.164062 2.671875 -7.875 C 2.265625 -7.59375 2.0625 -7.222656 2.0625 -6.765625 C 2.0625 -6.410156 2.175781 -6.125 2.40625 -5.90625 C 2.632812 -5.695312 2.921875 -5.539062 3.265625 -5.4375 C 3.609375 -5.34375 4.078125 -5.242188 4.671875 -5.140625 C 5.421875 -4.992188 6.019531 -4.847656 6.46875 -4.703125 C 6.914062 -4.566406 7.296875 -4.328125 7.609375 -3.984375 C 7.929688 -3.640625 8.09375 -3.164062 8.09375 -2.5625 C 8.09375 -1.75 7.753906 -1.101562 7.078125 -0.625 C 6.398438 -0.144531 5.457031 0.09375 4.25 0.09375 Z M 4.25 0.09375 "/></g></g></g><g fill="#778a92" fill-opacity="1"><g transform="translate(248.33091, 267.684803)"><g><path d="M 10.265625 -9.3125 L 10.265625 3.4375 L 9 3.4375 L 9 -1.75 C 8.613281 -1.144531 8.113281 -0.6875 7.5 -0.375 C 6.894531 -0.0625 6.210938 0.09375 5.453125 0.09375 C 4.566406 0.09375 3.769531 -0.101562 3.0625 -0.5 C 2.363281 -0.894531 1.8125 -1.453125 1.40625 -2.171875 C 1.007812 -2.898438 0.8125 -3.726562 0.8125 -4.65625 C 0.8125 -5.582031 1.007812 -6.40625 1.40625 -7.125 C 1.8125 -7.84375 2.367188 -8.398438 3.078125 -8.796875 C 3.785156 -9.191406 4.578125 -9.390625 5.453125 -9.390625 C 6.234375 -9.390625 6.929688 -9.222656 7.546875 -8.890625 C 8.171875 -8.566406 8.671875 -8.097656 9.046875 -7.484375 L 9.046875 -9.3125 Z M 5.5625 -1.03125 C 6.207031 -1.03125 6.789062 -1.179688 7.3125 -1.484375 C 7.84375 -1.785156 8.257812 -2.210938 8.5625 -2.765625 C 8.863281 -3.316406 9.015625 -3.945312 9.015625 -4.65625 C 9.015625 -5.363281 8.863281 -5.992188 8.5625 -6.546875 C 8.257812 -7.097656 7.84375 -7.523438 7.3125 -7.828125 C 6.789062 -8.140625 6.207031 -8.296875 5.5625 -8.296875 C 4.90625 -8.296875 4.3125 -8.140625 3.78125 -7.828125 C 3.257812 -7.523438 2.847656 -7.097656 2.546875 -6.546875 C 2.242188 -5.992188 2.09375 -5.363281 2.09375 -4.65625 C 2.09375 -3.945312 2.242188 -3.316406 2.546875 -2.765625 C 2.847656 -2.210938 3.257812 -1.785156 3.78125 -1.484375 C 4.3125 -1.179688 4.90625 -1.03125 5.5625 -1.03125 Z M 5.5625 -1.03125 "/></g></g></g><g fill="#778a92" fill-opacity="1"><g transform="translate(261.263243, 267.684803)"><g><path d="M 10.15625 -9.3125 L 10.15625 0 L 8.953125 0 L 8.953125 -1.703125 C 8.617188 -1.128906 8.160156 -0.6875 7.578125 -0.375 C 7.003906 -0.0625 6.34375 0.09375 5.59375 0.09375 C 4.382812 0.09375 3.425781 -0.242188 2.71875 -0.921875 C 2.019531 -1.609375 1.671875 -2.609375 1.671875 -3.921875 L 1.671875 -9.3125 L 2.921875 -9.3125 L 2.921875 -4.046875 C 2.921875 -3.054688 3.160156 -2.304688 3.640625 -1.796875 C 4.128906 -1.296875 4.820312 -1.046875 5.71875 -1.046875 C 6.695312 -1.046875 7.46875 -1.34375 8.03125 -1.9375 C 8.601562 -2.53125 8.890625 -3.363281 8.890625 -4.4375 L 8.890625 -9.3125 Z M 10.15625 -9.3125 "/></g></g></g><g fill="#778a92" fill-opacity="1"><g transform="translate(274.106996, 267.684803)"><g><path d="M 1.75 -9.3125 L 3.015625 -9.3125 L 3.015625 0 L 1.75 0 Z M 2.390625 -11.359375 C 2.128906 -11.359375 1.910156 -11.445312 1.734375 -11.625 C 1.554688 -11.800781 1.46875 -12.015625 1.46875 -12.265625 C 1.46875 -12.492188 1.554688 -12.695312 1.734375 -12.875 C 1.910156 -13.050781 2.128906 -13.140625 2.390625 -13.140625 C 2.648438 -13.140625 2.867188 -13.054688 3.046875 -12.890625 C 3.222656 -12.722656 3.3125 -12.519531 3.3125 -12.28125 C 3.3125 -12.019531 3.222656 -11.800781 3.046875 -11.625 C 2.867188 -11.445312 2.648438 -11.359375 2.390625 -11.359375 Z M 2.390625 -11.359375 "/></g></g></g><g fill="#778a92" fill-opacity="1"><g transform="translate(279.794003, 267.684803)"><g><path d="M 4.25 0.09375 C 3.5 0.09375 2.773438 -0.015625 2.078125 -0.234375 C 1.390625 -0.453125 0.847656 -0.726562 0.453125 -1.0625 L 1.03125 -2.0625 C 1.414062 -1.75 1.90625 -1.492188 2.5 -1.296875 C 3.09375 -1.109375 3.707031 -1.015625 4.34375 -1.015625 C 5.1875 -1.015625 5.8125 -1.144531 6.21875 -1.40625 C 6.632812 -1.675781 6.84375 -2.050781 6.84375 -2.53125 C 6.84375 -2.875 6.726562 -3.140625 6.5 -3.328125 C 6.28125 -3.523438 6 -3.675781 5.65625 -3.78125 C 5.3125 -3.882812 4.851562 -3.984375 4.28125 -4.078125 C 3.53125 -4.210938 2.921875 -4.351562 2.453125 -4.5 C 1.992188 -4.65625 1.601562 -4.910156 1.28125 -5.265625 C 0.957031 -5.617188 0.796875 -6.109375 0.796875 -6.734375 C 0.796875 -7.515625 1.117188 -8.148438 1.765625 -8.640625 C 2.421875 -9.140625 3.328125 -9.390625 4.484375 -9.390625 C 5.085938 -9.390625 5.6875 -9.304688 6.28125 -9.140625 C 6.882812 -8.984375 7.382812 -8.773438 7.78125 -8.515625 L 7.234375 -7.515625 C 6.460938 -8.046875 5.546875 -8.3125 4.484375 -8.3125 C 3.679688 -8.3125 3.078125 -8.164062 2.671875 -7.875 C 2.265625 -7.59375 2.0625 -7.222656 2.0625 -6.765625 C 2.0625 -6.410156 2.175781 -6.125 2.40625 -5.90625 C 2.632812 -5.695312 2.921875 -5.539062 3.265625 -5.4375 C 3.609375 -5.34375 4.078125 -5.242188 4.671875 -5.140625 C 5.421875 -4.992188 6.019531 -4.847656 6.46875 -4.703125 C 6.914062 -4.566406 7.296875 -4.328125 7.609375 -3.984375 C 7.929688 -3.640625 8.09375 -3.164062 8.09375 -2.5625 C 8.09375 -1.75 7.753906 -1.101562 7.078125 -0.625 C 6.398438 -0.144531 5.457031 0.09375 4.25 0.09375 Z M 4.25 0.09375 "/></g></g></g><g fill="#778a92" fill-opacity="1"><g transform="translate(289.378253, 267.684803)"><g><path d="M 5.015625 -9.390625 C 6.234375 -9.390625 7.164062 -9.082031 7.8125 -8.46875 C 8.457031 -7.863281 8.78125 -6.96875 8.78125 -5.78125 L 8.78125 0 L 7.578125 0 L 7.578125 -1.453125 C 7.296875 -0.960938 6.878906 -0.582031 6.328125 -0.3125 C 5.785156 -0.0390625 5.132812 0.09375 4.375 0.09375 C 3.332031 0.09375 2.503906 -0.15625 1.890625 -0.65625 C 1.273438 -1.15625 0.96875 -1.8125 0.96875 -2.625 C 0.96875 -3.414062 1.253906 -4.050781 1.828125 -4.53125 C 2.398438 -5.019531 3.316406 -5.265625 4.578125 -5.265625 L 7.53125 -5.265625 L 7.53125 -5.828125 C 7.53125 -6.628906 7.304688 -7.238281 6.859375 -7.65625 C 6.410156 -8.082031 5.753906 -8.296875 4.890625 -8.296875 C 4.296875 -8.296875 3.726562 -8.195312 3.1875 -8 C 2.644531 -7.800781 2.179688 -7.53125 1.796875 -7.1875 L 1.21875 -8.140625 C 1.695312 -8.535156 2.265625 -8.84375 2.921875 -9.0625 C 3.585938 -9.28125 4.285156 -9.390625 5.015625 -9.390625 Z M 4.578125 -0.90625 C 5.285156 -0.90625 5.890625 -1.066406 6.390625 -1.390625 C 6.898438 -1.710938 7.28125 -2.179688 7.53125 -2.796875 L 7.53125 -4.328125 L 4.609375 -4.328125 C 3.015625 -4.328125 2.21875 -3.769531 2.21875 -2.65625 C 2.21875 -2.113281 2.421875 -1.6875 2.828125 -1.375 C 3.242188 -1.0625 3.828125 -0.90625 4.578125 -0.90625 Z M 4.578125 -0.90625 "/></g></g></g><g fill="#778a92" fill-opacity="1"><g transform="translate(300.751684, 267.684803)"><g/></g></g><g fill="#778a92" fill-opacity="1"><g transform="translate(306.31469, 267.684803)"><g><path d="M 6.65625 -12.40625 C 8.238281 -12.40625 9.476562 -12.023438 10.375 -11.265625 C 11.28125 -10.515625 11.734375 -9.476562 11.734375 -8.15625 C 11.734375 -6.832031 11.28125 -5.796875 10.375 -5.046875 C 9.476562 -4.296875 8.238281 -3.921875 6.65625 -3.921875 L 3.328125 -3.921875 L 3.328125 0 L 2.015625 0 L 2.015625 -12.40625 Z M 6.625 -5.0625 C 7.851562 -5.0625 8.789062 -5.332031 9.4375 -5.875 C 10.09375 -6.414062 10.421875 -7.175781 10.421875 -8.15625 C 10.421875 -9.15625 10.09375 -9.921875 9.4375 -10.453125 C 8.789062 -10.992188 7.851562 -11.265625 6.625 -11.265625 L 3.328125 -11.265625 L 3.328125 -5.0625 Z M 6.625 -5.0625 "/></g></g></g><g fill="#778a92" fill-opacity="1"><g transform="translate(319.955618, 267.684803)"><g><path d="M 5.5625 0.09375 C 4.664062 0.09375 3.859375 -0.109375 3.140625 -0.515625 C 2.421875 -0.929688 1.851562 -1.5 1.4375 -2.21875 C 1.019531 -2.9375 0.8125 -3.75 0.8125 -4.65625 C 0.8125 -5.570312 1.019531 -6.390625 1.4375 -7.109375 C 1.851562 -7.828125 2.421875 -8.382812 3.140625 -8.78125 C 3.859375 -9.1875 4.664062 -9.390625 5.5625 -9.390625 C 6.457031 -9.390625 7.265625 -9.1875 7.984375 -8.78125 C 8.710938 -8.382812 9.28125 -7.828125 9.6875 -7.109375 C 10.09375 -6.390625 10.296875 -5.570312 10.296875 -4.65625 C 10.296875 -3.75 10.09375 -2.9375 9.6875 -2.21875 C 9.28125 -1.5 8.710938 -0.929688 7.984375 -0.515625 C 7.265625 -0.109375 6.457031 0.09375 5.5625 0.09375 Z M 5.5625 -1.03125 C 6.226562 -1.03125 6.820312 -1.179688 7.34375 -1.484375 C 7.875 -1.785156 8.285156 -2.210938 8.578125 -2.765625 C 8.867188 -3.316406 9.015625 -3.945312 9.015625 -4.65625 C 9.015625 -5.363281 8.867188 -5.992188 8.578125 -6.546875 C 8.285156 -7.109375 7.875 -7.539062 7.34375 -7.84375 C 6.820312 -8.144531 6.226562 -8.296875 5.5625 -8.296875 C 4.90625 -8.296875 4.3125 -8.144531 3.78125 -7.84375 C 3.257812 -7.539062 2.847656 -7.109375 2.546875 -6.546875 C 2.242188 -5.992188 2.09375 -5.363281 2.09375 -4.65625 C 2.09375 -3.945312 2.242188 -3.316406 2.546875 -2.765625 C 2.847656 -2.210938 3.257812 -1.785156 3.78125 -1.484375 C 4.3125 -1.179688 4.90625 -1.03125 5.5625 -1.03125 Z M 5.5625 -1.03125 "/></g></g></g><g fill="#778a92" fill-opacity="1"><g transform="translate(331.984499, 267.684803)"><g><path d="M 1.75 -13.140625 L 3.015625 -13.140625 L 3.015625 0 L 1.75 0 Z M 1.75 -13.140625 "/></g></g></g><g fill="#778a92" fill-opacity="1"><g transform="translate(337.671506, 267.684803)"><g><path d="M 1.75 -9.3125 L 3.015625 -9.3125 L 3.015625 0 L 1.75 0 Z M 3.65625 -12.96875 L 5.34375 -12.96875 L 2.46875 -10.765625 L 1.234375 -10.765625 Z M 3.65625 -12.96875 "/></g></g></g><g fill="#778a92" fill-opacity="1"><g transform="translate(343.358513, 267.684803)"><g><path d="M 6.65625 -0.5625 C 6.425781 -0.351562 6.132812 -0.191406 5.78125 -0.078125 C 5.4375 0.0351562 5.078125 0.09375 4.703125 0.09375 C 3.828125 0.09375 3.148438 -0.140625 2.671875 -0.609375 C 2.203125 -1.085938 1.96875 -1.757812 1.96875 -2.625 L 1.96875 -8.25 L 0.296875 -8.25 L 0.296875 -9.3125 L 1.96875 -9.3125 L 1.96875 -11.359375 L 3.21875 -11.359375 L 3.21875 -9.3125 L 6.0625 -9.3125 L 6.0625 -8.25 L 3.21875 -8.25 L 3.21875 -2.6875 C 3.21875 -2.132812 3.359375 -1.710938 3.640625 -1.421875 C 3.921875 -1.140625 4.320312 -1 4.84375 -1 C 5.101562 -1 5.351562 -1.035156 5.59375 -1.109375 C 5.832031 -1.191406 6.039062 -1.3125 6.21875 -1.46875 Z M 6.65625 -0.5625 "/></g></g></g><g fill="#778a92" fill-opacity="1"><g transform="translate(351.472439, 267.684803)"><g><path d="M 1.75 -9.3125 L 3.015625 -9.3125 L 3.015625 0 L 1.75 0 Z M 2.390625 -11.359375 C 2.128906 -11.359375 1.910156 -11.445312 1.734375 -11.625 C 1.554688 -11.800781 1.46875 -12.015625 1.46875 -12.265625 C 1.46875 -12.492188 1.554688 -12.695312 1.734375 -12.875 C 1.910156 -13.050781 2.128906 -13.140625 2.390625 -13.140625 C 2.648438 -13.140625 2.867188 -13.054688 3.046875 -12.890625 C 3.222656 -12.722656 3.3125 -12.519531 3.3125 -12.28125 C 3.3125 -12.019531 3.222656 -11.800781 3.046875 -11.625 C 2.867188 -11.445312 2.648438 -11.359375 2.390625 -11.359375 Z M 2.390625 -11.359375 "/></g></g></g><g fill="#778a92" fill-opacity="1"><g transform="translate(357.159446, 267.684803)"><g><path d="M 5.609375 0.09375 C 4.691406 0.09375 3.867188 -0.101562 3.140625 -0.5 C 2.421875 -0.90625 1.851562 -1.472656 1.4375 -2.203125 C 1.019531 -2.929688 0.8125 -3.75 0.8125 -4.65625 C 0.8125 -5.570312 1.019531 -6.390625 1.4375 -7.109375 C 1.851562 -7.828125 2.421875 -8.382812 3.140625 -8.78125 C 3.867188 -9.1875 4.691406 -9.390625 5.609375 -9.390625 C 6.421875 -9.390625 7.140625 -9.234375 7.765625 -8.921875 C 8.398438 -8.609375 8.898438 -8.148438 9.265625 -7.546875 L 8.328125 -6.90625 C 8.015625 -7.363281 7.625 -7.707031 7.15625 -7.9375 C 6.6875 -8.175781 6.171875 -8.296875 5.609375 -8.296875 C 4.941406 -8.296875 4.335938 -8.144531 3.796875 -7.84375 C 3.265625 -7.539062 2.847656 -7.109375 2.546875 -6.546875 C 2.242188 -5.992188 2.09375 -5.363281 2.09375 -4.65625 C 2.09375 -3.9375 2.242188 -3.300781 2.546875 -2.75 C 2.847656 -2.207031 3.265625 -1.785156 3.796875 -1.484375 C 4.335938 -1.179688 4.941406 -1.03125 5.609375 -1.03125 C 6.171875 -1.03125 6.6875 -1.140625 7.15625 -1.359375 C 7.625 -1.585938 8.015625 -1.929688 8.328125 -2.390625 L 9.265625 -1.75 C 8.898438 -1.144531 8.394531 -0.6875 7.75 -0.375 C 7.113281 -0.0625 6.398438 0.09375 5.609375 0.09375 Z M 5.609375 0.09375 "/></g></g></g><g fill="#778a92" fill-opacity="1"><g transform="translate(368.054585, 267.684803)"><g><path d="M 5.015625 -9.390625 C 6.234375 -9.390625 7.164062 -9.082031 7.8125 -8.46875 C 8.457031 -7.863281 8.78125 -6.96875 8.78125 -5.78125 L 8.78125 0 L 7.578125 0 L 7.578125 -1.453125 C 7.296875 -0.960938 6.878906 -0.582031 6.328125 -0.3125 C 5.785156 -0.0390625 5.132812 0.09375 4.375 0.09375 C 3.332031 0.09375 2.503906 -0.15625 1.890625 -0.65625 C 1.273438 -1.15625 0.96875 -1.8125 0.96875 -2.625 C 0.96875 -3.414062 1.253906 -4.050781 1.828125 -4.53125 C 2.398438 -5.019531 3.316406 -5.265625 4.578125 -5.265625 L 7.53125 -5.265625 L 7.53125 -5.828125 C 7.53125 -6.628906 7.304688 -7.238281 6.859375 -7.65625 C 6.410156 -8.082031 5.753906 -8.296875 4.890625 -8.296875 C 4.296875 -8.296875 3.726562 -8.195312 3.1875 -8 C 2.644531 -7.800781 2.179688 -7.53125 1.796875 -7.1875 L 1.21875 -8.140625 C 1.695312 -8.535156 2.265625 -8.84375 2.921875 -9.0625 C 3.585938 -9.28125 4.285156 -9.390625 5.015625 -9.390625 Z M 4.578125 -0.90625 C 5.285156 -0.90625 5.890625 -1.066406 6.390625 -1.390625 C 6.898438 -1.710938 7.28125 -2.179688 7.53125 -2.796875 L 7.53125 -4.328125 L 4.609375 -4.328125 C 3.015625 -4.328125 2.21875 -3.769531 2.21875 -2.65625 C 2.21875 -2.113281 2.421875 -1.6875 2.828125 -1.375 C 3.242188 -1.0625 3.828125 -0.90625 4.578125 -0.90625 Z M 4.578125 -0.90625 "/></g></g></g><g fill="#778a92" fill-opacity="1"><g transform="translate(379.428027, 267.684803)"><g/></g></g><g fill="#778a92" fill-opacity="1"><g transform="translate(384.991045, 267.684803)"><g><path d="M 9.875 -4.265625 L 2.078125 -4.265625 C 2.140625 -3.296875 2.507812 -2.515625 3.1875 -1.921875 C 3.863281 -1.328125 4.710938 -1.03125 5.734375 -1.03125 C 6.316406 -1.03125 6.847656 -1.128906 7.328125 -1.328125 C 7.816406 -1.535156 8.238281 -1.84375 8.59375 -2.25 L 9.296875 -1.4375 C 8.890625 -0.9375 8.375 -0.554688 7.75 -0.296875 C 7.132812 -0.0351562 6.453125 0.09375 5.703125 0.09375 C 4.742188 0.09375 3.894531 -0.109375 3.15625 -0.515625 C 2.425781 -0.929688 1.851562 -1.5 1.4375 -2.21875 C 1.019531 -2.9375 0.8125 -3.75 0.8125 -4.65625 C 0.8125 -5.570312 1.007812 -6.390625 1.40625 -7.109375 C 1.800781 -7.828125 2.34375 -8.382812 3.03125 -8.78125 C 3.726562 -9.1875 4.507812 -9.390625 5.375 -9.390625 C 6.226562 -9.390625 7 -9.1875 7.6875 -8.78125 C 8.375 -8.382812 8.910156 -7.828125 9.296875 -7.109375 C 9.691406 -6.398438 9.890625 -5.582031 9.890625 -4.65625 Z M 5.375 -8.3125 C 4.46875 -8.3125 3.710938 -8.023438 3.109375 -7.453125 C 2.503906 -6.878906 2.160156 -6.128906 2.078125 -5.203125 L 8.6875 -5.203125 C 8.601562 -6.128906 8.253906 -6.878906 7.640625 -7.453125 C 7.035156 -8.023438 6.28125 -8.3125 5.375 -8.3125 Z M 5.375 -8.3125 "/></g></g></g><g fill="#778a92" fill-opacity="1"><g transform="translate(396.612489, 267.684803)"><g/></g></g><g fill="#778a92" fill-opacity="1"><g transform="translate(402.175506, 267.684803)"><g><path d="M 5.4375 0.109375 C 4.519531 0.109375 3.640625 -0.0351562 2.796875 -0.328125 C 1.953125 -0.628906 1.296875 -1.019531 0.828125 -1.5 L 1.34375 -2.515625 C 1.789062 -2.066406 2.382812 -1.703125 3.125 -1.421875 C 3.875 -1.148438 4.644531 -1.015625 5.4375 -1.015625 C 6.550781 -1.015625 7.382812 -1.21875 7.9375 -1.625 C 8.488281 -2.03125 8.765625 -2.554688 8.765625 -3.203125 C 8.765625 -3.703125 8.613281 -4.097656 8.3125 -4.390625 C 8.007812 -4.691406 7.640625 -4.921875 7.203125 -5.078125 C 6.773438 -5.234375 6.171875 -5.40625 5.390625 -5.59375 C 4.453125 -5.832031 3.707031 -6.0625 3.15625 -6.28125 C 2.601562 -6.5 2.128906 -6.832031 1.734375 -7.28125 C 1.335938 -7.726562 1.140625 -8.335938 1.140625 -9.109375 C 1.140625 -9.734375 1.300781 -10.300781 1.625 -10.8125 C 1.957031 -11.332031 2.46875 -11.742188 3.15625 -12.046875 C 3.84375 -12.359375 4.691406 -12.515625 5.703125 -12.515625 C 6.410156 -12.515625 7.101562 -12.414062 7.78125 -12.21875 C 8.46875 -12.019531 9.054688 -11.75 9.546875 -11.40625 L 9.109375 -10.359375 C 8.585938 -10.703125 8.03125 -10.957031 7.4375 -11.125 C 6.851562 -11.300781 6.273438 -11.390625 5.703125 -11.390625 C 4.617188 -11.390625 3.800781 -11.179688 3.25 -10.765625 C 2.695312 -10.347656 2.421875 -9.804688 2.421875 -9.140625 C 2.421875 -8.648438 2.570312 -8.253906 2.875 -7.953125 C 3.175781 -7.648438 3.554688 -7.414062 4.015625 -7.25 C 4.472656 -7.09375 5.082031 -6.921875 5.84375 -6.734375 C 6.757812 -6.503906 7.492188 -6.28125 8.046875 -6.0625 C 8.609375 -5.84375 9.082031 -5.507812 9.46875 -5.0625 C 9.863281 -4.625 10.0625 -4.03125 10.0625 -3.28125 C 10.0625 -2.65625 9.890625 -2.082031 9.546875 -1.5625 C 9.210938 -1.050781 8.695312 -0.644531 8 -0.34375 C 7.3125 -0.0390625 6.457031 0.109375 5.4375 0.109375 Z M 5.4375 0.109375 "/></g></g></g><g fill="#778a92" fill-opacity="1"><g transform="translate(413.991808, 267.684803)"><g><path d="M 5.5625 0.09375 C 4.664062 0.09375 3.859375 -0.109375 3.140625 -0.515625 C 2.421875 -0.929688 1.851562 -1.5 1.4375 -2.21875 C 1.019531 -2.9375 0.8125 -3.75 0.8125 -4.65625 C 0.8125 -5.570312 1.019531 -6.390625 1.4375 -7.109375 C 1.851562 -7.828125 2.421875 -8.382812 3.140625 -8.78125 C 3.859375 -9.1875 4.664062 -9.390625 5.5625 -9.390625 C 6.457031 -9.390625 7.265625 -9.1875 7.984375 -8.78125 C 8.710938 -8.382812 9.28125 -7.828125 9.6875 -7.109375 C 10.09375 -6.390625 10.296875 -5.570312 10.296875 -4.65625 C 10.296875 -3.75 10.09375 -2.9375 9.6875 -2.21875 C 9.28125 -1.5 8.710938 -0.929688 7.984375 -0.515625 C 7.265625 -0.109375 6.457031 0.09375 5.5625 0.09375 Z M 5.5625 -1.03125 C 6.226562 -1.03125 6.820312 -1.179688 7.34375 -1.484375 C 7.875 -1.785156 8.285156 -2.210938 8.578125 -2.765625 C 8.867188 -3.316406 9.015625 -3.945312 9.015625 -4.65625 C 9.015625 -5.363281 8.867188 -5.992188 8.578125 -6.546875 C 8.285156 -7.109375 7.875 -7.539062 7.34375 -7.84375 C 6.820312 -8.144531 6.226562 -8.296875 5.5625 -8.296875 C 4.90625 -8.296875 4.3125 -8.144531 3.78125 -7.84375 C 3.257812 -7.539062 2.847656 -7.109375 2.546875 -6.546875 C 2.242188 -5.992188 2.09375 -5.363281 2.09375 -4.65625 C 2.09375 -3.945312 2.242188 -3.316406 2.546875 -2.765625 C 2.847656 -2.210938 3.257812 -1.785156 3.78125 -1.484375 C 4.3125 -1.179688 4.90625 -1.03125 5.5625 -1.03125 Z M 5.5625 -1.03125 "/></g></g></g><g fill="#778a92" fill-opacity="1"><g transform="translate(426.020688, 267.684803)"><g><path d="M 5.609375 0.09375 C 4.691406 0.09375 3.867188 -0.101562 3.140625 -0.5 C 2.421875 -0.90625 1.851562 -1.472656 1.4375 -2.203125 C 1.019531 -2.929688 0.8125 -3.75 0.8125 -4.65625 C 0.8125 -5.570312 1.019531 -6.390625 1.4375 -7.109375 C 1.851562 -7.828125 2.421875 -8.382812 3.140625 -8.78125 C 3.867188 -9.1875 4.691406 -9.390625 5.609375 -9.390625 C 6.421875 -9.390625 7.140625 -9.234375 7.765625 -8.921875 C 8.398438 -8.609375 8.898438 -8.148438 9.265625 -7.546875 L 8.328125 -6.90625 C 8.015625 -7.363281 7.625 -7.707031 7.15625 -7.9375 C 6.6875 -8.175781 6.171875 -8.296875 5.609375 -8.296875 C 4.941406 -8.296875 4.335938 -8.144531 3.796875 -7.84375 C 3.265625 -7.539062 2.847656 -7.109375 2.546875 -6.546875 C 2.242188 -5.992188 2.09375 -5.363281 2.09375 -4.65625 C 2.09375 -3.9375 2.242188 -3.300781 2.546875 -2.75 C 2.847656 -2.207031 3.265625 -1.785156 3.796875 -1.484375 C 4.335938 -1.179688 4.941406 -1.03125 5.609375 -1.03125 C 6.171875 -1.03125 6.6875 -1.140625 7.15625 -1.359375 C 7.625 -1.585938 8.015625 -1.929688 8.328125 -2.390625 L 9.265625 -1.75 C 8.898438 -1.144531 8.394531 -0.6875 7.75 -0.375 C 7.113281 -0.0625 6.398438 0.09375 5.609375 0.09375 Z M 5.609375 0.09375 "/></g></g></g><g fill="#778a92" fill-opacity="1"><g transform="translate(436.915827, 267.684803)"><g><path d="M 1.75 -9.3125 L 3.015625 -9.3125 L 3.015625 0 L 1.75 0 Z M 2.390625 -11.359375 C 2.128906 -11.359375 1.910156 -11.445312 1.734375 -11.625 C 1.554688 -11.800781 1.46875 -12.015625 1.46875 -12.265625 C 1.46875 -12.492188 1.554688 -12.695312 1.734375 -12.875 C 1.910156 -13.050781 2.128906 -13.140625 2.390625 -13.140625 C 2.648438 -13.140625 2.867188 -13.054688 3.046875 -12.890625 C 3.222656 -12.722656 3.3125 -12.519531 3.3125 -12.28125 C 3.3125 -12.019531 3.222656 -11.800781 3.046875 -11.625 C 2.867188 -11.445312 2.648438 -11.359375 2.390625 -11.359375 Z M 2.390625 -11.359375 "/></g></g></g><g fill="#778a92" fill-opacity="1"><g transform="translate(442.602834, 267.684803)"><g><path d="M 5.015625 -9.390625 C 6.234375 -9.390625 7.164062 -9.082031 7.8125 -8.46875 C 8.457031 -7.863281 8.78125 -6.96875 8.78125 -5.78125 L 8.78125 0 L 7.578125 0 L 7.578125 -1.453125 C 7.296875 -0.960938 6.878906 -0.582031 6.328125 -0.3125 C 5.785156 -0.0390625 5.132812 0.09375 4.375 0.09375 C 3.332031 0.09375 2.503906 -0.15625 1.890625 -0.65625 C 1.273438 -1.15625 0.96875 -1.8125 0.96875 -2.625 C 0.96875 -3.414062 1.253906 -4.050781 1.828125 -4.53125 C 2.398438 -5.019531 3.316406 -5.265625 4.578125 -5.265625 L 7.53125 -5.265625 L 7.53125 -5.828125 C 7.53125 -6.628906 7.304688 -7.238281 6.859375 -7.65625 C 6.410156 -8.082031 5.753906 -8.296875 4.890625 -8.296875 C 4.296875 -8.296875 3.726562 -8.195312 3.1875 -8 C 2.644531 -7.800781 2.179688 -7.53125 1.796875 -7.1875 L 1.21875 -8.140625 C 1.695312 -8.535156 2.265625 -8.84375 2.921875 -9.0625 C 3.585938 -9.28125 4.285156 -9.390625 5.015625 -9.390625 Z M 4.578125 -0.90625 C 5.285156 -0.90625 5.890625 -1.066406 6.390625 -1.390625 C 6.898438 -1.710938 7.28125 -2.179688 7.53125 -2.796875 L 7.53125 -4.328125 L 4.609375 -4.328125 C 3.015625 -4.328125 2.21875 -3.769531 2.21875 -2.65625 C 2.21875 -2.113281 2.421875 -1.6875 2.828125 -1.375 C 3.242188 -1.0625 3.828125 -0.90625 4.578125 -0.90625 Z M 4.578125 -0.90625 "/></g></g></g><g fill="#778a92" fill-opacity="1"><g transform="translate(453.976276, 267.684803)"><g><path d="M 1.75 -13.140625 L 3.015625 -13.140625 L 3.015625 0 L 1.75 0 Z M 1.75 -13.140625 "/></g></g></g></svg>