<svg xmlns="http://www.w3.org/2000/svg" xmlns:xlink="http://www.w3.org/1999/xlink" width="500" zoomAndPan="magnify" viewBox="0 0 375 374.999991" height="500" preserveAspectRatio="xMidYMid meet" version="1.0"><rect x="-37.5" width="450" fill="#ffffff" y="-37.499999" height="449.999989" fill-opacity="1"/><path fill="#71bddb" d="M 73.679688 91.320312 C 59.960938 84.527344 42.40625 94.820312 46.738281 111.378906 C 51.5625 124.195312 64.648438 126.027344 72.398438 123.238281 C 87.34375 117.859375 88.121094 98.46875 73.679688 91.320312 Z M 73.679688 91.320312 " fill-opacity="1" fill-rule="nonzero"/><path fill="#71bddb" d="M 57.5625 75.375 C 70.390625 69.183594 69.257812 53.8125 55.636719 49.269531 C 43.003906 45.054688 25.304688 53.332031 30.648438 67.695312 C 35.722656 77.613281 48.660156 79.671875 57.5625 75.375 Z M 57.5625 75.375 " fill-opacity="1" fill-rule="nonzero"/><path fill="#71bddb" d="M 124.875 81.878906 C 124.402344 81.589844 123.75 81.226562 123.25 80.972656 C 109.71875 74.105469 93.992188 82.527344 98.832031 98.621094 C 104.117188 111.457031 116.820312 114.34375 124.152344 112.296875 C 138.042969 108.417969 138.476562 90.226562 124.875 81.878906 Z M 124.875 81.878906 " fill-opacity="1" fill-rule="nonzero"/><path fill="#71bddb" d="M 108.449219 64.429688 C 121.152344 60.003906 119.335938 45.128906 105.308594 38.757812 C 104.800781 38.527344 104.117188 38.246094 103.59375 38.050781 C 89.703125 32.894531 74.875 40.445312 80.460938 53.796875 C 86.613281 64.953125 100.664062 67.140625 108.449219 64.429688 Z M 108.449219 64.429688 " fill-opacity="1" fill-rule="nonzero"/><path fill="#71bddb" d="M 148.019531 91.75 C 152.640625 104.148438 163.667969 108.550781 170.019531 107.71875 C 181.835938 106.171875 182.125 89.875 170.507812 80.035156 C 169.289062 79.003906 167.503906 77.796875 166.164062 77.101562 C 155.074219 71.320312 144.074219 77.503906 148.019531 91.75 Z M 148.019531 91.75 " fill-opacity="1" fill-rule="nonzero"/><path fill="#71bddb" d="M 156.199219 61.460938 C 167.269531 59.4375 165.300781 45.78125 152.742188 37.5 C 151.359375 36.585938 149.359375 35.515625 147.878906 34.886719 C 136.980469 30.28125 124.46875 33.957031 130.199219 46.996094 C 136.472656 58.382812 149.332031 62.714844 156.199219 61.460938 Z M 156.199219 61.460938 " fill-opacity="1" fill-rule="nonzero"/><path fill="#71bddb" d="M 189.898438 93.136719 C 193.683594 104.957031 202.496094 111.316406 207.554688 112.058594 C 217.300781 113.480469 216.09375 98.25 207.800781 87.808594 C 205.277344 84.636719 202.824219 82.867188 201.882812 82.25 C 193.980469 77.074219 186.875 80.773438 189.898438 93.136719 Z M 189.898438 93.136719 " fill-opacity="1" fill-rule="nonzero"/><path fill="#71bddb" d="M 197.242188 68.148438 C 204.921875 67.941406 202.460938 56.367188 192.699219 46.800781 C 189.65625 43.8125 186.132812 41.371094 183.035156 40.097656 C 177.003906 37.617188 170.117188 38.957031 174.488281 49.710938 C 180.195312 61.359375 191.585938 68.300781 197.242188 68.148438 Z M 197.242188 68.148438 " fill-opacity="1" fill-rule="nonzero"/><path fill="#71bddb" d="M 227.515625 95.597656 C 224.429688 93.539062 220.582031 94.210938 222.625 104.515625 C 225.605469 116.445312 232.859375 125.976562 236.542969 127.300781 C 241.804688 129.183594 240.3125 116.429688 235.296875 106.03125 C 232.957031 101.191406 230.050781 97.292969 227.515625 95.597656 Z M 227.515625 95.597656 " fill-opacity="1" fill-rule="nonzero"/><path fill="#71bddb" d="M 228.855469 86.234375 C 232.667969 86.652344 229.894531 76.863281 223.464844 67.195312 C 219.671875 61.5 215.285156 56.949219 212.285156 55.605469 C 211.320312 55.175781 206.675781 53.5 210.207031 63.085938 C 215.257812 75.082031 225.253906 85.835938 228.855469 86.234375 Z M 228.855469 86.234375 " fill-opacity="1" fill-rule="nonzero"/><path fill="#71bddb" d="M 246.101562 118.960938 C 245.273438 118.476562 244.03125 118.769531 244.980469 126.179688 C 246.648438 136.875 251.738281 152.726562 253.328125 153.410156 C 254.960938 154.109375 254.351562 143.457031 252.222656 134.089844 C 250.257812 125.441406 247.601562 119.839844 246.101562 118.960938 Z M 246.101562 118.960938 " fill-opacity="1" fill-rule="nonzero"/><path fill="#71bddb" d="M 249.128906 115.195312 C 249.90625 114.277344 247.632812 105.996094 244.363281 97.820312 C 241.171875 89.855469 236.746094 81.375 235.234375 81.460938 C 234.789062 82.003906 235.039062 83.457031 236.226562 87.222656 C 239.25 96.160156 247.582031 115.097656 249.128906 115.195312 Z M 249.128906 115.195312 " fill-opacity="1" fill-rule="nonzero"/><path fill="#71bddb" d="M 328.253906 263.613281 C 323.429688 250.800781 310.34375 248.964844 302.59375 251.757812 C 287.648438 257.136719 286.867188 276.523438 301.308594 283.671875 C 315.027344 290.464844 332.582031 280.171875 328.253906 263.613281 Z M 328.253906 263.613281 " fill-opacity="1" fill-rule="nonzero"/><path fill="#71bddb" d="M 344.34375 307.296875 C 339.269531 297.378906 326.332031 295.320312 317.429688 299.617188 C 304.605469 305.808594 305.734375 321.179688 319.351562 325.722656 C 331.988281 329.9375 349.6875 321.660156 344.34375 307.296875 Z M 344.34375 307.296875 " fill-opacity="1" fill-rule="nonzero"/><path fill="#71bddb" d="M 276.160156 276.371094 C 270.878906 263.535156 258.171875 260.648438 250.839844 262.695312 C 236.945312 266.574219 236.515625 284.765625 250.117188 293.113281 C 250.59375 293.402344 251.246094 293.765625 251.738281 294.019531 C 265.273438 300.886719 281 292.464844 276.160156 276.371094 Z M 276.160156 276.371094 " fill-opacity="1" fill-rule="nonzero"/><path fill="#71bddb" d="M 266.542969 310.5625 C 253.835938 314.992188 255.65625 329.867188 269.683594 336.234375 C 270.191406 336.464844 270.875 336.75 271.398438 336.941406 C 285.289062 342.097656 300.117188 334.550781 294.53125 321.195312 C 288.378906 310.039062 274.324219 307.851562 266.542969 310.5625 Z M 266.542969 310.5625 " fill-opacity="1" fill-rule="nonzero"/><path fill="#71bddb" d="M 226.972656 283.242188 C 222.351562 270.847656 211.328125 266.441406 204.972656 267.273438 C 193.15625 268.820312 192.867188 285.117188 204.488281 294.957031 C 205.703125 295.988281 207.488281 297.195312 208.824219 297.890625 C 219.917969 303.671875 230.921875 297.484375 226.972656 283.242188 Z M 226.972656 283.242188 " fill-opacity="1" fill-rule="nonzero"/><path fill="#71bddb" d="M 218.792969 313.535156 C 207.71875 315.554688 209.691406 329.214844 222.25 337.492188 C 223.632812 338.402344 225.632812 339.476562 227.113281 340.105469 C 238.011719 344.707031 250.527344 341.039062 244.792969 327.996094 C 238.515625 316.609375 225.660156 312.277344 218.792969 313.535156 Z M 218.792969 313.535156 " fill-opacity="1" fill-rule="nonzero"/><path fill="#71bddb" d="M 185.089844 281.855469 C 181.308594 270.035156 172.492188 263.675781 167.4375 262.9375 C 157.691406 261.511719 158.898438 276.742188 167.195312 287.1875 C 169.71875 290.355469 172.167969 292.128906 173.109375 292.742188 C 181.011719 297.917969 188.117188 294.214844 185.089844 281.855469 Z M 185.089844 281.855469 " fill-opacity="1" fill-rule="nonzero"/><path fill="#71bddb" d="M 177.75 306.84375 C 170.070312 307.050781 172.53125 318.628906 182.292969 328.195312 C 185.335938 331.179688 188.859375 333.621094 191.960938 334.898438 C 197.988281 337.375 204.871094 336.039062 200.503906 325.28125 C 194.796875 313.632812 183.40625 306.691406 177.75 306.84375 Z M 177.75 306.84375 " fill-opacity="1" fill-rule="nonzero"/><path fill="#71bddb" d="M 138.449219 247.695312 C 133.1875 245.808594 134.679688 258.5625 139.695312 268.960938 C 142.03125 273.800781 144.941406 277.703125 147.476562 279.394531 C 150.5625 281.453125 154.410156 280.78125 152.367188 270.480469 C 149.386719 258.546875 142.132812 249.015625 138.449219 247.695312 Z M 138.449219 247.695312 " fill-opacity="1" fill-rule="nonzero"/><path fill="#71bddb" d="M 146.136719 288.761719 C 142.324219 288.34375 145.09375 298.128906 151.53125 307.796875 C 155.320312 313.492188 159.707031 318.042969 162.703125 319.386719 C 163.671875 319.820312 168.316406 321.492188 164.785156 311.910156 C 159.734375 299.910156 149.738281 289.15625 146.136719 288.761719 Z M 146.136719 288.761719 " fill-opacity="1" fill-rule="nonzero"/><path fill="#71bddb" d="M 128.890625 256.03125 C 129.71875 256.515625 130.964844 256.222656 130.011719 248.816406 C 128.34375 238.117188 123.253906 222.265625 121.664062 221.582031 C 120.035156 220.882812 120.640625 231.535156 122.769531 240.90625 C 124.734375 249.550781 127.390625 255.152344 128.890625 256.03125 Z M 128.890625 256.03125 " fill-opacity="1" fill-rule="nonzero"/><path fill="#71bddb" d="M 125.859375 259.796875 C 125.085938 260.714844 127.359375 269 130.632812 277.171875 C 133.820312 285.140625 138.246094 293.617188 139.757812 293.53125 C 140.199219 292.992188 139.949219 291.535156 138.765625 287.769531 C 135.742188 278.832031 127.410156 259.894531 125.859375 259.796875 Z M 125.859375 259.796875 " fill-opacity="1" fill-rule="nonzero"/><path fill="#00adef" d="M 91.320312 301.3125 C 84.527344 315.027344 94.820312 332.585938 111.378906 328.253906 C 124.191406 323.429688 126.027344 310.347656 123.234375 302.59375 C 117.855469 287.652344 98.46875 286.871094 91.320312 301.3125 Z M 91.320312 301.3125 " fill-opacity="1" fill-rule="nonzero"/><path fill="#00adef" d="M 49.269531 319.355469 C 45.054688 331.988281 53.332031 349.6875 67.695312 344.34375 C 77.613281 339.269531 79.667969 326.332031 75.375 317.429688 C 69.183594 304.605469 53.8125 305.734375 49.269531 319.355469 Z M 49.269531 319.355469 " fill-opacity="1" fill-rule="nonzero"/><path fill="#00adef" d="M 98.617188 276.160156 C 111.457031 270.878906 114.34375 258.171875 112.296875 250.839844 C 108.421875 236.949219 90.226562 236.515625 81.878906 250.117188 C 81.585938 250.59375 81.226562 251.246094 80.972656 251.738281 C 74.105469 265.277344 82.527344 281 98.617188 276.160156 Z M 98.617188 276.160156 " fill-opacity="1" fill-rule="nonzero"/><path fill="#00adef" d="M 64.429688 266.546875 C 60.003906 253.839844 45.128906 255.660156 38.757812 269.6875 C 38.527344 270.191406 38.246094 270.878906 38.050781 271.398438 C 32.894531 285.289062 40.441406 300.117188 53.800781 294.53125 C 64.953125 288.378906 67.136719 274.328125 64.429688 266.546875 Z M 64.429688 266.546875 " fill-opacity="1" fill-rule="nonzero"/><path fill="#00adef" d="M 91.753906 226.972656 C 104.144531 222.351562 108.550781 211.328125 107.71875 204.972656 C 106.171875 193.15625 89.875 192.871094 80.035156 204.484375 C 79.003906 205.703125 77.796875 207.488281 77.101562 208.824219 C 71.320312 219.917969 77.507812 230.917969 91.753906 226.972656 Z M 91.753906 226.972656 " fill-opacity="1" fill-rule="nonzero"/><path fill="#00adef" d="M 46.996094 244.796875 C 58.382812 238.515625 62.714844 225.660156 61.460938 218.792969 C 59.4375 207.722656 45.777344 209.695312 37.5 222.25 C 36.585938 223.632812 35.515625 225.632812 34.890625 227.113281 C 30.285156 238.011719 33.953125 250.527344 46.996094 244.796875 Z M 46.996094 244.796875 " fill-opacity="1" fill-rule="nonzero"/><path fill="#00adef" d="M 82.25 173.109375 C 77.074219 181.011719 80.777344 188.117188 93.136719 185.089844 C 104.957031 181.308594 111.316406 172.492188 112.054688 167.4375 C 113.480469 157.691406 98.25 158.898438 87.808594 167.195312 C 84.636719 169.714844 82.863281 172.171875 82.25 173.109375 Z M 82.25 173.109375 " fill-opacity="1" fill-rule="nonzero"/><path fill="#00adef" d="M 49.710938 200.503906 C 61.359375 194.796875 68.300781 183.40625 68.148438 177.75 C 67.9375 170.070312 56.367188 172.53125 46.800781 182.292969 C 43.8125 185.335938 41.367188 188.859375 40.097656 191.957031 C 37.617188 197.988281 38.957031 204.875 49.710938 200.503906 Z M 49.710938 200.503906 " fill-opacity="1" fill-rule="nonzero"/><path fill="#00adef" d="M 106.03125 139.699219 C 101.191406 142.035156 97.289062 144.941406 95.597656 147.476562 C 93.539062 150.5625 94.210938 154.410156 104.515625 152.371094 C 116.445312 149.386719 125.976562 142.132812 127.296875 138.449219 C 129.183594 133.1875 116.429688 134.679688 106.03125 139.699219 Z M 106.03125 139.699219 " fill-opacity="1" fill-rule="nonzero"/><path fill="#00adef" d="M 63.085938 164.785156 C 75.082031 159.734375 85.835938 149.738281 86.230469 146.136719 C 86.652344 142.320312 76.867188 145.097656 67.195312 151.53125 C 61.5 155.320312 56.949219 159.707031 55.605469 162.707031 C 55.175781 163.671875 53.5 168.316406 63.085938 164.785156 Z M 63.085938 164.785156 " fill-opacity="1" fill-rule="nonzero"/><path fill="#00adef" d="M 134.085938 122.769531 C 125.441406 124.734375 119.839844 127.390625 118.964844 128.894531 C 118.480469 129.71875 118.769531 130.960938 126.179688 130.011719 C 136.871094 128.34375 152.730469 123.257812 153.410156 121.667969 C 154.109375 120.03125 143.457031 120.640625 134.085938 122.769531 Z M 134.085938 122.769531 " fill-opacity="1" fill-rule="nonzero"/><path fill="#00adef" d="M 87.222656 138.765625 C 96.164062 135.746094 115.097656 127.410156 115.195312 125.863281 C 114.277344 125.085938 105.996094 127.359375 97.824219 130.632812 C 89.855469 133.820312 81.375 138.246094 81.460938 139.757812 C 82.003906 140.199219 83.457031 139.953125 87.222656 138.765625 Z M 87.222656 138.765625 " fill-opacity="1" fill-rule="nonzero"/><path fill="#00adef" d="M 283.675781 73.679688 C 290.464844 59.964844 280.171875 42.410156 263.613281 46.738281 C 250.796875 51.5625 248.96875 64.648438 251.753906 72.398438 C 257.132812 87.34375 276.523438 88.121094 283.675781 73.679688 Z M 283.675781 73.679688 " fill-opacity="1" fill-rule="nonzero"/><path fill="#00adef" d="M 325.722656 55.640625 C 329.933594 43 321.65625 25.304688 307.296875 30.648438 C 297.382812 35.722656 295.320312 48.65625 299.617188 57.5625 C 305.808594 70.390625 321.179688 69.253906 325.722656 55.640625 Z M 325.722656 55.640625 " fill-opacity="1" fill-rule="nonzero"/><path fill="#00adef" d="M 276.371094 98.835938 C 263.535156 104.117188 260.648438 116.820312 262.695312 124.152344 C 266.574219 138.046875 284.761719 138.476562 293.109375 124.875 C 293.402344 124.398438 293.761719 123.75 294.019531 123.253906 C 300.886719 109.71875 292.464844 93.992188 276.371094 98.835938 Z M 276.371094 98.835938 " fill-opacity="1" fill-rule="nonzero"/><path fill="#00adef" d="M 310.558594 108.449219 C 314.988281 121.152344 329.863281 119.335938 336.234375 105.308594 C 336.464844 104.800781 336.746094 104.117188 336.9375 103.59375 C 342.097656 89.703125 334.546875 74.875 321.191406 80.460938 C 310.039062 86.613281 307.851562 100.667969 310.558594 108.449219 Z M 310.558594 108.449219 " fill-opacity="1" fill-rule="nonzero"/><path fill="#00adef" d="M 283.238281 148.019531 C 270.84375 152.640625 266.441406 163.664062 267.273438 170.019531 C 268.820312 181.835938 285.117188 182.125 294.957031 170.507812 C 295.988281 169.285156 297.195312 167.503906 297.890625 166.164062 C 303.671875 155.074219 297.484375 144.070312 283.238281 148.019531 Z M 283.238281 148.019531 " fill-opacity="1" fill-rule="nonzero"/><path fill="#00adef" d="M 327.992188 130.199219 C 316.605469 136.476562 312.277344 149.332031 313.535156 156.199219 C 315.550781 167.273438 329.214844 165.300781 337.488281 152.742188 C 338.402344 151.359375 339.476562 149.363281 340.105469 147.878906 C 344.707031 136.980469 341.035156 124.464844 327.992188 130.199219 Z M 327.992188 130.199219 " fill-opacity="1" fill-rule="nonzero"/><path fill="#00adef" d="M 281.851562 189.902344 C 270.03125 193.683594 263.675781 202.5 262.9375 207.554688 C 261.511719 217.300781 276.742188 216.09375 287.1875 207.796875 C 290.355469 205.277344 292.128906 202.824219 292.738281 201.882812 C 297.917969 193.984375 294.21875 186.875 281.851562 189.902344 Z M 281.851562 189.902344 " fill-opacity="1" fill-rule="nonzero"/><path fill="#00adef" d="M 325.28125 174.488281 C 313.632812 180.195312 306.6875 191.585938 306.84375 197.242188 C 307.050781 204.921875 318.625 202.460938 328.195312 192.703125 C 331.179688 189.65625 333.621094 186.132812 334.898438 183.035156 C 337.375 177.003906 336.035156 170.121094 325.28125 174.488281 Z M 325.28125 174.488281 " fill-opacity="1" fill-rule="nonzero"/><path fill="#00adef" d="M 268.960938 235.296875 C 273.800781 232.960938 277.699219 230.050781 279.390625 227.515625 C 281.453125 224.429688 280.78125 220.582031 270.476562 222.625 C 258.546875 225.605469 249.011719 232.859375 247.695312 236.542969 C 245.808594 241.804688 258.5625 240.3125 268.960938 235.296875 Z M 268.960938 235.296875 " fill-opacity="1" fill-rule="nonzero"/><path fill="#00adef" d="M 311.90625 210.207031 C 299.910156 215.257812 289.15625 225.253906 288.757812 228.855469 C 288.34375 232.667969 298.128906 229.894531 307.796875 223.460938 C 313.492188 219.671875 318.042969 215.285156 319.386719 212.285156 C 319.816406 211.320312 321.492188 206.675781 311.90625 210.207031 Z M 311.90625 210.207031 " fill-opacity="1" fill-rule="nonzero"/><path fill="#00adef" d="M 248.816406 244.980469 C 238.117188 246.648438 222.265625 251.738281 221.585938 253.328125 C 220.882812 254.957031 231.535156 254.347656 240.90625 252.222656 C 249.550781 250.257812 255.152344 247.601562 256.03125 246.101562 C 256.515625 245.277344 256.222656 244.027344 248.816406 244.980469 Z M 248.816406 244.980469 " fill-opacity="1" fill-rule="nonzero"/><path fill="#00adef" d="M 287.765625 236.226562 C 278.832031 239.25 259.894531 247.582031 259.796875 249.132812 C 260.714844 249.90625 269 247.632812 277.167969 244.363281 C 285.136719 241.171875 293.617188 236.746094 293.53125 235.238281 C 292.988281 234.789062 291.53125 235.042969 287.765625 236.226562 Z M 287.765625 236.226562 " fill-opacity="1" fill-rule="nonzero"/></svg>