<?xml version="1.0" encoding="UTF-8" standalone="no"?>
<!-- Created with Inkscape (http://www.inkscape.org/) -->

<svg
   version="1.1"
   id="svg2"
   xml:space="preserve"
   width="796"
   height="259.97198"
   viewBox="0 0 796 259.97199"
   sodipodi:docname="1576d1e99c601c15089f493dcc75f62b.eps"
   xmlns:inkscape="http://www.inkscape.org/namespaces/inkscape"
   xmlns:sodipodi="http://sodipodi.sourceforge.net/DTD/sodipodi-0.dtd"
   xmlns="http://www.w3.org/2000/svg"
   xmlns:svg="http://www.w3.org/2000/svg"><defs
     id="defs6"><clipPath
       clipPathUnits="userSpaceOnUse"
       id="clipPath18"><path
         d="M 0,1950 H 5970 V 0 H 0 Z"
         id="path16" /></clipPath></defs><sodipodi:namedview
     id="namedview4"
     pagecolor="#ffffff"
     bordercolor="#666666"
     borderopacity="1.0"
     inkscape:pageshadow="2"
     inkscape:pageopacity="0.0"
     inkscape:pagecheckerboard="0" /><g
     id="g8"
     inkscape:groupmode="layer"
     inkscape:label="ink_ext_XXXXXX"
     transform="matrix(1.3333333,0,0,-1.3333333,0,259.97199)"><g
       id="g10"
       transform="scale(0.1)"><g
         id="g12"><g
           id="g14"
           clip-path="url(#clipPath18)"><path
             d="m 4894.24,1654.35 161.27,279.31 161.25,-279.31 z m 378.4,0 161.25,279.31 161.27,-279.31 z m -567.61,-327.71 161.26,279.33 161.28,-279.33 z m 756.79,0 161.26,279.33 161.26,-279.33 z m -378.39,0 161.26,279.33 161.26,-279.33 z m 189.21,-327.679 161.25,279.319 161.27,-279.319 z m 700.89,623.129 -161.24,-279.31 -161.28,279.31 z m -567.58,327.7 -161.26,-279.31 -161.26,279.31 z m 189.21,-327.7 -161.27,-279.31 -161.28,279.31 c 0,0 322.55,0.02 322.55,0 z m -378.4,0 -161.25,-279.31 -161.3,279.31 c 0,0 322.55,0.02 322.55,0 z m 189.19,-327.7 -161.26,-279.32 -161.26,279.32 c 0,0 322.52,0.03 322.52,0 z m 378.42,0 -161.29,-279.32 -161.26,279.32 c 0,0 322.52,0.03 322.55,0"
             style="fill:#ffffff;fill-opacity:1;fill-rule:evenodd;stroke:none"
             id="path20" /><path
             d="M 966.254,379.582 V 1326.4 H 1214.5 v -112.41 c 35.66,45.81 77.27,80.3 125.42,103.19 48.17,22.86 101.96,34.5 161.11,34.5 104.61,0 182.85,-27.09 234.85,-81.51 52,-54.37 77.87,-135.83 77.87,-245.21 V 379.582 H 1560.19 V 951.82 c 0,68.07 -11.61,116.56 -34.48,145.36 -22.9,29.14 -60.04,43.71 -111.77,43.71 -59.77,0 -107.03,-17.84 -141.79,-53.5 -34.77,-35.69 -52.34,-84.42 -52.34,-145.96 V 379.582 Z M 2524.82,667.031 h 252.67 c -25.56,-99.859 -77.07,-177.929 -154.58,-234.519 -77.64,-56.641 -172.12,-85.032 -283.58,-85.032 -137.03,0 -245.73,45.969 -325.79,137.95 -80.14,92 -120.1,216.711 -120.1,374.261 0,154.849 39.46,277.119 118.32,366.509 78.97,89.54 186.97,134.08 324.01,134.08 145.35,0 257.53,-43.93 336.51,-132 78.85,-87.92 118.31,-213.13 118.31,-375.749 0,-18.14 0,-31.519 -0.31,-40.699 -0.26,-8.922 -1.2,-17.531 -2.39,-25.602 h -632.24 c 3.54,-74.289 21.68,-130.179 54.35,-167.921 32.72,-37.75 79.99,-56.481 141.52,-56.481 43.69,0 79.42,8.602 107.03,25.57 27.93,17.192 49.93,43.704 66.27,79.633 z m -369.17,285.688 h 372.74 c -2.38,63.921 -19.17,112.531 -50.85,145.961 -31.62,33.43 -77.29,49.96 -136.4,49.96 -55.04,0 -98.5,-16.93 -130.24,-50.55 -31.57,-33.54 -49.93,-82.03 -55.25,-145.371 z m 954.52,-285.688 c 5.88,-37.609 22.57,-66.511 50.25,-86.472 32.43,-23.379 81.14,-35.399 146.25,-35.399 49.37,0 87.62,8.442 114.75,24.988 26.95,16.473 40.42,39.84 40.42,70.184 0,42.75 -50.53,75.309 -151.63,96.598 -41.3,8.718 -73.99,16.379 -98.35,22.59 -123.34,31.48 -208.65,68.441 -256.57,111.46 -47.77,42.891 -71.93,101.075 -71.93,174.2 0,96.89 35.18,173.51 104.93,230.08 69.94,56.66 164.71,85.02 284.19,85.02 126.62,0 226.33,-28.15 298.47,-84.42 72.29,-56.39 110.54,-135.59 115.34,-237.83 h -246.47 c -1.78,40.13 -16.94,71.09 -45.76,93.33 -28.52,22 -68.68,33 -119.82,33 -48.15,0 -83.8,-7.12 -107.28,-21.69 -23.47,-14.58 -35.39,-36.27 -35.39,-65.38 0,-37.77 62.95,-71.4 189.06,-100.204 28.75,-6.555 51.72,-11.738 68.65,-15.723 126.03,-29.593 212.18,-65.203 258.36,-107.011 45.97,-41.704 69.24,-100.473 69.24,-176.571 0,-107.633 -37.7,-189.449 -113.57,-245.851 -75.7,-56.258 -186.06,-84.45 -330.53,-84.45 -130.8,0 -233.07,29.469 -306.75,88.032 -71.12,56.476 -108,133.769 -110.53,231.519 z m 1348.2,180.449 c 0,95.149 -18.11,167.97 -54.09,218.22 -35.95,50.2 -88.02,75.19 -156.65,75.19 -67.17,0 -118.6,-24.99 -153.68,-74.91 -35.05,-49.92 -52.61,-122.769 -52.61,-218.5 0,-89.449 18.42,-158.718 55.28,-207.48 36.86,-48.738 88.89,-73.102 156.37,-73.102 63.91,0 113.82,24.93 150.4,74.911 36.55,49.921 54.98,118.57 54.98,205.671 z M 3794.9,0 V 1326.4 H 4036 v -128.13 c 36.56,55.85 77.57,96.3 122.47,121.88 44.88,25.56 98.09,38.31 159.01,38.31 116.52,0 211.35,-46.05 283.89,-137.92 72.53,-92.14 108.81,-213.12 108.81,-362.618 0,-151.621 -36.28,-274.692 -108.81,-368.891 -72.54,-94.269 -166.16,-141.551 -280.62,-141.551 -60.34,0 -114.14,12.84 -161.38,38.36 -47.29,25.558 -86.81,62.769 -118.03,111.5 L 4041.34,0 Z M 847.488,1326.4 V 379.582 H 599.254 V 491.988 C 563.297,446.23 521.086,411.68 473.215,388.84 425.395,365.91 371.563,354.352 311.82,354.352 c -104.031,0 -182.031,27.296 -233.9255,81.75 C 25.7852,490.711 0,572.531 0,681.02 V 1326.4 H 253.559 V 754.172 c 0,-67.473 11.328,-115.332 33.898,-144.184 22.57,-28.847 60.02,-43.09 112.348,-43.09 59.156,0 106.418,17.852 141.488,53.473 35.062,35.68 52.637,84.449 52.637,145.981 V 1326.4 h 253.558"
             style="fill:#ffffff;fill-opacity:1;fill-rule:evenodd;stroke:none"
             id="path22" /></g></g></g></g></svg>
