<svg width="512" height="356" viewBox="0 0 512 356" fill="none" xmlns="http://www.w3.org/2000/svg">
<path d="M512 10.603V345.396C512 351.088 507.38 355.708 501.688 355.708H10.312C4.62 355.708 0 351.089 0 345.397V10.603C0 4.911 4.62 0.291 10.312 0.291H501.688C507.38 0.292 512 4.911 512 10.603Z" fill="#FFF5F5"/>
<path d="M512 10.603V345.396C512 351.088 507.38 355.708 501.688 355.708H478.28C483.972 355.708 488.592 351.088 488.592 345.396V10.603C488.592 4.911 483.972 0.291 478.28 0.291H501.688C507.38 0.292 512 4.911 512 10.603Z" fill="#EFE2DD"/>
<path d="M58.9761 82.633C42.4961 82.633 29.0891 69.226 29.0891 52.746C29.0891 48.478 32.5481 45.02 36.8151 45.02C41.0821 45.02 44.5411 48.479 44.5411 52.746C44.5411 60.706 51.0161 67.181 58.9761 67.181C66.9361 67.181 73.4111 60.706 73.4111 52.746C73.4111 44.786 66.9361 38.31 58.9761 38.31C54.7081 38.31 51.2501 34.851 51.2501 30.584C51.2501 26.316 54.7091 22.858 58.9761 22.858H141.344C145.612 22.858 149.07 26.317 149.07 30.584C149.07 34.852 145.611 38.31 141.344 38.31H85.1411C87.5121 42.592 88.8631 47.514 88.8631 52.746C88.8631 69.225 75.4561 82.633 58.9761 82.633Z" fill="#FFC26D"/>
<path d="M141.344 333.143H58.9761C54.7081 333.143 51.2501 329.684 51.2501 325.417C51.2501 321.15 54.7091 317.691 58.9761 317.691C66.9361 317.691 73.4111 311.215 73.4111 303.255C73.4111 295.295 66.9361 288.82 58.9761 288.82C51.0161 288.82 44.5411 295.295 44.5411 303.255C44.5411 307.523 41.0821 310.981 36.8151 310.981C32.5481 310.981 29.0891 307.522 29.0891 303.255C29.0891 286.775 42.4961 273.368 58.9761 273.368C75.4561 273.368 88.8631 286.775 88.8631 303.255C88.8631 308.486 87.5121 313.409 85.1411 317.691H141.344C145.612 317.691 149.07 321.15 149.07 325.417C149.07 329.684 145.612 333.143 141.344 333.143Z" fill="#FFC26D"/>
<path d="M453.024 82.633C436.544 82.633 423.137 69.226 423.137 52.746C423.137 47.515 424.488 42.592 426.859 38.31H370.656C366.388 38.31 362.93 34.851 362.93 30.584C362.93 26.316 366.389 22.858 370.656 22.858H453.024C457.292 22.858 460.75 26.317 460.75 30.584C460.75 34.852 457.291 38.31 453.024 38.31C445.064 38.31 438.589 44.786 438.589 52.746C438.589 60.706 445.064 67.181 453.024 67.181C460.984 67.181 467.459 60.706 467.459 52.746C467.459 48.478 470.918 45.02 475.185 45.02C479.452 45.02 482.911 48.479 482.911 52.746C482.911 69.225 469.504 82.633 453.024 82.633Z" fill="#FFC26D"/>
<path d="M453.024 333.143H370.656C366.388 333.143 362.93 329.684 362.93 325.417C362.93 321.15 366.389 317.691 370.656 317.691H426.859C424.488 313.409 423.137 308.487 423.137 303.255C423.137 286.775 436.544 273.368 453.024 273.368C469.504 273.368 482.911 286.775 482.911 303.255C482.911 307.523 479.452 310.981 475.185 310.981C470.918 310.981 467.459 307.522 467.459 303.255C467.459 295.295 460.984 288.82 453.024 288.82C445.064 288.82 438.589 295.295 438.589 303.255C438.589 311.215 445.064 317.691 453.024 317.691C457.292 317.691 460.75 321.15 460.75 325.417C460.75 329.684 457.292 333.143 453.024 333.143Z" fill="#FFC26D"/>
<path d="M196.035 166.079V260.608C196.035 268.932 186.763 273.908 179.82 269.313L154.653 252.624L129.486 269.313C122.543 273.908 113.271 268.932 113.271 260.608V166.079C113.271 160.32 117.948 155.643 123.707 155.643H185.59C191.358 155.643 196.035 160.32 196.035 166.079Z" fill="#F37D7E"/>
<path d="M196.035 166.079V199.457C184.373 207.832 170.074 212.767 154.653 212.767C139.232 212.767 124.932 207.833 113.271 199.457V166.079C113.271 160.32 117.948 155.643 123.707 155.643H185.59C191.358 155.643 196.035 160.32 196.035 166.079Z" fill="#ED6264"/>
<path d="M154.652 198.348C185.97 198.348 211.359 172.959 211.359 141.641C211.359 110.323 185.97 84.934 154.652 84.934C123.334 84.934 97.9451 110.323 97.9451 141.641C97.9451 172.959 123.334 198.348 154.652 198.348Z" fill="#FFC26D"/>
<path d="M211.359 141.645C211.359 172.96 185.967 198.352 154.652 198.352C151.02 198.352 147.461 198.012 144.014 197.351C170.252 192.378 190.093 169.328 190.093 141.645C190.093 113.952 170.252 90.912 144.014 85.939C147.46 85.279 151.02 84.938 154.652 84.938C185.966 84.938 211.359 110.32 211.359 141.645Z" fill="#FFA730"/>
<path d="M167.657 153.421H164.619V122.509C164.619 119.831 163.233 117.344 160.955 115.937C158.675 114.53 155.832 114.402 153.437 115.599L140.904 121.866C137.088 123.774 135.541 128.415 137.449 132.232C139.356 136.049 143.997 137.594 147.815 135.687L149.166 135.011V153.422H146.128C141.86 153.422 138.402 156.881 138.402 161.148C138.402 165.415 141.861 168.874 146.128 168.874H167.657C171.925 168.874 175.383 165.415 175.383 161.148C175.383 156.881 171.925 153.421 167.657 153.421Z" fill="#FFA730"/>
<path d="M403.754 155.641H267.389C261.699 155.641 257.087 151.029 257.087 145.339V125.214C257.087 119.524 261.699 114.912 267.389 114.912H403.754C409.444 114.912 414.056 119.524 414.056 125.214V145.339C414.056 151.028 409.443 155.641 403.754 155.641Z" fill="#65BAFC"/>
<path d="M414.061 125.214V145.344C414.061 151.031 409.446 155.646 403.759 155.646H385.844C391.531 155.646 396.146 151.031 396.146 145.344V125.214C396.146 119.527 391.531 114.912 385.844 114.912H403.759C409.445 114.912 414.061 119.527 414.061 125.214Z" fill="#2EA8FC"/>
<path d="M414.055 194.998H257.088C252.82 194.998 249.362 191.539 249.362 187.272C249.362 183.005 252.821 179.546 257.088 179.546H414.056C418.324 179.546 421.782 183.005 421.782 187.272C421.782 191.539 418.323 194.998 414.055 194.998Z" fill="#E0D3CE"/>
<path d="M414.055 227.395H257.088C252.82 227.395 249.362 223.936 249.362 219.669C249.362 215.402 252.821 211.943 257.088 211.943H414.056C418.324 211.943 421.782 215.402 421.782 219.669C421.782 223.936 418.323 227.395 414.055 227.395Z" fill="#E0D3CE"/>
<path d="M323.237 259.793H257.087C252.819 259.793 249.361 256.334 249.361 252.067C249.361 247.8 252.82 244.341 257.087 244.341H323.237C327.505 244.341 330.963 247.8 330.963 252.067C330.963 256.334 327.505 259.793 323.237 259.793Z" fill="#E0D3CE"/>
</svg>
