<svg xmlns="http://www.w3.org/2000/svg" width="375" viewBox="0 0 375 375" height="375" version="1.0"><defs><clipPath id="a"><path d="M 112.5 112.5 L 262.5 112.5 L 262.5 262.5 L 112.5 262.5 Z M 112.5 112.5"/></clipPath><clipPath id="b"><path d="M 214.875 112.5 L 268.125 112.5 L 268.125 147.75 L 214.875 147.75 Z M 214.875 112.5"/></clipPath><clipPath id="c"><path d="M 101.101562 210.800781 L 156.601562 210.800781 L 156.601562 249.050781 L 101.101562 249.050781 Z M 101.101562 210.800781"/></clipPath></defs><path fill="#FFF" d="M 187.5 113.253906 C 188.714844 113.253906 189.929688 113.285156 191.144531 113.34375 C 192.355469 113.402344 193.570312 113.492188 194.777344 113.613281 C 195.988281 113.730469 197.191406 113.878906 198.394531 114.058594 C 199.597656 114.234375 200.792969 114.445312 201.984375 114.679688 C 203.175781 114.917969 204.363281 115.183594 205.542969 115.480469 C 206.71875 115.773438 207.890625 116.097656 209.054688 116.453125 C 210.21875 116.804688 211.371094 117.183594 212.515625 117.59375 C 213.660156 118.003906 214.792969 118.441406 215.914062 118.90625 C 217.039062 119.371094 218.148438 119.863281 219.246094 120.382812 C 220.34375 120.902344 221.429688 121.449219 222.5 122.023438 C 223.574219 122.59375 224.628906 123.191406 225.671875 123.816406 C 226.714844 124.441406 227.742188 125.09375 228.753906 125.769531 C 229.761719 126.441406 230.753906 127.140625 231.730469 127.867188 C 232.707031 128.589844 233.664062 129.335938 234.605469 130.109375 C 235.542969 130.878906 236.464844 131.671875 237.363281 132.488281 C 238.265625 133.304688 239.144531 134.144531 240.003906 135.003906 C 240.863281 135.859375 241.699219 136.742188 242.515625 137.640625 C 243.332031 138.542969 244.125 139.460938 244.898438 140.402344 C 245.667969 141.339844 246.414062 142.296875 247.140625 143.273438 C 247.863281 144.25 248.5625 145.242188 249.238281 146.253906 C 249.914062 147.265625 250.5625 148.289062 251.1875 149.332031 C 251.8125 150.375 252.410156 151.433594 252.984375 152.503906 C 253.558594 153.574219 254.101562 154.660156 254.621094 155.757812 C 255.140625 156.859375 255.632812 157.96875 256.101562 159.089844 C 256.566406 160.214844 257.003906 161.347656 257.410156 162.492188 C 257.820312 163.636719 258.203125 164.789062 258.554688 165.953125 C 258.90625 167.113281 259.230469 168.285156 259.527344 169.464844 C 259.820312 170.644531 260.089844 171.828125 260.324219 173.019531 C 260.5625 174.210938 260.769531 175.410156 260.949219 176.609375 C 261.125 177.8125 261.273438 179.019531 261.394531 180.226562 C 261.511719 181.4375 261.601562 182.648438 261.664062 183.863281 C 261.722656 185.078125 261.75 186.289062 261.75 187.507812 C 261.75 188.722656 261.722656 189.9375 261.664062 191.148438 C 261.601562 192.363281 261.511719 193.574219 261.394531 194.785156 C 261.273438 195.992188 261.125 197.199219 260.949219 198.402344 C 260.769531 199.601562 260.5625 200.800781 260.324219 201.992188 C 260.089844 203.183594 259.820312 204.371094 259.527344 205.546875 C 259.230469 206.726562 258.90625 207.898438 258.554688 209.058594 C 258.203125 210.222656 257.820312 211.375 257.410156 212.519531 C 257.003906 213.664062 256.566406 214.796875 256.101562 215.921875 C 255.632812 217.042969 255.140625 218.15625 254.621094 219.253906 C 254.101562 220.351562 253.558594 221.4375 252.984375 222.507812 C 252.410156 223.582031 251.8125 224.636719 251.1875 225.679688 C 250.5625 226.722656 249.914062 227.75 249.238281 228.757812 C 248.5625 229.769531 247.863281 230.761719 247.140625 231.738281 C 246.414062 232.714844 245.667969 233.671875 244.898438 234.609375 C 244.125 235.550781 243.332031 236.46875 242.515625 237.371094 C 241.699219 238.269531 240.863281 239.152344 240.003906 240.011719 C 239.144531 240.871094 238.265625 241.707031 237.363281 242.523438 C 236.464844 243.339844 235.542969 244.132812 234.605469 244.902344 C 233.664062 245.675781 232.707031 246.421875 231.730469 247.144531 C 230.753906 247.871094 229.761719 248.570312 228.753906 249.246094 C 227.742188 249.917969 226.714844 250.570312 225.671875 251.195312 C 224.628906 251.820312 223.574219 252.417969 222.5 252.992188 C 221.429688 253.5625 220.34375 254.109375 219.246094 254.628906 C 218.148438 255.148438 217.039062 255.640625 215.914062 256.105469 C 214.792969 256.570312 213.660156 257.007812 212.515625 257.417969 C 211.371094 257.828125 210.21875 258.207031 209.054688 258.5625 C 207.890625 258.914062 206.71875 259.238281 205.542969 259.53125 C 204.363281 259.828125 203.175781 260.09375 201.984375 260.332031 C 200.792969 260.570312 199.597656 260.777344 198.394531 260.953125 C 197.191406 261.132812 195.988281 261.28125 194.777344 261.402344 C 193.570312 261.519531 192.355469 261.609375 191.144531 261.667969 C 189.929688 261.726562 188.714844 261.757812 187.5 261.757812 C 186.285156 261.757812 185.070312 261.726562 183.855469 261.667969 C 182.644531 261.609375 181.429688 261.519531 180.222656 261.402344 C 179.011719 261.28125 177.808594 261.132812 176.605469 260.953125 C 175.402344 260.777344 174.207031 260.570312 173.015625 260.332031 C 171.820312 260.09375 170.636719 259.828125 169.457031 259.53125 C 168.277344 259.238281 167.109375 258.914062 165.945312 258.5625 C 164.78125 258.207031 163.628906 257.828125 162.484375 257.417969 C 161.339844 257.007812 160.207031 256.570312 159.085938 256.105469 C 157.960938 255.640625 156.851562 255.148438 155.753906 254.628906 C 154.65625 254.109375 153.570312 253.5625 152.496094 252.992188 C 151.425781 252.417969 150.367188 251.820312 149.328125 251.195312 C 148.285156 250.570312 147.257812 249.917969 146.246094 249.246094 C 145.238281 248.570312 144.242188 247.871094 143.269531 247.144531 C 142.292969 246.421875 141.335938 245.675781 140.394531 244.902344 C 139.457031 244.132812 138.535156 243.339844 137.636719 242.523438 C 136.734375 241.707031 135.855469 240.871094 134.996094 240.011719 C 134.136719 239.152344 133.296875 238.269531 132.484375 237.371094 C 131.667969 236.46875 130.871094 235.550781 130.101562 234.609375 C 129.332031 233.671875 128.582031 232.714844 127.859375 231.738281 C 127.136719 230.761719 126.4375 229.769531 125.761719 228.757812 C 125.085938 227.75 124.4375 226.722656 123.8125 225.679688 C 123.1875 224.636719 122.589844 223.582031 122.015625 222.507812 C 121.441406 221.4375 120.894531 220.351562 120.375 219.253906 C 119.855469 218.15625 119.363281 217.042969 118.898438 215.921875 C 118.433594 214.796875 117.996094 213.664062 117.589844 212.519531 C 117.179688 211.375 116.796875 210.222656 116.445312 209.058594 C 116.09375 207.898438 115.769531 206.726562 115.472656 205.546875 C 115.175781 204.371094 114.910156 203.183594 114.675781 201.992188 C 114.4375 200.800781 114.230469 199.601562 114.050781 198.402344 C 113.871094 197.199219 113.722656 195.992188 113.605469 194.785156 C 113.484375 193.574219 113.398438 192.363281 113.335938 191.148438 C 113.277344 189.9375 113.246094 188.722656 113.246094 187.507812 C 113.246094 186.289062 113.277344 185.078125 113.335938 183.863281 C 113.398438 182.648438 113.484375 181.4375 113.605469 180.226562 C 113.722656 179.019531 113.871094 177.8125 114.050781 176.609375 C 114.230469 175.410156 114.4375 174.210938 114.675781 173.019531 C 114.910156 171.828125 115.175781 170.644531 115.472656 169.464844 C 115.769531 168.285156 116.09375 167.113281 116.445312 165.953125 C 116.796875 164.789062 117.179688 163.636719 117.589844 162.492188 C 117.996094 161.347656 118.433594 160.214844 118.898438 159.089844 C 119.363281 157.96875 119.855469 156.859375 120.375 155.757812 C 120.894531 154.660156 121.441406 153.574219 122.015625 152.503906 C 122.589844 151.433594 123.1875 150.375 123.8125 149.332031 C 124.4375 148.289062 125.085938 147.265625 125.761719 146.253906 C 126.4375 145.242188 127.136719 144.25 127.859375 143.273438 C 128.582031 142.296875 129.332031 141.339844 130.101562 140.402344 C 130.871094 139.460938 131.667969 138.542969 132.484375 137.640625 C 133.296875 136.742188 134.136719 135.859375 134.996094 135.003906 C 135.855469 134.144531 136.734375 133.304688 137.636719 132.488281 C 138.535156 131.671875 139.457031 130.878906 140.394531 130.109375 C 141.335938 129.335938 142.292969 128.589844 143.269531 127.867188 C 144.242188 127.140625 145.238281 126.441406 146.246094 125.769531 C 147.257812 125.09375 148.285156 124.441406 149.328125 123.816406 C 150.367188 123.191406 151.425781 122.59375 152.496094 122.023438 C 153.570312 121.449219 154.65625 120.902344 155.753906 120.382812 C 156.851562 119.863281 157.960938 119.371094 159.085938 118.90625 C 160.207031 118.441406 161.339844 118.003906 162.484375 117.59375 C 163.628906 117.183594 164.78125 116.804688 165.945312 116.453125 C 167.109375 116.097656 168.277344 115.773438 169.457031 115.480469 C 170.636719 115.183594 171.820312 114.917969 173.015625 114.679688 C 174.207031 114.445312 175.402344 114.234375 176.605469 114.058594 C 177.808594 113.878906 179.011719 113.730469 180.222656 113.613281 C 181.429688 113.492188 182.644531 113.402344 183.855469 113.34375 C 185.070312 113.285156 186.285156 113.253906 187.5 113.253906 Z M 187.5 113.253906"/><g clip-path="url(#a)"><path stroke-linecap="round" transform="matrix(0 -.3 .3 0 111.124 -51.538)" fill="none" d="M -549.289514 254.580854 C -549.289514 258.630217 -549.393678 262.67958 -549.588985 266.728943 C -549.784292 270.765285 -550.083762 274.814648 -550.487396 278.83797 C -550.87801 282.874312 -551.372788 286.884613 -551.971729 290.894915 C -552.557649 294.905216 -553.260754 298.889477 -554.041982 302.860717 C -554.83623 306.831957 -555.721621 310.790176 -556.711176 314.722355 C -557.68771 318.641513 -558.768408 322.547651 -559.95327 326.427748 C -561.125111 330.307845 -562.388096 334.14888 -563.755244 337.963875 C -565.122392 341.778869 -566.580684 345.554803 -568.130119 349.291674 C -569.679553 353.041567 -571.320131 356.739377 -573.051852 360.398126 C -574.783573 364.056875 -576.606437 367.676563 -578.520445 371.244169 C -580.421432 374.824795 -582.413562 378.340319 -584.496836 381.816781 C -586.580109 385.293244 -588.754526 388.717625 -591.007065 392.089924 C -593.246584 395.449202 -595.577247 398.756399 -597.999052 402.011514 C -600.407837 405.266628 -602.894745 408.456641 -605.472796 411.594572 C -608.037826 414.719482 -610.680979 417.79231 -613.402255 420.787016 C -616.123531 423.794742 -618.92293 426.724345 -621.787431 429.588846 C -624.638911 432.453347 -627.581535 435.239726 -630.576241 437.961001 C -633.583967 440.682277 -636.643775 443.325431 -639.781706 445.903482 C -642.906616 448.468512 -646.096628 450.95542 -649.351743 453.377225 C -652.606858 455.78601 -655.914054 458.116672 -659.286353 460.369212 C -662.658652 462.621751 -666.070013 464.783147 -669.546475 466.866421 C -673.022938 468.949694 -676.551482 470.941825 -680.119088 472.855832 C -683.686694 474.76984 -687.306382 476.579683 -690.965131 478.311405 C -694.6369 480.043126 -698.334711 481.683703 -702.071582 483.246159 C -705.821475 484.795593 -709.597408 486.253885 -713.412402 487.608012 C -717.227397 488.975161 -721.068432 490.251166 -724.948529 491.423007 C -728.815606 492.594848 -732.721743 493.675546 -736.653922 494.665101 C -740.586101 495.641636 -744.5313 496.540047 -748.50254 497.321275 C -752.47378 498.115523 -756.471061 498.805607 -760.468342 499.404548 C -764.478643 499.990469 -768.501965 500.485247 -772.525287 500.888881 C -776.561629 501.279495 -780.597972 501.578965 -784.647335 501.787292 C -788.696697 501.982599 -792.73304 502.073743 -796.795423 502.073743 C -800.844786 502.073743 -804.894149 501.982599 -808.930491 501.787292 C -812.979854 501.578965 -817.016196 501.279495 -821.052538 500.888881 C -825.07586 500.485247 -829.099182 499.990469 -833.109484 499.404548 C -837.106765 498.805607 -841.104046 498.115523 -845.075286 497.321275 C -849.046526 496.540047 -853.004745 495.641636 -856.923904 494.665101 C -860.856082 493.675546 -864.76222 492.594848 -868.629296 491.423007 C -872.509393 490.251166 -876.350429 488.975161 -880.165423 487.608012 C -883.980418 486.253885 -887.756351 484.795593 -891.506243 483.246159 C -895.243115 481.683703 -898.953946 480.043126 -902.612695 478.311405 C -906.271444 476.579683 -909.891132 474.76984 -913.458737 472.855832 C -917.039364 470.941825 -920.554888 468.949694 -924.03135 466.866421 C -927.507813 464.783147 -930.932194 462.621751 -934.291472 460.369212 C -937.663771 458.116672 -940.970968 455.78601 -944.226083 453.377225 C -947.481197 450.95542 -950.67121 448.468512 -953.79612 445.903482 C -956.934051 443.325431 -959.993859 440.682277 -963.001585 437.961001 C -965.99629 435.239726 -968.938914 432.453347 -971.803415 429.588846 C -974.667916 426.724345 -977.454294 423.794742 -980.17557 420.787016 C -982.896846 417.79231 -985.54 414.719482 -988.10503 411.594572 C -990.683081 408.456641 -993.169989 405.266628 -995.578774 402.011514 C -998.000579 398.756399 -1000.331241 395.449202 -1002.583781 392.089924 C -1004.8233 388.717625 -1006.997716 385.293244 -1009.08099 381.816781 C -1011.164263 378.340319 -1013.156394 374.824795 -1015.070401 371.244169 C -1016.971388 367.676563 -1018.794252 364.056875 -1020.525973 360.398126 C -1022.257694 356.739377 -1023.898272 353.041567 -1025.447707 349.291674 C -1026.997142 345.554803 -1028.455433 341.778869 -1029.822581 337.963875 C -1031.18973 334.14888 -1032.452714 330.307845 -1033.637576 326.427748 C -1034.809417 322.547651 -1035.890115 318.641513 -1036.86665 314.722355 C -1037.856205 310.790176 -1038.741596 306.831957 -1039.535844 302.860717 C -1040.330092 298.889477 -1041.020176 294.905216 -1041.606097 290.894915 C -1042.205038 286.884613 -1042.699815 282.874312 -1043.10345 278.83797 C -1043.494063 274.814648 -1043.793534 270.765285 -1043.988841 266.728943 C -1044.184148 262.67958 -1044.288311 258.630217 -1044.288311 254.580854 C -1044.288311 250.531491 -1044.184148 246.482128 -1043.988841 242.432766 C -1043.793534 238.396423 -1043.494063 234.347061 -1043.10345 230.323739 C -1042.699815 226.287396 -1042.205038 222.277095 -1041.606097 218.266793 C -1041.020176 214.256492 -1040.330092 210.272231 -1039.535844 206.300991 C -1038.741596 202.316731 -1037.856205 198.371532 -1036.86665 194.439353 C -1035.890115 190.507174 -1034.809417 186.614057 -1033.637576 182.73396 C -1032.452714 178.853863 -1031.18973 175.012828 -1029.822581 171.197833 C -1028.455433 167.382839 -1026.997142 163.606906 -1025.447707 159.870034 C -1023.898272 156.120142 -1022.257694 152.422331 -1020.525973 148.763582 C -1018.794252 145.104833 -1016.971388 141.485146 -1015.070401 137.904519 C -1013.156394 134.336913 -1011.164263 130.808369 -1009.08099 127.344927 C -1006.997716 123.868464 -1004.8233 120.444083 -1002.583781 117.071785 C -1000.331241 113.712506 -998.000579 110.392289 -995.578774 107.150195 C -993.169989 103.89508 -990.683081 100.705067 -988.10503 97.567137 C -985.54 94.442226 -982.896846 91.369398 -980.17557 88.374692 C -977.454294 85.366966 -974.667916 82.437363 -971.803415 79.572862 C -968.938914 76.708361 -965.99629 73.908962 -963.001585 71.200707 C -959.993859 68.479431 -956.934051 65.823257 -953.79612 63.258227 C -950.67121 60.693196 -947.481197 58.193268 -944.226083 55.784483 C -940.970968 53.375698 -937.663771 51.045036 -934.291472 48.792496 C -930.932194 46.539957 -927.507813 44.378561 -924.03135 42.295287 C -920.554888 40.212014 -917.039364 38.219884 -913.458737 36.305876 C -909.891132 34.391869 -906.271444 32.569004 -902.612695 30.837283 C -898.953946 29.105562 -895.243115 27.464984 -891.506243 25.91555 C -887.756351 24.366115 -883.980418 22.907824 -880.165423 21.553696 C -876.350429 20.186548 -872.509393 18.910543 -868.629296 17.738701 C -864.76222 16.56686 -860.856082 15.486162 -856.923904 14.496607 C -853.004745 13.507052 -849.046526 12.621661 -845.075286 11.840433 C -841.104046 11.046185 -837.106765 10.356101 -833.109484 9.75716 C -829.099182 9.158219 -825.07586 8.663441 -821.052538 8.272827 C -817.016196 7.869193 -812.979854 7.582743 -808.930491 7.374416 C -804.894149 7.179109 -800.844786 7.074945 -796.795423 7.074945 C -792.73304 7.074945 -788.696697 7.179109 -784.647335 7.374416 C -780.597972 7.582743 -776.561629 7.869193 -772.525287 8.272827 C -768.501965 8.663441 -764.478643 9.158219 -760.468342 9.75716 C -756.471061 10.356101 -752.47378 11.046185 -748.50254 11.840433 C -744.5313 12.621661 -740.586101 13.507052 -736.653922 14.496607 C -732.721743 15.486162 -728.815606 16.56686 -724.948529 17.738701 C -721.068432 18.910543 -717.227397 20.186548 -713.412402 21.553696 C -709.597408 22.907824 -705.821475 24.366115 -702.071582 25.91555 C -698.334711 27.464984 -694.6369 29.105562 -690.965131 30.837283 C -687.306382 32.569004 -683.686694 34.391869 -680.119088 36.305876 C -676.551482 38.219884 -673.022938 40.212014 -669.546475 42.295287 C -666.070013 44.378561 -662.658652 46.539957 -659.286353 48.792496 C -655.914054 51.045036 -652.606858 53.375698 -649.351743 55.784483 C -646.096628 58.193268 -642.906616 60.693196 -639.781706 63.258227 C -636.643775 65.823257 -633.583967 68.479431 -630.576241 71.200707 C -627.581535 73.908962 -624.638911 76.708361 -621.787431 79.572862 C -618.92293 82.437363 -616.123531 85.366966 -613.402255 88.374692 C -610.680979 91.369398 -608.037826 94.442226 -605.472796 97.567137 C -602.894745 100.705067 -600.407837 103.89508 -597.999052 107.150195 C -595.577247 110.392289 -593.246584 113.712506 -591.007065 117.071785 C -588.754526 120.444083 -586.580109 123.868464 -584.496836 127.344927 C -582.413562 130.808369 -580.421432 134.336913 -578.520445 137.904519 C -576.606437 141.485146 -574.783573 145.104833 -573.051852 148.763582 C -571.320131 152.422331 -569.679553 156.120142 -568.130119 159.870034 C -566.580684 163.606906 -565.122392 167.382839 -563.755244 171.197833 C -562.388096 175.012828 -561.125111 178.853863 -559.95327 182.73396 C -558.768408 186.614057 -557.68771 190.507174 -556.711176 194.439353 C -555.721621 198.371532 -554.83623 202.316731 -554.041982 206.300991 C -553.260754 210.272231 -552.557649 214.256492 -551.971729 218.266793 C -551.372788 222.277095 -550.87801 226.287396 -550.487396 230.323739 C -550.083762 234.347061 -549.784292 238.396423 -549.588985 242.432766 C -549.393678 246.482128 -549.289514 250.531491 -549.289514 254.580854 Z M -549.289514 254.580854" stroke="#045" stroke-width="5"/></g><path stroke-linecap="round" transform="matrix(.3 0 0 .3 112.474 -51.241)" fill="#006680" fill-rule="evenodd" d="M 105.279337 655.915646 L 406.742029 655.915646 C 407.952932 655.915646 409.124773 656.136994 410.244532 656.60573 C 411.364292 657.074467 412.353847 657.73851 413.213197 658.59786 C 414.072547 659.457211 414.736591 660.446766 415.205327 661.566525 C 415.661043 662.686285 415.895412 663.858126 415.895412 665.069029 L 415.895412 887.172022 C 415.895412 888.382924 415.661043 889.554766 415.205327 890.674525 C 414.736591 891.794285 414.072547 892.78384 413.213197 893.64319 C 412.353847 894.50254 411.364292 895.166584 410.244532 895.63532 C 409.124773 896.091036 407.952932 896.325404 406.742029 896.325404 L 105.279337 896.325404 C 104.068434 896.325404 102.896593 896.091036 101.776833 895.63532 C 100.644054 895.166584 99.654499 894.50254 98.795148 893.64319 C 97.935798 892.78384 97.284775 891.794285 96.816039 890.674525 C 96.347302 889.554766 96.112934 888.382924 96.112934 887.172022 L 96.112934 665.069029 C 96.112934 663.858126 96.347302 662.686285 96.816039 661.566525 C 97.284775 660.446766 97.935798 659.457211 98.795148 658.59786 C 99.654499 657.73851 100.644054 657.074467 101.776833 656.60573 C 102.896593 656.136994 104.068434 655.915646 105.279337 655.915646 Z M 105.279337 655.915646" stroke="#045" stroke-width="1.2"/><path stroke-linecap="round" transform="matrix(.3 0 0 .3 112.474 -51.241)" fill="#006680" fill-rule="evenodd" d="M 75.045831 887.380349 L 436.793249 887.380349 C 436.793249 887.380349 444.983117 907.718306 407.197745 907.718306 L 254.663065 907.718306 L 105.435582 907.106345 C 67.832496 906.950099 75.045831 887.380349 75.045831 887.380349 Z M 75.045831 887.380349" stroke="#045" stroke-width="1.2"/><path stroke-linecap="round" transform="matrix(.3 0 0 .3 112.474 -51.241)" fill="#FFF" fill-rule="evenodd" d="M 121.060134 672.933386 L 390.857069 672.933386 L 390.857069 873.500539 L 121.060134 873.500539 Z M 121.060134 672.933386" stroke="#045" stroke-width="1.2"/><path stroke-linecap="round" transform="matrix(.3 0 0 .3 112.474 -51.241)" fill="#0A8" fill-rule="evenodd" d="M 120.799724 672.933386 L 390.870089 672.933386 L 390.870089 712.111948 L 120.799724 712.111948 Z M 120.799724 672.933386" stroke="#045" stroke-width="1.2"/><path fill="#FFF" d="M 187.546875 154.472656 L 191.367188 154.472656 L 191.367188 158.992188 L 187.546875 158.992188 Z M 187.546875 154.472656" fill-rule="evenodd"/><path fill="#FFF" d="M 196.425781 155.820312 L 198.335938 155.820312 L 198.335938 157.769531 L 196.425781 157.769531 Z M 196.425781 155.820312" fill-rule="evenodd"/><path fill="#FFF" d="M 200.246094 155.820312 L 202.15625 155.820312 L 202.15625 157.769531 L 200.246094 157.769531 Z M 200.246094 155.820312" fill-rule="evenodd"/><path fill="#FFF" d="M 204.0625 155.820312 L 205.972656 155.820312 L 205.972656 157.769531 L 204.0625 157.769531 Z M 204.0625 155.820312" fill-rule="evenodd"/><path fill="#FFF" d="M 207.886719 155.820312 L 209.796875 155.820312 L 209.796875 157.769531 L 207.886719 157.769531 Z M 207.886719 155.820312" fill-rule="evenodd"/><path fill="#FFF" d="M 211.703125 155.820312 L 213.613281 155.820312 L 213.613281 157.769531 L 211.703125 157.769531 Z M 211.703125 155.820312" fill-rule="evenodd"/><path fill="#FFF" d="M 159.199219 155.820312 L 180.167969 155.820312 C 180.4375 155.820312 180.667969 155.914062 180.859375 156.105469 C 181.050781 156.292969 181.144531 156.523438 181.144531 156.792969 C 181.144531 157.0625 181.050781 157.292969 180.859375 157.484375 C 180.667969 157.675781 180.4375 157.769531 180.167969 157.769531 L 159.199219 157.769531 C 158.929688 157.769531 158.703125 157.675781 158.511719 157.484375 C 158.320312 157.292969 158.226562 157.0625 158.226562 156.792969 C 158.226562 156.523438 158.320312 156.292969 158.511719 156.105469 C 158.703125 155.914062 158.929688 155.820312 159.199219 155.820312 Z M 159.199219 155.820312" fill-rule="evenodd"/><path fill="#045" d="M 204.75 166.644531 L 222.183594 166.644531 C 222.511719 166.644531 222.828125 166.707031 223.128906 166.835938 C 223.433594 166.960938 223.699219 167.136719 223.933594 167.371094 C 224.164062 167.601562 224.34375 167.871094 224.46875 168.171875 C 224.59375 168.476562 224.65625 168.792969 224.65625 169.121094 L 224.65625 190.652344 C 224.65625 190.980469 224.59375 191.296875 224.46875 191.601562 C 224.34375 191.902344 224.164062 192.171875 223.933594 192.402344 C 223.699219 192.632812 223.433594 192.8125 223.128906 192.9375 C 222.828125 193.0625 222.511719 193.128906 222.183594 193.128906 L 204.75 193.128906 C 204.421875 193.128906 204.105469 193.0625 203.800781 192.9375 C 203.5 192.8125 203.230469 192.632812 203 192.402344 C 202.769531 192.171875 202.589844 191.902344 202.464844 191.601562 C 202.339844 191.296875 202.277344 190.980469 202.277344 190.652344 L 202.277344 169.121094 C 202.277344 168.792969 202.339844 168.476562 202.464844 168.171875 C 202.589844 167.871094 202.769531 167.601562 203 167.371094 C 203.230469 167.136719 203.5 166.960938 203.800781 166.835938 C 204.105469 166.707031 204.421875 166.644531 204.75 166.644531 Z M 204.75 166.644531" fill-rule="evenodd"/><path fill="#045" d="M 202.375 195.597656 L 223.34375 195.597656 C 223.613281 195.597656 223.84375 195.691406 224.035156 195.882812 C 224.222656 196.074219 224.320312 196.304688 224.320312 196.574219 C 224.320312 196.84375 224.222656 197.070312 224.035156 197.261719 C 223.84375 197.453125 223.613281 197.546875 223.34375 197.546875 L 202.375 197.546875 C 202.105469 197.546875 201.875 197.453125 201.683594 197.261719 C 201.496094 197.070312 201.398438 196.84375 201.398438 196.574219 C 201.398438 196.304688 201.496094 196.074219 201.683594 195.882812 C 201.875 195.691406 202.105469 195.597656 202.375 195.597656 Z M 202.375 195.597656" fill-rule="evenodd"/><path fill="#045" d="M 202.375 198.894531 L 223.34375 198.894531 C 223.613281 198.894531 223.84375 198.988281 224.035156 199.179688 C 224.222656 199.371094 224.320312 199.601562 224.320312 199.871094 C 224.320312 200.140625 224.222656 200.367188 224.035156 200.558594 C 223.84375 200.75 223.613281 200.84375 223.34375 200.84375 L 202.375 200.84375 C 202.105469 200.84375 201.875 200.75 201.683594 200.558594 C 201.496094 200.367188 201.398438 200.140625 201.398438 199.871094 C 201.398438 199.601562 201.496094 199.371094 201.683594 199.179688 C 201.875 198.988281 202.105469 198.894531 202.375 198.894531 Z M 202.375 198.894531" fill-rule="evenodd"/><path fill="#045" d="M 202.375 202.191406 L 223.34375 202.191406 C 223.613281 202.191406 223.84375 202.285156 224.035156 202.476562 C 224.222656 202.667969 224.320312 202.898438 224.320312 203.167969 C 224.320312 203.4375 224.222656 203.664062 224.035156 203.855469 C 223.84375 204.046875 223.613281 204.140625 223.34375 204.140625 L 202.375 204.140625 C 202.105469 204.140625 201.875 204.046875 201.683594 203.855469 C 201.496094 203.664062 201.398438 203.4375 201.398438 203.167969 C 201.398438 202.898438 201.496094 202.667969 201.683594 202.476562 C 201.875 202.285156 202.105469 202.191406 202.375 202.191406 Z M 202.375 202.191406" fill-rule="evenodd"/><path fill="#045" d="M 202.375 205.488281 L 223.34375 205.488281 C 223.613281 205.488281 223.84375 205.582031 224.035156 205.773438 C 224.222656 205.964844 224.320312 206.195312 224.320312 206.464844 C 224.320312 206.734375 224.222656 206.964844 224.035156 207.152344 C 223.84375 207.34375 223.613281 207.4375 223.34375 207.4375 L 202.375 207.4375 C 202.105469 207.4375 201.875 207.34375 201.683594 207.152344 C 201.496094 206.964844 201.398438 206.734375 201.398438 206.464844 C 201.398438 206.195312 201.496094 205.964844 201.683594 205.773438 C 201.875 205.582031 202.105469 205.488281 202.375 205.488281 Z M 202.375 205.488281" fill-rule="evenodd"/><path fill="#006680" d="M 164.671875 167.976562 L 179.910156 167.976562 C 180.179688 167.976562 180.410156 168.074219 180.601562 168.265625 C 180.792969 168.453125 180.886719 168.683594 180.886719 168.953125 C 180.886719 169.222656 180.792969 169.453125 180.601562 169.644531 C 180.410156 169.835938 180.179688 169.929688 179.910156 169.929688 L 164.671875 169.929688 C 164.402344 169.929688 164.171875 169.835938 163.984375 169.644531 C 163.792969 169.453125 163.699219 169.222656 163.699219 168.953125 C 163.699219 168.683594 163.792969 168.453125 163.984375 168.265625 C 164.171875 168.074219 164.402344 167.976562 164.671875 167.976562 Z M 164.671875 167.976562" fill-rule="evenodd"/><path fill="#0A8" d="M 154.53125 172.777344 L 186.960938 172.777344 C 187.230469 172.777344 187.460938 172.875 187.652344 173.0625 C 187.84375 173.253906 187.9375 173.484375 187.9375 173.753906 C 187.9375 174.023438 187.84375 174.253906 187.652344 174.445312 C 187.460938 174.632812 187.230469 174.730469 186.960938 174.730469 L 154.53125 174.730469 C 154.261719 174.730469 154.035156 174.632812 153.84375 174.445312 C 153.652344 174.253906 153.558594 174.023438 153.558594 173.753906 C 153.558594 173.484375 153.652344 173.253906 153.84375 173.0625 C 154.035156 172.875 154.261719 172.777344 154.53125 172.777344 Z M 154.53125 172.777344" fill-rule="evenodd"/><path fill="#0A8" d="M 154.53125 176.894531 L 186.960938 176.894531 C 187.230469 176.894531 187.460938 176.988281 187.652344 177.179688 C 187.84375 177.371094 187.9375 177.601562 187.9375 177.871094 C 187.9375 178.140625 187.84375 178.371094 187.652344 178.558594 C 187.460938 178.75 187.230469 178.84375 186.960938 178.84375 L 154.53125 178.84375 C 154.261719 178.84375 154.035156 178.75 153.84375 178.558594 C 153.652344 178.371094 153.558594 178.140625 153.558594 177.871094 C 153.558594 177.601562 153.652344 177.371094 153.84375 177.179688 C 154.035156 176.988281 154.261719 176.894531 154.53125 176.894531 Z M 154.53125 176.894531" fill-rule="evenodd"/><path fill="#0A8" d="M 154.53125 181.011719 L 186.960938 181.011719 C 187.230469 181.011719 187.460938 181.105469 187.652344 181.296875 C 187.84375 181.488281 187.9375 181.714844 187.9375 181.984375 C 187.9375 182.253906 187.84375 182.484375 187.652344 182.675781 C 187.460938 182.867188 187.230469 182.960938 186.960938 182.960938 L 154.53125 182.960938 C 154.261719 182.960938 154.035156 182.867188 153.84375 182.675781 C 153.652344 182.484375 153.558594 182.253906 153.558594 181.984375 C 153.558594 181.714844 153.652344 181.488281 153.84375 181.296875 C 154.035156 181.105469 154.261719 181.011719 154.53125 181.011719 Z M 154.53125 181.011719" fill-rule="evenodd"/><path fill="#0A8" d="M 154.53125 185.125 L 186.960938 185.125 C 187.230469 185.125 187.460938 185.222656 187.652344 185.414062 C 187.84375 185.601562 187.9375 185.832031 187.9375 186.101562 C 187.9375 186.371094 187.84375 186.601562 187.652344 186.792969 C 187.460938 186.984375 187.230469 187.078125 186.960938 187.078125 L 154.53125 187.078125 C 154.261719 187.078125 154.035156 186.984375 153.84375 186.792969 C 153.652344 186.601562 153.558594 186.371094 153.558594 186.101562 C 153.558594 185.832031 153.652344 185.601562 153.84375 185.414062 C 154.035156 185.222656 154.261719 185.125 154.53125 185.125 Z M 154.53125 185.125" fill-rule="evenodd"/><path fill="#0A8" d="M 154.53125 189.238281 L 186.960938 189.238281 C 187.230469 189.238281 187.460938 189.335938 187.652344 189.523438 C 187.84375 189.714844 187.9375 189.945312 187.9375 190.214844 C 187.9375 190.484375 187.84375 190.714844 187.652344 190.90625 C 187.460938 191.09375 187.230469 191.191406 186.960938 191.191406 L 154.53125 191.191406 C 154.261719 191.191406 154.035156 191.09375 153.84375 190.90625 C 153.652344 190.714844 153.558594 190.484375 153.558594 190.214844 C 153.558594 189.945312 153.652344 189.714844 153.84375 189.523438 C 154.035156 189.335938 154.261719 189.238281 154.53125 189.238281 Z M 154.53125 189.238281" fill-rule="evenodd"/><path fill="#0A8" d="M 154.53125 193.355469 L 186.960938 193.355469 C 187.230469 193.355469 187.460938 193.449219 187.652344 193.640625 C 187.84375 193.832031 187.9375 194.0625 187.9375 194.332031 C 187.9375 194.601562 187.84375 194.832031 187.652344 195.019531 C 187.460938 195.210938 187.230469 195.308594 186.960938 195.308594 L 154.53125 195.308594 C 154.261719 195.308594 154.035156 195.210938 153.84375 195.019531 C 153.652344 194.832031 153.558594 194.601562 153.558594 194.332031 C 153.558594 194.0625 153.652344 193.832031 153.84375 193.640625 C 154.035156 193.449219 154.261719 193.355469 154.53125 193.355469 Z M 154.53125 193.355469" fill-rule="evenodd"/><path fill="#0A8" d="M 154.53125 197.472656 L 186.960938 197.472656 C 187.230469 197.472656 187.460938 197.566406 187.652344 197.757812 C 187.84375 197.949219 187.9375 198.179688 187.9375 198.449219 C 187.9375 198.71875 187.84375 198.945312 187.652344 199.136719 C 187.460938 199.328125 187.230469 199.421875 186.960938 199.421875 L 154.53125 199.421875 C 154.261719 199.421875 154.035156 199.328125 153.84375 199.136719 C 153.652344 198.945312 153.558594 198.71875 153.558594 198.449219 C 153.558594 198.179688 153.652344 197.949219 153.84375 197.757812 C 154.035156 197.566406 154.261719 197.472656 154.53125 197.472656 Z M 154.53125 197.472656" fill-rule="evenodd"/><path fill="#0A8" d="M 154.53125 201.585938 L 186.960938 201.585938 C 187.230469 201.585938 187.460938 201.679688 187.652344 201.871094 C 187.84375 202.0625 187.9375 202.292969 187.9375 202.5625 C 187.9375 202.828125 187.84375 203.058594 187.652344 203.25 C 187.460938 203.441406 187.230469 203.535156 186.960938 203.535156 L 154.53125 203.535156 C 154.261719 203.535156 154.035156 203.441406 153.84375 203.25 C 153.652344 203.058594 153.558594 202.828125 153.558594 202.5625 C 153.558594 202.292969 153.652344 202.0625 153.84375 201.871094 C 154.035156 201.679688 154.261719 201.585938 154.53125 201.585938 Z M 154.53125 201.585938" fill-rule="evenodd"/><path fill="#0A8" d="M 154.53125 201.585938 L 186.960938 201.585938 C 187.230469 201.585938 187.460938 201.679688 187.652344 201.871094 C 187.84375 202.0625 187.9375 202.292969 187.9375 202.5625 C 187.9375 202.828125 187.84375 203.058594 187.652344 203.25 C 187.460938 203.441406 187.230469 203.535156 186.960938 203.535156 L 154.53125 203.535156 C 154.261719 203.535156 154.035156 203.441406 153.84375 203.25 C 153.652344 203.058594 153.558594 202.828125 153.558594 202.5625 C 153.558594 202.292969 153.652344 202.0625 153.84375 201.871094 C 154.035156 201.679688 154.261719 201.585938 154.53125 201.585938 Z M 154.53125 201.585938" fill-rule="evenodd"/><path fill="#006680" d="M 177.507812 204.871094 L 185.105469 204.871094 C 185.375 204.871094 185.605469 204.964844 185.796875 205.15625 C 185.988281 205.347656 186.082031 205.578125 186.082031 205.847656 C 186.082031 206.113281 185.988281 206.34375 185.796875 206.535156 C 185.605469 206.726562 185.375 206.820312 185.105469 206.820312 L 177.507812 206.820312 C 177.238281 206.820312 177.007812 206.726562 176.816406 206.535156 C 176.628906 206.34375 176.53125 206.113281 176.53125 205.847656 C 176.53125 205.578125 176.628906 205.347656 176.816406 205.15625 C 177.007812 204.964844 177.238281 204.871094 177.507812 204.871094 Z M 177.507812 204.871094" fill-rule="evenodd"/><path stroke-linecap="round" transform="matrix(.3 0 0 .3 112.474 -51.241)" fill="#FFF" fill-rule="evenodd" d="M 230.002316 886.924633 L 290.000592 886.924633 C 290.000592 886.924633 292.318233 895.726463 285.000735 895.726463 L 234.520415 895.726463 C 227.241978 895.726463 230.002316 886.924633 230.002316 886.924633 Z M 230.002316 886.924633" stroke="#045" stroke-width="1.2"/><g clip-path="url(#b)"><path fill="#E7E7E5" d="M 268.125 135.472656 C 268.125 128.925781 262.917969 123.59375 256.382812 123.28125 C 254.269531 117.050781 248.332031 112.550781 241.335938 112.550781 C 233.089844 112.550781 226.308594 118.785156 225.535156 126.75 C 225.511719 126.75 225.480469 126.742188 225.460938 126.742188 C 219.613281 126.742188 214.875 131.4375 214.875 137.21875 C 214.875 143.007812 219.613281 147.699219 225.460938 147.699219 L 256.226562 147.699219 L 256.226562 147.675781 C 262.835938 147.441406 268.125 142.074219 268.125 135.472656 Z M 268.125 135.472656"/></g><g clip-path="url(#c)"><path fill="#E7E7E5" d="M 156.589844 239.726562 C 156.589844 242.300781 155.554688 244.628906 153.878906 246.324219 C 152.207031 248.007812 149.890625 249.050781 147.320312 249.050781 L 110.382812 249.050781 C 108.34375 249.050781 106.460938 248.394531 104.9375 247.273438 C 102.621094 245.578125 101.109375 242.828125 101.109375 239.726562 C 101.109375 237.15625 102.144531 234.828125 103.820312 233.128906 C 104.214844 232.734375 104.644531 232.382812 105.097656 232.054688 L 105.109375 232.078125 C 105.0625 231.703125 105.042969 231.328125 105.042969 230.941406 C 105.042969 225.339844 109.554688 220.800781 115.128906 220.800781 L 115.289062 220.800781 L 115.289062 220.789062 C 117.917969 214.90625 123.796875 210.800781 130.636719 210.800781 C 137.082031 210.800781 142.675781 214.449219 145.503906 219.808594 C 146.75 222.160156 147.445312 224.847656 147.445312 227.691406 C 147.445312 228.617188 147.367188 229.515625 147.226562 230.394531 L 147.308594 230.394531 C 148.492188 230.394531 149.632812 230.628906 150.679688 231.035156 C 153.160156 232.007812 155.113281 234.007812 156.03125 236.511719 C 156.394531 237.515625 156.589844 238.59375 156.589844 239.726562 Z M 156.589844 239.726562"/></g><g fill="#045"><g><g><path d="M 7.332031 -13.980469 C 7.484375 -13.980469 7.75 -13.601562 8.054688 -13.109375 C 8.207031 -12.84375 8.472656 -12.539062 8.664062 -12.195312 C 8.851562 -11.890625 9.003906 -11.550781 9.15625 -11.207031 C 9.347656 -10.867188 9.460938 -10.488281 9.613281 -10.21875 C 9.800781 -9.917969 10.03125 -9.652344 10.21875 -9.347656 C 10.371094 -9.042969 10.5625 -8.738281 10.753906 -8.433594 C 10.941406 -8.167969 11.054688 -7.828125 11.246094 -7.5625 C 11.4375 -7.257812 11.742188 -7.027344 11.890625 -6.726562 C 12.082031 -6.421875 12.308594 -6.15625 12.5 -5.851562 C 12.691406 -5.585938 12.84375 -5.28125 13.03125 -4.976562 C 13.261719 -4.671875 13.449219 -4.40625 13.640625 -4.101562 C 13.832031 -3.800781 13.945312 -3.496094 14.132812 -3.191406 C 14.324219 -2.886719 14.550781 -2.621094 14.742188 -2.316406 C 14.933594 -2.015625 15.085938 -1.671875 15.273438 -1.367188 C 15.503906 -1.101562 15.769531 -0.835938 16.035156 -0.609375 C 16.300781 -0.417969 16.605469 -0.226562 16.945312 -0.113281 C 17.289062 0 17.628906 0 18.046875 0 C 18.464844 0 18.769531 0 18.996094 -0.0390625 C 19.414062 -0.152344 19.53125 -0.378906 19.605469 -0.722656 C 19.644531 -0.988281 19.644531 -1.292969 19.679688 -1.710938 C 19.679688 -2.050781 19.644531 -2.394531 19.679688 -2.734375 C 19.679688 -3.078125 19.757812 -3.417969 19.796875 -3.761719 C 19.796875 -4.101562 19.71875 -4.445312 19.71875 -4.789062 C 19.71875 -5.128906 19.757812 -5.472656 19.757812 -5.8125 C 19.757812 -6.15625 19.832031 -6.496094 19.832031 -6.839844 C 19.832031 -7.179688 19.757812 -7.523438 19.796875 -7.902344 C 19.796875 -8.246094 19.871094 -8.585938 19.871094 -8.929688 C 19.871094 -9.269531 19.910156 -9.613281 19.910156 -9.953125 C 19.910156 -10.296875 19.832031 -10.636719 19.832031 -10.980469 C 19.832031 -11.324219 19.949219 -11.664062 19.949219 -12.007812 C 19.949219 -12.386719 19.949219 -12.726562 19.949219 -13.070312 C 19.984375 -13.414062 19.910156 -13.753906 19.910156 -14.097656 C 19.910156 -14.4375 19.910156 -14.78125 19.910156 -15.121094 C 19.910156 -15.464844 19.984375 -15.804688 19.984375 -16.148438 C 19.984375 -16.488281 20.023438 -16.832031 20.023438 -17.136719 C 20.023438 -17.515625 19.949219 -17.859375 19.949219 -18.160156 C 19.949219 -18.542969 20.0625 -18.882812 20.0625 -19.226562 C 20.0625 -19.566406 20.023438 -19.910156 20.023438 -20.25 C 20.023438 -20.59375 20.023438 -20.933594 20.023438 -21.277344 C 20.023438 -21.65625 20.097656 -21.960938 20.0625 -22.265625 C 20.023438 -22.644531 19.984375 -22.988281 19.871094 -23.253906 C 19.71875 -23.59375 19.492188 -23.824219 19.148438 -23.9375 C 18.882812 -24.050781 18.542969 -23.976562 18.160156 -23.976562 C 17.859375 -23.9375 17.515625 -23.9375 17.136719 -23.859375 C 16.871094 -23.824219 16.566406 -23.671875 16.222656 -23.558594 C 16.222656 -23.253906 16.148438 -22.988281 16.148438 -22.605469 C 16.109375 -22.304688 16.148438 -21.960938 16.148438 -21.621094 C 16.148438 -21.277344 16.070312 -20.933594 16.070312 -20.59375 C 16.070312 -20.25 16.148438 -19.910156 16.148438 -19.566406 C 16.148438 -19.261719 16.070312 -18.921875 16.070312 -18.578125 C 16.070312 -18.238281 16.109375 -17.894531 16.109375 -17.554688 C 16.109375 -17.210938 15.996094 -16.871094 15.996094 -16.527344 C 15.996094 -16.222656 16.109375 -15.882812 16.109375 -15.539062 C 16.109375 -15.199219 16.035156 -14.855469 16.035156 -14.515625 C 16.035156 -14.171875 15.996094 -13.832031 15.996094 -13.527344 C 15.996094 -13.183594 16.035156 -12.84375 16.035156 -12.5 C 16.035156 -12.160156 15.996094 -11.816406 15.996094 -11.511719 C 15.957031 -11.132812 15.917969 -10.789062 15.917969 -10.523438 C 15.882812 -9.878906 15.882812 -9.5 15.84375 -9.535156 C 15.503906 -9.574219 15.234375 -9.917969 14.96875 -10.296875 C 14.742188 -10.675781 14.550781 -11.132812 14.398438 -11.359375 C 14.210938 -11.625 13.945312 -11.890625 13.792969 -12.160156 C 13.601562 -12.460938 13.414062 -12.765625 13.222656 -13.070312 C 13.03125 -13.335938 12.957031 -13.679688 12.765625 -13.980469 C 12.578125 -14.285156 12.308594 -14.515625 12.121094 -14.816406 C 11.96875 -15.121094 11.777344 -15.386719 11.589844 -15.691406 C 11.398438 -15.996094 11.246094 -16.300781 11.054688 -16.605469 C 10.867188 -16.90625 10.714844 -17.210938 10.5625 -17.515625 C 10.371094 -17.78125 10.183594 -18.085938 9.992188 -18.390625 C 9.800781 -18.695312 9.6875 -18.996094 9.5 -19.300781 C 9.347656 -19.605469 9.082031 -19.832031 8.890625 -20.136719 C 8.699219 -20.402344 8.585938 -20.746094 8.398438 -21.011719 C 8.207031 -21.316406 7.980469 -21.582031 7.789062 -21.886719 C 7.636719 -22.1875 7.445312 -22.492188 7.296875 -22.757812 C 7.066406 -23.175781 6.878906 -23.40625 6.648438 -23.632812 C 6.382812 -23.859375 6.117188 -23.9375 5.699219 -23.976562 C 5.433594 -24.011719 5.054688 -24.011719 4.636719 -23.976562 C 4.027344 -24.011719 3.683594 -24.011719 3.457031 -24.011719 C 3 -23.976562 2.964844 -23.824219 2.964844 -23.140625 C 2.964844 -22.796875 3.039062 -22.453125 3.039062 -22.113281 C 3.039062 -21.769531 3.039062 -21.429688 3.039062 -21.085938 C 3.039062 -20.746094 2.925781 -20.402344 2.925781 -20.0625 C 2.925781 -19.71875 2.964844 -19.378906 2.964844 -19.035156 C 2.964844 -18.695312 2.925781 -18.351562 2.964844 -18.007812 C 2.964844 -17.667969 3 -17.324219 3 -16.984375 C 3 -16.640625 3.039062 -16.300781 3.039062 -15.957031 C 3.039062 -15.617188 3 -15.273438 3 -14.933594 C 3 -14.589844 2.925781 -14.25 2.925781 -13.945312 C 2.964844 -13.601562 3.039062 -13.261719 3.039062 -12.917969 C 3.039062 -12.578125 3.078125 -12.234375 3.078125 -11.890625 C 3.078125 -11.550781 3.039062 -11.207031 3.039062 -10.867188 C 3.039062 -10.523438 3.039062 -10.183594 3.039062 -9.839844 C 3.039062 -9.535156 3.078125 -9.15625 3.078125 -8.816406 C 3.078125 -8.472656 3.039062 -8.132812 3.039062 -7.75 C 3.039062 -7.410156 3.039062 -7.066406 3.039062 -6.6875 C 3.039062 -6.34375 2.964844 -6.003906 2.964844 -5.625 C 2.964844 -5.28125 3.039062 -4.9375 3.039062 -4.597656 C 3.039062 -4.21875 3 -3.875 2.964844 -3.535156 C 2.964844 -3.191406 3 -2.8125 3 -2.46875 C 3 -2.128906 2.964844 -1.746094 2.964844 -1.445312 C 2.964844 -0.988281 3.039062 -0.683594 3.191406 -0.457031 C 3.34375 -0.191406 3.609375 0 3.988281 0.0742188 C 4.253906 0.152344 4.597656 0.191406 4.976562 0.191406 C 5.394531 0.191406 5.738281 0.152344 6.042969 0.0742188 C 6.421875 0 6.726562 -0.152344 6.914062 -0.457031 C 7.066406 -0.683594 7.105469 -1.027344 7.144531 -1.445312 C 7.144531 -1.710938 7.144531 -2.050781 7.105469 -2.394531 C 7.105469 -2.734375 7.105469 -3.039062 7.105469 -3.382812 C 7.066406 -3.722656 7.066406 -4.066406 7.066406 -4.332031 C 7.066406 -4.710938 7.066406 -5.089844 7.066406 -5.433594 C 7.027344 -5.8125 7.027344 -6.15625 7.027344 -6.496094 C 7.027344 -6.878906 7.027344 -7.257812 7.027344 -7.597656 C 7.027344 -7.980469 7.066406 -8.320312 7.066406 -8.699219 C 7.066406 -9.042969 7.144531 -9.421875 7.144531 -9.765625 C 7.144531 -10.144531 7.066406 -10.488281 7.066406 -10.867188 C 7.066406 -11.207031 7.066406 -11.589844 7.066406 -11.96875 C 7.066406 -12.308594 7.066406 -12.652344 7.027344 -13.070312 C 7.066406 -13.488281 6.914062 -14.058594 7.332031 -13.980469 Z M 7.332031 -13.980469" transform="translate(93.885 299.25)"/></g></g></g><g fill="#045"><g><g><path d="M 7.941406 -15.917969 C 8.28125 -15.917969 8.625 -15.917969 8.96875 -15.917969 C 9.347656 -15.917969 9.6875 -15.84375 10.03125 -15.84375 C 10.371094 -15.84375 10.753906 -15.917969 11.09375 -15.917969 C 11.4375 -15.917969 11.777344 -15.917969 12.121094 -15.917969 C 12.5 -15.917969 12.84375 -15.84375 13.183594 -15.84375 C 13.527344 -15.84375 13.90625 -15.882812 14.210938 -15.882812 C 14.589844 -15.882812 14.933594 -15.917969 15.273438 -15.917969 C 15.691406 -15.917969 16.035156 -15.917969 16.300781 -16.070312 C 16.605469 -16.222656 16.753906 -16.488281 16.90625 -16.832031 C 17.023438 -17.136719 17.097656 -17.441406 17.136719 -17.859375 C 17.136719 -18.160156 17.210938 -18.464844 17.210938 -18.769531 C 17.210938 -19.074219 17.171875 -19.378906 16.945312 -19.566406 C 16.792969 -19.71875 16.527344 -19.832031 16.148438 -19.910156 C 15.882812 -19.949219 15.617188 -20.023438 15.234375 -20.023438 C 14.933594 -20.023438 14.550781 -19.949219 14.171875 -19.949219 C 13.832031 -19.949219 13.449219 -19.984375 13.070312 -19.949219 C 12.726562 -19.949219 12.347656 -19.984375 12.007812 -19.984375 C 11.625 -19.984375 11.246094 -19.910156 10.90625 -19.871094 C 10.523438 -19.871094 10.144531 -19.871094 9.839844 -19.871094 C 9.535156 -19.871094 9.195312 -19.832031 8.851562 -19.871094 C 8.550781 -19.871094 8.207031 -19.832031 7.863281 -19.832031 C 7.5625 -19.871094 7.21875 -19.871094 6.878906 -19.871094 C 6.574219 -19.910156 6.230469 -19.984375 5.890625 -20.023438 C 5.585938 -20.023438 5.242188 -19.949219 4.902344 -19.949219 C 4.597656 -19.984375 4.253906 -20.023438 3.914062 -20.023438 C 3.609375 -20.023438 3.304688 -19.949219 3 -19.949219 C 2.964844 -19.605469 2.886719 -19.300781 2.886719 -18.960938 C 2.851562 -18.617188 2.925781 -18.277344 2.925781 -17.933594 C 2.925781 -17.589844 2.851562 -17.25 2.851562 -16.90625 C 2.851562 -16.566406 2.886719 -16.222656 2.851562 -15.882812 C 2.851562 -15.503906 2.851562 -15.160156 2.851562 -14.816406 C 2.851562 -14.476562 2.851562 -14.132812 2.851562 -13.792969 C 2.851562 -13.449219 2.8125 -13.109375 2.773438 -12.765625 C 2.773438 -12.425781 2.886719 -12.082031 2.886719 -11.742188 C 2.886719 -11.398438 2.773438 -11.054688 2.773438 -10.714844 C 2.773438 -10.371094 2.851562 -10.03125 2.8125 -9.6875 C 2.8125 -9.347656 2.773438 -9.042969 2.773438 -8.699219 C 2.773438 -8.359375 2.773438 -8.015625 2.773438 -7.675781 C 2.773438 -7.332031 2.773438 -6.992188 2.773438 -6.648438 C 2.773438 -6.308594 2.773438 -5.964844 2.773438 -5.625 C 2.773438 -5.28125 2.773438 -4.9375 2.773438 -4.597656 C 2.773438 -4.253906 2.699219 -3.914062 2.699219 -3.570312 C 2.660156 -3.230469 2.773438 -2.886719 2.773438 -2.546875 C 2.773438 -2.203125 2.773438 -1.863281 2.773438 -1.519531 C 2.773438 -1.292969 2.925781 -0.910156 3.191406 -0.644531 C 3.496094 -0.34375 3.835938 -0.191406 4.101562 -0.191406 C 4.445312 -0.191406 4.789062 -0.113281 5.167969 -0.113281 C 5.507812 -0.113281 5.851562 -0.0390625 6.230469 -0.0390625 C 6.574219 -0.0390625 6.914062 -0.0390625 7.296875 -0.0390625 C 7.636719 0 7.980469 -0.0390625 8.359375 -0.0390625 C 8.699219 -0.0390625 9.082031 0.0390625 9.421875 0.0390625 C 9.765625 0.0742188 10.144531 0.0390625 10.488281 0.0390625 C 10.867188 0.0742188 11.207031 0 11.550781 0 C 11.929688 0 12.273438 0 12.613281 0 C 12.996094 0 13.335938 0.0742188 13.679688 0.0742188 C 14.058594 0.0742188 14.398438 0.0390625 14.742188 0.0390625 C 15.121094 0.0390625 15.464844 0.0390625 15.804688 0 C 16.222656 0 16.488281 -0.152344 16.679688 -0.417969 C 16.871094 -0.644531 16.945312 -0.988281 16.90625 -1.367188 C 16.832031 -1.671875 16.753906 -2.050781 16.566406 -2.355469 C 16.375 -2.582031 16.222656 -2.964844 16.035156 -3.304688 C 15.84375 -3.683594 15.617188 -3.953125 15.273438 -3.988281 C 14.96875 -4.027344 14.667969 -4.027344 14.285156 -4.027344 C 13.980469 -4.027344 13.640625 -4.027344 13.296875 -4.027344 C 12.957031 -4.027344 12.613281 -4.101562 12.308594 -4.101562 C 11.96875 -4.101562 11.625 -4.027344 11.324219 -3.988281 C 10.980469 -3.988281 10.636719 -4.066406 10.296875 -4.066406 C 9.953125 -4.066406 9.613281 -4.027344 9.347656 -4.027344 C 9.003906 -4.066406 8.699219 -4.066406 8.433594 -4.066406 C 8.09375 -4.066406 7.789062 -4.027344 7.523438 -4.027344 C 6.953125 -4.027344 6.914062 -3.722656 6.574219 -4.027344 C 6.15625 -4.484375 6.535156 -4.519531 6.496094 -5.242188 C 6.496094 -5.585938 6.460938 -6.003906 6.460938 -6.460938 C 6.496094 -6.953125 6.34375 -7.105469 6.496094 -7.75 C 6.800781 -7.75 7.144531 -7.714844 7.523438 -7.714844 C 7.863281 -7.714844 8.207031 -7.75 8.550781 -7.75 C 8.890625 -7.75 9.269531 -7.714844 9.613281 -7.714844 C 9.953125 -7.714844 10.296875 -7.789062 10.636719 -7.789062 C 11.019531 -7.789062 11.359375 -7.714844 11.664062 -7.714844 C 12.082031 -7.714844 12.425781 -7.714844 12.726562 -7.714844 C 13.144531 -7.714844 13.488281 -7.828125 13.753906 -7.902344 C 14.171875 -7.980469 14.515625 -8.09375 14.703125 -8.320312 C 14.894531 -8.585938 15.007812 -8.929688 15.046875 -9.347656 C 15.046875 -9.652344 14.933594 -9.992188 14.894531 -10.371094 C 14.855469 -10.714844 14.855469 -11.054688 14.78125 -11.4375 C 14.515625 -11.472656 14.171875 -11.511719 13.792969 -11.511719 C 13.488281 -11.511719 13.183594 -11.4375 12.84375 -11.472656 C 12.5 -11.472656 12.195312 -11.589844 11.855469 -11.589844 C 11.511719 -11.589844 11.207031 -11.511719 10.867188 -11.550781 C 10.5625 -11.550781 10.21875 -11.589844 9.917969 -11.589844 C 9.574219 -11.625 9.234375 -11.625 8.96875 -11.625 C 8.585938 -11.664062 8.167969 -11.742188 7.828125 -11.742188 C 7.179688 -11.742188 7.066406 -11.285156 6.648438 -11.703125 C 6.230469 -12.082031 6.6875 -12.273438 6.648438 -12.878906 C 6.648438 -13.261719 6.648438 -13.679688 6.648438 -14.058594 C 6.648438 -14.4375 6.648438 -14.628906 6.6875 -14.96875 C 6.761719 -15.199219 6.839844 -15.464844 6.914062 -15.882812 C 7.257812 -15.882812 7.5625 -15.917969 7.941406 -15.917969 Z M 7.941406 -15.917969" transform="translate(116.783 299.25)"/></g></g></g><g fill="#045"><g><g><path d="M 9.382812 -7.863281 C 9.195312 -7.332031 9.003906 -7.523438 8.851562 -7.902344 C 8.777344 -8.132812 8.699219 -8.472656 8.585938 -8.738281 C 8.511719 -9.003906 8.398438 -9.347656 8.320312 -9.6875 C 8.246094 -9.992188 8.167969 -10.296875 8.09375 -10.636719 C 8.015625 -10.941406 7.941406 -11.285156 7.863281 -11.589844 C 7.75 -11.929688 7.75 -12.273438 7.675781 -12.539062 C 7.597656 -12.878906 7.597656 -13.222656 7.523438 -13.601562 C 7.445312 -13.945312 7.296875 -14.25 7.21875 -14.628906 C 7.144531 -14.96875 7.066406 -15.3125 6.992188 -15.652344 C 6.914062 -15.996094 6.839844 -16.335938 6.761719 -16.71875 C 6.6875 -17.058594 6.609375 -17.402344 6.535156 -17.742188 C 6.460938 -18.085938 6.34375 -18.425781 6.230469 -18.769531 C 6.15625 -19.113281 6.117188 -19.453125 6.003906 -19.796875 C 5.925781 -20.023438 5.546875 -20.175781 5.167969 -20.214844 C 4.863281 -20.214844 4.519531 -20.175781 4.21875 -20.214844 C 3.875 -20.214844 3.570312 -20.214844 3.34375 -20.25 C 2.886719 -20.367188 2.46875 -20.328125 2.128906 -20.25 C 1.710938 -20.136719 1.40625 -19.832031 1.328125 -19.378906 C 1.292969 -19.148438 1.40625 -18.769531 1.480469 -18.390625 C 1.597656 -17.972656 1.671875 -17.589844 1.710938 -17.363281 C 1.824219 -17.023438 1.976562 -16.71875 2.050781 -16.375 C 2.164062 -16.035156 2.164062 -15.652344 2.242188 -15.351562 C 2.355469 -15.007812 2.546875 -14.667969 2.621094 -14.363281 C 2.734375 -14.019531 2.773438 -13.679688 2.886719 -13.335938 C 2.964844 -12.996094 3.039062 -12.652344 3.152344 -12.308594 C 3.230469 -11.96875 3.265625 -11.625 3.34375 -11.285156 C 3.417969 -10.941406 3.570312 -10.601562 3.648438 -10.257812 C 3.722656 -9.917969 3.800781 -9.574219 3.914062 -9.234375 C 3.988281 -8.929688 4.066406 -8.585938 4.140625 -8.246094 C 4.253906 -7.902344 4.371094 -7.5625 4.484375 -7.21875 C 4.558594 -6.878906 4.636719 -6.535156 4.75 -6.191406 C 4.824219 -5.890625 5.015625 -5.546875 5.089844 -5.207031 C 5.207031 -4.902344 5.167969 -4.519531 5.242188 -4.179688 C 5.355469 -3.835938 5.546875 -3.535156 5.625 -3.191406 C 5.738281 -2.851562 5.699219 -2.46875 5.773438 -2.128906 C 5.890625 -1.824219 6.003906 -1.480469 6.117188 -1.140625 C 6.191406 -0.796875 6.382812 -0.570312 6.609375 -0.378906 C 6.839844 -0.191406 7.144531 -0.113281 7.484375 -0.0390625 C 7.75 0 8.054688 0.0390625 8.398438 0.0390625 C 8.777344 0.0390625 9.195312 0 9.574219 -0.0742188 C 9.953125 -0.152344 10.371094 -0.265625 10.675781 -0.492188 C 11.019531 -0.683594 11.207031 -1.027344 11.398438 -1.40625 C 11.511719 -1.785156 11.742188 -2.089844 11.855469 -2.433594 C 11.96875 -2.773438 12.007812 -3.152344 12.121094 -3.496094 C 12.234375 -3.835938 12.386719 -4.179688 12.460938 -4.519531 C 12.539062 -4.902344 12.652344 -5.242188 12.726562 -5.585938 C 12.84375 -5.964844 12.878906 -6.308594 12.996094 -6.6875 C 13.070312 -7.027344 13.183594 -7.371094 13.296875 -7.75 C 13.414062 -8.09375 13.449219 -8.472656 13.5625 -8.816406 C 13.640625 -9.082031 13.714844 -9.460938 13.832031 -9.839844 C 13.945312 -10.296875 14.171875 -10.675781 14.324219 -10.675781 C 14.398438 -10.675781 14.589844 -10.371094 14.816406 -9.800781 C 14.894531 -9.535156 15.085938 -9.234375 15.199219 -8.851562 C 15.3125 -8.550781 15.351562 -8.167969 15.464844 -7.828125 C 15.539062 -7.523438 15.652344 -7.179688 15.769531 -6.839844 C 15.84375 -6.496094 15.996094 -6.15625 16.070312 -5.851562 C 16.1875 -5.507812 16.261719 -5.167969 16.375 -4.863281 C 16.488281 -4.445312 16.488281 -4.066406 16.566406 -3.683594 C 16.640625 -3.304688 16.71875 -2.925781 16.792969 -2.546875 C 16.90625 -2.203125 17.097656 -1.863281 17.289062 -1.480469 C 17.402344 -1.214844 17.589844 -0.949219 17.820312 -0.722656 C 18.007812 -0.492188 18.199219 -0.265625 18.542969 -0.113281 C 18.769531 -0.0390625 19.074219 0 19.453125 0 C 19.796875 0 20.136719 0.0390625 20.402344 0.0390625 C 20.746094 0 21.050781 -0.0742188 21.277344 -0.152344 C 21.621094 -0.226562 21.886719 -0.304688 22.074219 -0.53125 C 22.339844 -0.796875 22.605469 -1.519531 22.683594 -1.898438 C 22.796875 -2.242188 23.023438 -2.507812 23.140625 -2.851562 C 23.214844 -3.191406 23.328125 -3.535156 23.40625 -3.875 C 23.480469 -4.179688 23.519531 -4.558594 23.632812 -4.863281 C 23.707031 -5.207031 23.824219 -5.546875 23.9375 -5.890625 C 24.011719 -6.230469 23.976562 -6.574219 24.089844 -6.914062 C 24.164062 -7.257812 24.242188 -7.597656 24.316406 -7.941406 C 24.394531 -8.28125 24.46875 -8.625 24.542969 -8.929688 C 24.621094 -9.269531 24.734375 -9.613281 24.8125 -9.953125 C 24.886719 -10.296875 24.960938 -10.636719 25.039062 -10.980469 C 25.152344 -11.285156 25.34375 -11.625 25.417969 -11.96875 C 25.496094 -12.273438 25.53125 -12.652344 25.648438 -12.957031 C 25.722656 -13.296875 25.914062 -13.601562 25.988281 -13.945312 C 26.066406 -14.25 26.066406 -14.667969 26.179688 -15.085938 C 26.253906 -15.425781 26.367188 -15.769531 26.484375 -16.148438 C 26.558594 -16.527344 26.75 -16.871094 26.824219 -17.25 C 26.9375 -17.628906 26.9375 -18.007812 27.015625 -18.351562 C 27.128906 -18.769531 27.167969 -19.148438 27.203125 -19.453125 C 27.320312 -20.0625 27.167969 -20.214844 26.710938 -20.25 C 26.40625 -20.289062 26.027344 -20.289062 25.496094 -20.289062 C 25.113281 -20.289062 24.773438 -20.214844 24.46875 -20.175781 C 24.089844 -20.175781 23.746094 -20.25 23.441406 -20.136719 C 23.140625 -19.984375 22.949219 -19.71875 22.835938 -19.339844 C 22.722656 -19.035156 22.605469 -18.695312 22.53125 -18.3125 C 22.453125 -17.972656 22.378906 -17.589844 22.304688 -17.25 C 22.226562 -16.90625 22.226562 -16.527344 22.1875 -16.148438 C 22.113281 -15.804688 22.035156 -15.425781 21.960938 -15.085938 C 21.886719 -14.742188 21.808594 -14.363281 21.734375 -14.019531 C 21.65625 -13.679688 21.65625 -13.296875 21.542969 -12.957031 C 21.46875 -12.578125 21.316406 -12.234375 21.203125 -11.855469 C 21.125 -11.472656 21.011719 -11.09375 20.933594 -10.714844 C 20.820312 -10.335938 20.667969 -9.953125 20.59375 -9.613281 C 20.480469 -9.195312 20.367188 -8.851562 20.25 -8.472656 C 20.136719 -7.863281 19.949219 -7.523438 19.71875 -7.714844 C 19.605469 -7.828125 19.414062 -8.132812 19.300781 -8.699219 C 19.1875 -9.042969 19.148438 -9.421875 19.074219 -9.765625 C 18.960938 -10.105469 18.730469 -10.449219 18.65625 -10.789062 C 18.542969 -11.132812 18.503906 -11.511719 18.425781 -11.855469 C 18.3125 -12.195312 18.199219 -12.578125 18.125 -12.917969 C 18.007812 -13.261719 18.007812 -13.640625 17.894531 -13.980469 C 17.820312 -14.324219 17.667969 -14.667969 17.589844 -15.007812 C 17.476562 -15.386719 17.402344 -15.730469 17.289062 -16.070312 C 17.210938 -16.414062 17.171875 -16.792969 17.097656 -17.136719 C 16.984375 -17.515625 16.871094 -17.859375 16.753906 -18.160156 C 16.640625 -18.617188 16.566406 -18.996094 16.488281 -19.300781 C 16.335938 -19.679688 16.1875 -20.023438 15.730469 -20.175781 C 15.464844 -20.25 15.046875 -20.25 14.550781 -20.25 C 14.171875 -20.25 13.832031 -20.25 13.527344 -20.175781 C 13.183594 -20.136719 12.878906 -20.0625 12.652344 -19.757812 C 12.460938 -19.566406 12.273438 -19.300781 12.121094 -18.882812 C 12.007812 -18.617188 11.929688 -18.277344 11.816406 -17.894531 C 11.742188 -17.589844 11.703125 -17.210938 11.625 -16.871094 C 11.550781 -16.527344 11.398438 -16.222656 11.324219 -15.84375 C 11.246094 -15.539062 11.09375 -15.199219 11.019531 -14.855469 C 10.941406 -14.515625 10.90625 -14.171875 10.828125 -13.832031 C 10.753906 -13.488281 10.675781 -13.144531 10.601562 -12.804688 C 10.523438 -12.460938 10.488281 -12.082031 10.410156 -11.777344 C 10.335938 -11.398438 10.21875 -11.09375 10.144531 -10.753906 C 10.03125 -10.410156 10.03125 -10.070312 9.917969 -9.726562 C 9.839844 -9.382812 9.6875 -9.042969 9.574219 -8.738281 C 9.5 -8.359375 9.460938 -8.054688 9.382812 -7.863281 Z M 9.382812 -7.863281" transform="translate(135.78 299.25)"/></g></g></g><g fill="#045"><g><g><path d="M 6.992188 -15.917969 C 7.21875 -16.148438 7.523438 -16.222656 7.828125 -16.335938 C 8.132812 -16.414062 8.433594 -16.527344 8.777344 -16.527344 C 9.082031 -16.527344 9.421875 -16.527344 9.726562 -16.527344 C 10.144531 -16.488281 10.488281 -16.335938 10.828125 -16.222656 C 11.207031 -16.109375 11.589844 -15.996094 11.890625 -15.804688 C 12.234375 -15.652344 12.539062 -15.425781 12.878906 -15.199219 C 13.183594 -15.007812 13.527344 -14.816406 13.867188 -14.628906 C 14.210938 -14.398438 14.476562 -14.324219 14.742188 -14.324219 C 15.085938 -14.363281 15.3125 -14.476562 15.617188 -14.742188 C 15.804688 -14.96875 16.035156 -15.199219 16.261719 -15.464844 C 16.527344 -15.84375 16.679688 -16.261719 16.832031 -16.605469 C 17.023438 -17.097656 17.023438 -17.476562 16.71875 -17.742188 C 16.527344 -17.894531 16.300781 -18.160156 15.957031 -18.425781 C 15.691406 -18.578125 15.425781 -18.769531 15.085938 -18.960938 C 14.816406 -19.148438 14.515625 -19.261719 14.171875 -19.414062 C 13.867188 -19.53125 13.5625 -19.679688 13.222656 -19.796875 C 12.878906 -19.910156 12.578125 -19.984375 12.195312 -20.0625 C 11.890625 -20.136719 11.550781 -20.25 11.207031 -20.289062 C 10.867188 -20.328125 10.523438 -20.289062 10.144531 -20.328125 C 9.839844 -20.328125 9.5 -20.367188 9.117188 -20.328125 C 8.816406 -20.328125 8.433594 -20.25 8.09375 -20.214844 C 7.75 -20.136719 7.410156 -20.0625 7.066406 -19.984375 C 6.761719 -19.871094 6.421875 -19.71875 6.117188 -19.605469 C 5.8125 -19.453125 5.472656 -19.339844 5.167969 -19.148438 C 4.902344 -18.960938 4.597656 -18.769531 4.332031 -18.542969 C 4.066406 -18.351562 3.835938 -18.046875 3.609375 -17.78125 C 3.382812 -17.554688 3.191406 -17.25 3 -16.945312 C 2.8125 -16.679688 2.699219 -16.335938 2.582031 -15.996094 C 2.46875 -15.691406 2.394531 -15.351562 2.316406 -15.007812 C 2.28125 -14.667969 2.242188 -14.324219 2.242188 -13.980469 C 2.242188 -13.601562 2.28125 -13.222656 2.355469 -12.878906 C 2.433594 -12.539062 2.546875 -12.195312 2.734375 -11.855469 C 2.886719 -11.550781 3.078125 -11.246094 3.34375 -10.980469 C 3.570312 -10.675781 3.835938 -10.449219 4.140625 -10.21875 C 4.40625 -10.03125 4.710938 -9.800781 5.054688 -9.613281 C 5.355469 -9.460938 5.660156 -9.234375 6.042969 -9.082031 C 6.382812 -8.96875 6.726562 -8.890625 7.066406 -8.777344 C 7.410156 -8.664062 7.75 -8.511719 8.09375 -8.398438 C 8.433594 -8.246094 8.777344 -8.132812 9.117188 -8.015625 C 9.5 -7.863281 9.800781 -7.75 10.144531 -7.597656 C 10.488281 -7.484375 10.867188 -7.371094 11.171875 -7.21875 C 11.472656 -7.105469 11.777344 -6.953125 12.082031 -6.800781 C 12.425781 -6.6875 12.691406 -6.535156 12.957031 -6.34375 C 13.183594 -6.117188 13.375 -5.890625 13.449219 -5.546875 C 13.488281 -5.28125 13.449219 -4.976562 13.296875 -4.597656 C 13.144531 -4.292969 12.996094 -4.066406 12.726562 -3.875 C 12.5 -3.683594 12.195312 -3.570312 11.855469 -3.496094 C 11.589844 -3.417969 11.246094 -3.34375 10.90625 -3.34375 C 10.601562 -3.304688 10.296875 -3.34375 9.917969 -3.382812 C 9.574219 -3.382812 9.195312 -3.417969 8.816406 -3.535156 C 8.472656 -3.648438 8.167969 -3.875 7.828125 -4.066406 C 7.523438 -4.21875 7.144531 -4.371094 6.839844 -4.558594 C 6.535156 -4.789062 6.230469 -5.015625 5.925781 -5.242188 C 5.585938 -5.472656 5.320312 -5.738281 5.054688 -5.890625 C 4.671875 -6.15625 4.40625 -6.230469 4.101562 -6.15625 C 3.835938 -6.078125 3.609375 -5.8125 3.34375 -5.546875 C 3.117188 -5.355469 2.886719 -5.089844 2.660156 -4.863281 C 2.394531 -4.558594 2.164062 -4.332031 2.050781 -4.066406 C 1.898438 -3.761719 1.898438 -3.457031 2.015625 -3.117188 C 2.089844 -2.886719 2.28125 -2.621094 2.546875 -2.355469 C 2.699219 -2.203125 3.039062 -2.050781 3.417969 -1.746094 C 3.648438 -1.597656 3.875 -1.292969 4.21875 -1.101562 C 4.484375 -0.949219 4.824219 -0.835938 5.167969 -0.683594 C 5.472656 -0.53125 5.738281 -0.304688 6.078125 -0.191406 C 6.382812 -0.0390625 6.726562 0.0390625 7.066406 0.113281 C 7.410156 0.226562 7.75 0.265625 8.09375 0.304688 C 8.433594 0.378906 8.777344 0.378906 9.15625 0.417969 C 9.5 0.417969 9.839844 0.417969 10.183594 0.417969 C 10.523438 0.378906 10.867188 0.378906 11.207031 0.34375 C 11.550781 0.304688 11.890625 0.265625 12.234375 0.191406 C 12.578125 0.113281 12.878906 -0.0390625 13.222656 -0.152344 C 13.5625 -0.265625 13.90625 -0.304688 14.210938 -0.457031 C 14.515625 -0.609375 14.816406 -0.796875 15.121094 -0.988281 C 15.386719 -1.179688 15.691406 -1.328125 15.957031 -1.558594 C 16.222656 -1.785156 16.488281 -2.050781 16.679688 -2.316406 C 16.90625 -2.582031 17.097656 -2.886719 17.25 -3.191406 C 17.402344 -3.496094 17.515625 -3.800781 17.628906 -4.140625 C 17.707031 -4.484375 17.707031 -4.824219 17.742188 -5.207031 C 17.742188 -5.546875 17.707031 -5.890625 17.667969 -6.191406 C 17.589844 -6.574219 17.589844 -6.914062 17.476562 -7.21875 C 17.363281 -7.5625 17.210938 -7.863281 17.058594 -8.167969 C 16.90625 -8.472656 16.679688 -8.738281 16.453125 -9.003906 C 16.261719 -9.269531 16.070312 -9.535156 15.804688 -9.765625 C 15.578125 -9.992188 15.273438 -10.21875 15.007812 -10.410156 C 14.703125 -10.5625 14.398438 -10.714844 14.058594 -10.828125 C 13.753906 -10.980469 13.449219 -11.09375 13.109375 -11.171875 C 12.726562 -11.285156 12.386719 -11.4375 12.042969 -11.550781 C 11.664062 -11.664062 11.324219 -11.777344 10.980469 -11.890625 C 10.636719 -12.007812 10.257812 -12.121094 9.917969 -12.234375 C 9.652344 -12.347656 9.308594 -12.425781 9.003906 -12.539062 C 8.699219 -12.652344 8.433594 -12.804688 8.132812 -12.957031 C 7.828125 -13.070312 7.5625 -13.222656 7.296875 -13.414062 C 7.027344 -13.601562 6.800781 -13.832031 6.6875 -14.097656 C 6.535156 -14.363281 6.460938 -14.703125 6.535156 -15.046875 C 6.648438 -15.425781 6.800781 -15.691406 6.992188 -15.917969 Z M 6.992188 -15.917969" transform="translate(164.425 299.25)"/></g></g></g><g fill="#045"><g><g><path d="M 13.945312 0.0742188 C 14.324219 0 14.703125 -0.0742188 15.085938 -0.191406 C 15.464844 -0.265625 15.804688 -0.492188 16.1875 -0.644531 C 16.527344 -0.796875 16.90625 -0.875 17.25 -1.101562 C 17.589844 -1.292969 17.933594 -1.519531 18.238281 -1.746094 C 18.578125 -2.050781 18.769531 -2.394531 18.996094 -2.660156 C 19.261719 -3 19.53125 -3.304688 19.605469 -3.683594 C 19.679688 -4.027344 19.679688 -4.445312 19.492188 -4.863281 C 19.378906 -5.167969 19.074219 -5.433594 18.769531 -5.8125 C 18.464844 -6.191406 18.199219 -6.460938 17.859375 -6.496094 C 17.476562 -6.535156 17.136719 -6.269531 16.792969 -6.042969 C 16.453125 -5.851562 16.148438 -5.625 15.804688 -5.355469 C 15.503906 -5.089844 15.199219 -4.824219 14.855469 -4.636719 C 14.589844 -4.484375 14.25 -4.40625 13.90625 -4.292969 C 13.601562 -4.21875 13.261719 -4.101562 12.917969 -4.066406 C 12.613281 -4.027344 12.234375 -4.101562 11.929688 -4.101562 C 11.589844 -4.140625 11.246094 -4.179688 10.941406 -4.292969 C 10.601562 -4.371094 10.257812 -4.40625 9.953125 -4.558594 C 9.613281 -4.710938 9.347656 -4.976562 9.082031 -5.167969 C 8.777344 -5.394531 8.511719 -5.625 8.28125 -5.925781 C 8.054688 -6.191406 7.789062 -6.460938 7.636719 -6.800781 C 7.445312 -7.105469 7.296875 -7.445312 7.144531 -7.789062 C 7.027344 -8.132812 6.914062 -8.472656 6.800781 -8.816406 C 6.726562 -9.15625 6.726562 -9.535156 6.648438 -9.917969 C 6.609375 -10.257812 6.574219 -10.636719 6.574219 -10.980469 C 6.535156 -11.359375 6.421875 -11.703125 6.421875 -12.042969 C 6.421875 -12.425781 6.34375 -12.804688 6.34375 -13.144531 C 6.382812 -13.527344 6.460938 -13.90625 6.496094 -14.25 C 6.535156 -14.628906 6.535156 -15.007812 6.609375 -15.351562 C 6.6875 -15.730469 6.914062 -16.070312 7.027344 -16.414062 C 7.144531 -16.753906 7.257812 -17.097656 7.445312 -17.402344 C 7.636719 -17.742188 7.75 -18.125 8.015625 -18.390625 C 8.246094 -18.65625 8.550781 -18.882812 8.890625 -19.074219 C 9.15625 -19.261719 9.5 -19.492188 9.878906 -19.605469 C 10.183594 -19.71875 10.601562 -19.679688 10.980469 -19.71875 C 11.324219 -19.757812 11.625 -19.757812 11.96875 -19.71875 C 12.308594 -19.679688 12.613281 -19.644531 12.917969 -19.566406 C 13.261719 -19.453125 13.5625 -19.378906 13.867188 -19.226562 C 14.171875 -19.113281 14.476562 -18.921875 14.742188 -18.730469 C 15.007812 -18.542969 15.273438 -18.351562 15.539062 -18.125 C 15.917969 -17.820312 16.222656 -17.554688 16.527344 -17.402344 C 16.945312 -17.171875 17.324219 -17.210938 17.742188 -17.363281 C 18.007812 -17.476562 18.3125 -17.742188 18.695312 -18.085938 C 19.035156 -18.390625 19.378906 -18.578125 19.53125 -18.84375 C 19.71875 -19.113281 19.605469 -19.453125 19.492188 -19.910156 C 19.378906 -20.25 19.226562 -20.554688 19.035156 -20.820312 C 18.808594 -21.125 18.617188 -21.429688 18.390625 -21.65625 C 18.125 -21.921875 17.78125 -22.113281 17.476562 -22.339844 C 17.171875 -22.605469 16.945312 -22.910156 16.605469 -23.101562 C 16.300781 -23.289062 15.917969 -23.441406 15.578125 -23.59375 C 15.234375 -23.746094 14.855469 -23.785156 14.476562 -23.859375 C 14.132812 -23.976562 13.792969 -24.089844 13.449219 -24.164062 C 13.070312 -24.203125 12.726562 -24.164062 12.347656 -24.164062 C 12.007812 -24.203125 11.664062 -24.242188 11.324219 -24.242188 C 10.941406 -24.203125 10.601562 -24.242188 10.21875 -24.203125 C 9.878906 -24.164062 9.535156 -24.011719 9.195312 -23.9375 C 8.851562 -23.859375 8.511719 -23.746094 8.167969 -23.632812 C 7.828125 -23.480469 7.484375 -23.40625 7.179688 -23.214844 C 6.878906 -23.0625 6.609375 -22.796875 6.308594 -22.605469 C 6.042969 -22.378906 5.773438 -22.152344 5.507812 -21.921875 C 5.242188 -21.695312 4.976562 -21.46875 4.75 -21.203125 C 4.484375 -20.898438 4.292969 -20.59375 4.066406 -20.289062 C 3.875 -19.984375 3.648438 -19.679688 3.496094 -19.339844 C 3.34375 -18.996094 3.230469 -18.65625 3.117188 -18.277344 C 3 -17.933594 2.8125 -17.628906 2.699219 -17.25 C 2.582031 -16.90625 2.546875 -16.527344 2.46875 -16.148438 C 2.355469 -15.804688 2.28125 -15.425781 2.242188 -15.085938 C 2.164062 -14.703125 2.164062 -14.324219 2.128906 -13.945312 C 2.089844 -13.5625 2.050781 -13.222656 2.050781 -12.84375 C 2.015625 -12.460938 2.050781 -12.082031 2.050781 -11.742188 C 2.050781 -11.359375 2.050781 -11.019531 2.050781 -10.636719 C 2.089844 -10.296875 2.164062 -9.953125 2.203125 -9.613281 C 2.28125 -9.234375 2.242188 -8.890625 2.316406 -8.511719 C 2.433594 -8.167969 2.582031 -7.863281 2.699219 -7.523438 C 2.773438 -7.144531 2.886719 -6.839844 3.039062 -6.496094 C 3.152344 -6.15625 3.230469 -5.8125 3.382812 -5.472656 C 3.535156 -5.167969 3.761719 -4.863281 3.914062 -4.558594 C 4.101562 -4.21875 4.21875 -3.875 4.40625 -3.570312 C 4.597656 -3.304688 4.789062 -2.964844 5.015625 -2.699219 C 5.207031 -2.394531 5.507812 -2.203125 5.773438 -1.9375 C 6.042969 -1.710938 6.269531 -1.40625 6.574219 -1.214844 C 6.839844 -0.988281 7.179688 -0.835938 7.484375 -0.683594 C 7.828125 -0.492188 8.167969 -0.417969 8.511719 -0.304688 C 8.851562 -0.191406 9.195312 -0.113281 9.574219 -0.0390625 C 9.917969 0 10.257812 0.113281 10.601562 0.152344 C 10.980469 0.191406 11.324219 0.265625 11.703125 0.265625 C 12.042969 0.265625 12.386719 0.152344 12.765625 0.113281 C 13.144531 0.113281 13.527344 0.113281 13.945312 0.0742188 Z M 13.945312 0.0742188" transform="translate(184.105 299.25)"/></g></g></g><g fill="#045"><g><g><path d="M 2.851562 -14.589844 C 2.851562 -14.25 2.8125 -13.867188 2.773438 -13.488281 C 2.773438 -13.144531 2.851562 -12.804688 2.851562 -12.425781 C 2.851562 -12.082031 2.851562 -11.742188 2.851562 -11.359375 C 2.851562 -11.019531 2.8125 -10.636719 2.8125 -10.296875 C 2.8125 -9.917969 2.8125 -9.574219 2.8125 -9.195312 C 2.8125 -8.851562 2.734375 -8.472656 2.734375 -8.132812 C 2.734375 -7.789062 2.773438 -7.410156 2.773438 -7.066406 C 2.773438 -6.6875 2.699219 -6.34375 2.734375 -6.003906 C 2.734375 -5.625 2.734375 -5.28125 2.734375 -4.9375 C 2.734375 -4.519531 2.734375 -4.179688 2.773438 -3.875 C 2.773438 -3.570312 2.8125 -3.191406 2.8125 -2.773438 C 2.8125 -2.433594 2.773438 -2.050781 2.773438 -1.710938 C 2.773438 -1.292969 2.773438 -0.910156 2.773438 -0.609375 C 2.773438 -0.265625 3.039062 0.0390625 3.382812 0.0390625 C 3.683594 0.0390625 4.066406 0 4.484375 0 C 4.824219 0 5.207031 0.0742188 5.546875 0.0742188 C 5.964844 0.0742188 6.308594 0 6.648438 0 C 6.992188 0 7.332031 0 7.714844 0.0390625 C 8.054688 0.0390625 8.398438 0.0742188 8.738281 0.0742188 C 9.082031 0.0742188 9.460938 0.0390625 9.800781 0.0390625 C 10.144531 0.0390625 10.488281 0.0742188 10.828125 0.0742188 C 11.207031 0.0742188 11.550781 0.0742188 11.890625 0.0742188 C 12.234375 0.0390625 12.578125 -0.0390625 12.957031 -0.0390625 C 13.296875 -0.0390625 13.640625 0 13.980469 0 C 14.363281 -0.0390625 14.628906 -0.0390625 14.855469 -0.0390625 C 15.160156 -0.0390625 15.425781 -0.0742188 15.691406 -0.152344 C 15.917969 -0.191406 16.1875 -0.265625 16.527344 -0.417969 C 16.753906 -0.53125 16.90625 -0.796875 16.945312 -1.101562 C 16.984375 -1.40625 17.023438 -1.746094 17.023438 -1.976562 C 16.984375 -2.242188 16.945312 -2.621094 16.945312 -3 C 16.945312 -3.417969 16.945312 -3.835938 16.679688 -3.953125 C 16.335938 -4.101562 15.957031 -4.140625 15.539062 -4.179688 C 15.160156 -4.21875 14.742188 -4.21875 14.363281 -4.21875 C 14.019531 -4.21875 13.679688 -4.253906 13.414062 -4.253906 C 13.03125 -4.21875 12.726562 -4.21875 12.425781 -4.179688 C 12.082031 -4.179688 11.777344 -4.179688 11.4375 -4.140625 C 11.132812 -4.140625 10.828125 -4.066406 10.449219 -4.101562 C 10.144531 -4.101562 9.839844 -4.140625 9.5 -4.140625 C 9.195312 -4.140625 8.890625 -4.066406 8.585938 -4.066406 C 8.246094 -4.066406 7.902344 -4.140625 7.636719 -4.179688 C 7.105469 -4.179688 6.992188 -3.800781 6.726562 -4.179688 C 6.382812 -4.636719 6.761719 -4.671875 6.800781 -5.320312 C 6.839844 -5.699219 6.761719 -6.078125 6.800781 -6.496094 C 6.800781 -6.914062 6.839844 -7.296875 6.839844 -7.675781 C 6.878906 -8.054688 6.839844 -8.359375 6.839844 -8.664062 C 6.839844 -9.003906 6.953125 -9.347656 6.953125 -9.652344 C 6.953125 -9.992188 6.878906 -10.296875 6.878906 -10.601562 C 6.878906 -10.941406 6.953125 -11.246094 6.953125 -11.550781 C 6.992188 -11.890625 6.992188 -12.195312 7.027344 -12.539062 C 7.027344 -12.84375 6.992188 -13.144531 6.992188 -13.488281 C 7.027344 -13.792969 7.027344 -14.132812 7.027344 -14.476562 C 7.066406 -14.78125 7.066406 -15.085938 7.066406 -15.464844 C 7.066406 -15.769531 7.027344 -16.070312 7.027344 -16.453125 C 7.027344 -16.753906 7.105469 -17.058594 7.105469 -17.363281 C 7.105469 -17.667969 7.105469 -17.972656 7.144531 -18.277344 C 7.144531 -18.578125 7.027344 -18.882812 7.027344 -19.1875 C 7.027344 -19.492188 6.800781 -19.679688 6.496094 -19.796875 C 6.230469 -19.910156 5.964844 -20.023438 5.660156 -20.0625 C 5.28125 -20.097656 4.9375 -20.023438 4.75 -19.984375 C 4.484375 -19.949219 3.988281 -20.023438 3.570312 -19.871094 C 3.191406 -19.796875 2.925781 -19.605469 2.886719 -19.074219 C 2.886719 -18.730469 2.851562 -18.3125 2.851562 -17.933594 C 2.851562 -17.554688 2.851562 -17.171875 2.886719 -16.792969 C 2.886719 -16.375 2.851562 -15.996094 2.8125 -15.652344 C 2.8125 -15.351562 2.851562 -14.96875 2.851562 -14.589844 Z M 2.851562 -14.589844" transform="translate(205.495 299.25)"/></g></g></g><g fill="#045"><g><g><path d="M 20.214844 -11.703125 C 20.175781 -12.082031 20.097656 -12.425781 20.0625 -12.765625 C 19.984375 -13.109375 19.984375 -13.488281 19.871094 -13.832031 C 19.757812 -14.171875 19.566406 -14.515625 19.453125 -14.855469 C 19.339844 -15.234375 19.226562 -15.578125 19.074219 -15.917969 C 18.960938 -16.261719 18.769531 -16.605469 18.617188 -16.90625 C 18.425781 -17.25 18.199219 -17.554688 17.972656 -17.859375 C 17.742188 -18.125 17.476562 -18.390625 17.171875 -18.65625 C 16.90625 -18.84375 16.605469 -19.074219 16.261719 -19.261719 C 15.917969 -19.414062 15.652344 -19.644531 15.273438 -19.796875 C 14.933594 -19.910156 14.550781 -19.949219 14.210938 -20.0625 C 13.832031 -20.136719 13.488281 -20.214844 13.109375 -20.25 C 12.726562 -20.328125 12.386719 -20.480469 12.007812 -20.480469 C 11.625 -20.515625 11.246094 -20.480469 10.867188 -20.480469 C 10.523438 -20.441406 10.144531 -20.441406 9.765625 -20.402344 C 9.382812 -20.328125 9.042969 -20.214844 8.664062 -20.136719 C 8.320312 -20.0625 7.980469 -19.949219 7.597656 -19.832031 C 7.257812 -19.71875 6.914062 -19.605469 6.574219 -19.453125 C 6.230469 -19.300781 5.890625 -19.148438 5.585938 -18.960938 C 5.242188 -18.730469 5.015625 -18.425781 4.75 -18.199219 C 4.445312 -17.933594 4.21875 -17.667969 3.988281 -17.363281 C 3.761719 -17.097656 3.535156 -16.792969 3.34375 -16.453125 C 3.191406 -16.148438 3.039062 -15.804688 2.925781 -15.425781 C 2.8125 -15.085938 2.734375 -14.703125 2.621094 -14.324219 C 2.507812 -13.945312 2.394531 -13.5625 2.316406 -13.222656 C 2.242188 -12.84375 2.203125 -12.460938 2.164062 -12.082031 C 2.089844 -11.664062 1.976562 -11.324219 1.976562 -10.90625 C 1.9375 -10.523438 2.015625 -10.144531 2.015625 -9.765625 C 2.015625 -9.382812 2.015625 -9.003906 2.050781 -8.585938 C 2.089844 -8.207031 2.164062 -7.828125 2.242188 -7.445312 C 2.316406 -7.066406 2.394531 -6.6875 2.46875 -6.34375 C 2.582031 -5.964844 2.734375 -5.625 2.886719 -5.28125 C 3 -4.9375 3.152344 -4.558594 3.34375 -4.253906 C 3.496094 -3.914062 3.683594 -3.570312 3.875 -3.265625 C 4.101562 -2.964844 4.371094 -2.660156 4.597656 -2.394531 C 4.863281 -2.089844 5.128906 -1.824219 5.394531 -1.597656 C 5.699219 -1.328125 6.003906 -1.140625 6.34375 -0.949219 C 6.648438 -0.722656 6.992188 -0.570312 7.332031 -0.417969 C 7.675781 -0.226562 8.015625 -0.113281 8.359375 0 C 8.738281 0.113281 9.117188 0.191406 9.460938 0.265625 C 9.839844 0.34375 10.21875 0.378906 10.601562 0.417969 C 10.980469 0.417969 11.359375 0.417969 11.703125 0.378906 C 12.082031 0.378906 12.460938 0.304688 12.84375 0.226562 C 13.222656 0.152344 13.5625 0.113281 13.945312 0 C 14.285156 -0.113281 14.667969 -0.191406 15.007812 -0.378906 C 15.351562 -0.53125 15.652344 -0.761719 15.996094 -0.988281 C 16.300781 -1.179688 16.605469 -1.40625 16.871094 -1.671875 C 17.136719 -1.9375 17.402344 -2.203125 17.667969 -2.507812 C 17.894531 -2.773438 18.085938 -3.078125 18.3125 -3.382812 C 18.503906 -3.683594 18.695312 -4.027344 18.84375 -4.332031 C 19.035156 -4.636719 19.226562 -4.976562 19.378906 -5.28125 C 19.492188 -5.625 19.644531 -5.964844 19.757812 -6.308594 C 19.871094 -6.648438 19.949219 -7.027344 19.984375 -7.371094 C 20.0625 -7.75 20.136719 -8.09375 20.175781 -8.472656 C 20.25 -8.816406 20.25 -9.195312 20.25 -9.574219 C 20.25 -9.917969 20.25 -10.296875 20.25 -10.636719 C 20.214844 -11.019531 20.214844 -11.359375 20.214844 -11.703125 Z M 6.496094 -11.207031 C 6.535156 -11.664062 6.574219 -12.082031 6.648438 -12.5 C 6.6875 -12.957031 6.839844 -13.375 6.953125 -13.792969 C 7.066406 -14.132812 7.144531 -14.476562 7.332031 -14.78125 C 7.5625 -15.085938 7.828125 -15.351562 8.09375 -15.578125 C 8.359375 -15.804688 8.664062 -16.035156 8.96875 -16.222656 C 9.308594 -16.375 9.652344 -16.488281 9.992188 -16.605469 C 10.335938 -16.679688 10.675781 -16.753906 11.054688 -16.792969 C 11.398438 -16.792969 11.742188 -16.71875 12.082031 -16.640625 C 12.425781 -16.527344 12.726562 -16.375 13.070312 -16.222656 C 13.375 -16.035156 13.679688 -15.84375 13.90625 -15.617188 C 14.171875 -15.386719 14.398438 -15.085938 14.589844 -14.78125 C 14.78125 -14.515625 14.96875 -14.210938 15.085938 -13.867188 C 15.199219 -13.527344 15.351562 -13.144531 15.425781 -12.804688 C 15.539062 -12.425781 15.617188 -12.082031 15.652344 -11.703125 C 15.730469 -11.359375 15.769531 -10.980469 15.769531 -10.601562 C 15.804688 -10.21875 15.804688 -9.839844 15.769531 -9.5 C 15.730469 -9.117188 15.730469 -8.738281 15.652344 -8.359375 C 15.578125 -8.015625 15.503906 -7.636719 15.386719 -7.296875 C 15.273438 -6.953125 15.121094 -6.609375 14.96875 -6.269531 C 14.78125 -5.8125 14.515625 -5.507812 14.285156 -5.167969 C 13.980469 -4.824219 13.714844 -4.484375 13.375 -4.253906 C 13.03125 -4.027344 12.613281 -3.835938 12.195312 -3.722656 C 11.816406 -3.648438 11.398438 -3.609375 10.941406 -3.609375 C 10.5625 -3.648438 10.21875 -3.722656 9.917969 -3.800781 C 9.535156 -3.914062 9.234375 -4.027344 8.929688 -4.21875 C 8.625 -4.40625 8.398438 -4.636719 8.167969 -4.902344 C 7.941406 -5.167969 7.75 -5.472656 7.597656 -5.773438 C 7.410156 -6.078125 7.257812 -6.382812 7.144531 -6.726562 C 7.027344 -7.066406 6.953125 -7.410156 6.839844 -7.789062 C 6.761719 -8.132812 6.6875 -8.511719 6.609375 -8.851562 C 6.535156 -9.234375 6.496094 -9.574219 6.421875 -9.917969 C 6.460938 -10.371094 6.460938 -10.789062 6.496094 -11.207031 Z M 6.496094 -11.207031" transform="translate(223.617 299.25)"/></g></g></g><g fill="#045"><g><g><path d="M 2.621094 -15.578125 C 2.621094 -15.234375 2.546875 -14.894531 2.546875 -14.515625 C 2.546875 -14.171875 2.582031 -13.832031 2.582031 -13.488281 C 2.582031 -13.144531 2.582031 -12.765625 2.582031 -12.425781 C 2.582031 -12.082031 2.582031 -11.742188 2.582031 -11.359375 C 2.582031 -11.019531 2.582031 -10.675781 2.582031 -10.335938 C 2.582031 -9.953125 2.621094 -9.613281 2.621094 -9.308594 C 2.621094 -8.929688 2.546875 -8.550781 2.546875 -8.246094 C 2.546875 -7.828125 2.546875 -7.484375 2.546875 -7.21875 C 2.507812 -6.839844 2.546875 -6.496094 2.582031 -6.15625 C 2.621094 -5.8125 2.660156 -5.433594 2.699219 -5.089844 C 2.773438 -4.75 2.886719 -4.40625 3 -4.101562 C 3.117188 -3.761719 3.230469 -3.417969 3.382812 -3.117188 C 3.535156 -2.773438 3.761719 -2.507812 3.988281 -2.242188 C 4.179688 -1.976562 4.40625 -1.671875 4.671875 -1.445312 C 4.902344 -1.179688 5.207031 -1.027344 5.507812 -0.835938 C 5.8125 -0.644531 6.078125 -0.417969 6.421875 -0.265625 C 6.726562 -0.113281 7.066406 -0.0742188 7.410156 0.0390625 C 7.714844 0.152344 8.054688 0.226562 8.359375 0.304688 C 8.699219 0.378906 9.042969 0.457031 9.382812 0.492188 C 9.726562 0.53125 10.070312 0.609375 10.371094 0.609375 C 10.714844 0.609375 11.054688 0.570312 11.398438 0.53125 C 11.742188 0.53125 12.082031 0.492188 12.425781 0.417969 C 12.765625 0.34375 13.109375 0.265625 13.414062 0.152344 C 13.714844 0.0390625 14.019531 -0.152344 14.324219 -0.304688 C 14.628906 -0.457031 14.933594 -0.609375 15.199219 -0.796875 C 15.503906 -0.988281 15.691406 -1.292969 15.957031 -1.519531 C 16.1875 -1.746094 16.488281 -1.9375 16.71875 -2.203125 C 16.90625 -2.46875 17.023438 -2.8125 17.210938 -3.117188 C 17.363281 -3.382812 17.589844 -3.683594 17.707031 -3.988281 C 17.820312 -4.292969 17.894531 -4.636719 17.972656 -4.976562 C 18.046875 -5.320312 18.085938 -5.660156 18.125 -6.003906 C 18.160156 -6.34375 18.160156 -6.6875 18.160156 -7.027344 C 18.160156 -7.371094 18.160156 -7.714844 18.160156 -8.015625 C 18.160156 -8.398438 18.160156 -8.738281 18.160156 -9.042969 C 18.160156 -9.382812 18.199219 -9.726562 18.199219 -10.03125 C 18.199219 -10.410156 18.125 -10.714844 18.160156 -11.019531 C 18.160156 -11.398438 18.238281 -11.742188 18.238281 -12.007812 C 18.238281 -12.386719 18.199219 -12.726562 18.199219 -13.03125 C 18.238281 -13.375 18.277344 -13.679688 18.277344 -14.019531 C 18.277344 -14.324219 18.3125 -14.628906 18.3125 -15.007812 C 18.3125 -15.3125 18.277344 -15.617188 18.277344 -15.996094 C 18.277344 -16.300781 18.277344 -16.640625 18.277344 -17.023438 C 18.277344 -17.289062 18.238281 -17.628906 18.238281 -18.007812 C 18.277344 -18.351562 18.238281 -18.730469 18.160156 -18.996094 C 18.085938 -19.378906 17.894531 -19.644531 17.628906 -19.796875 C 17.324219 -19.949219 16.984375 -19.984375 16.605469 -20.023438 C 16.261719 -20.0625 15.917969 -19.984375 15.578125 -19.984375 C 15.085938 -19.984375 14.703125 -20.023438 14.398438 -19.910156 C 14.058594 -19.796875 13.832031 -19.53125 13.792969 -18.996094 C 13.753906 -18.769531 13.792969 -18.425781 13.792969 -18.125 C 13.832031 -17.820312 13.832031 -17.515625 13.832031 -17.210938 C 13.867188 -16.871094 13.832031 -16.566406 13.832031 -16.300781 C 13.867188 -15.957031 13.867188 -15.617188 13.867188 -15.3125 C 13.90625 -14.96875 13.980469 -14.667969 13.980469 -14.363281 C 13.980469 -14.019531 14.058594 -13.714844 14.058594 -13.414062 C 14.097656 -13.070312 14.058594 -12.726562 14.058594 -12.425781 C 14.097656 -12.082031 14.097656 -11.777344 14.132812 -11.472656 C 14.132812 -11.132812 14.132812 -10.828125 14.132812 -10.488281 C 14.132812 -10.183594 14.210938 -9.839844 14.210938 -9.5 C 14.210938 -9.195312 14.171875 -8.890625 14.171875 -8.550781 C 14.171875 -8.246094 14.210938 -7.902344 14.210938 -7.5625 C 14.210938 -7.179688 14.058594 -6.878906 14.019531 -6.535156 C 13.980469 -6.191406 13.867188 -5.851562 13.753906 -5.546875 C 13.640625 -5.207031 13.527344 -4.902344 13.296875 -4.636719 C 13.109375 -4.371094 12.84375 -4.140625 12.539062 -3.988281 C 12.273438 -3.800781 11.96875 -3.609375 11.625 -3.535156 C 11.324219 -3.457031 10.941406 -3.382812 10.601562 -3.417969 C 10.21875 -3.382812 9.839844 -3.417969 9.5 -3.496094 C 9.15625 -3.609375 8.816406 -3.761719 8.550781 -3.953125 C 8.246094 -4.140625 7.980469 -4.40625 7.75 -4.671875 C 7.5625 -4.9375 7.445312 -5.28125 7.296875 -5.625 C 7.144531 -5.964844 7.027344 -6.269531 6.953125 -6.609375 C 6.878906 -6.953125 6.914062 -7.332031 6.914062 -7.675781 C 6.878906 -8.054688 6.800781 -8.359375 6.800781 -8.664062 C 6.800781 -9.003906 6.800781 -9.347656 6.800781 -9.613281 C 6.800781 -9.992188 6.878906 -10.296875 6.878906 -10.601562 C 6.914062 -10.90625 6.878906 -11.207031 6.878906 -11.550781 C 6.878906 -11.855469 6.878906 -12.160156 6.878906 -12.539062 C 6.878906 -12.84375 6.914062 -13.144531 6.914062 -13.527344 C 6.914062 -13.832031 6.953125 -14.171875 6.953125 -14.550781 C 6.914062 -14.894531 6.878906 -15.234375 6.878906 -15.578125 C 6.878906 -15.917969 6.953125 -16.300781 6.953125 -16.640625 C 6.953125 -16.984375 6.914062 -17.324219 6.878906 -17.667969 C 6.878906 -18.007812 6.914062 -18.390625 6.914062 -18.695312 C 6.914062 -19.113281 6.839844 -19.414062 6.726562 -19.605469 C 6.535156 -19.871094 6.269531 -19.949219 5.890625 -19.984375 C 5.625 -20.023438 5.320312 -20.0625 4.9375 -20.023438 C 4.597656 -20.023438 4.253906 -20.097656 3.988281 -20.097656 C 3.609375 -20.097656 3.34375 -19.984375 3.078125 -19.832031 C 2.886719 -19.679688 2.699219 -19.492188 2.621094 -19.074219 C 2.582031 -18.808594 2.582031 -18.3125 2.621094 -17.859375 C 2.621094 -17.363281 2.582031 -16.871094 2.582031 -16.605469 C 2.582031 -16.300781 2.621094 -15.957031 2.621094 -15.578125 Z M 2.621094 -15.578125" transform="translate(245.919 299.25)"/></g></g></g><g fill="#045"><g><g><path d="M 2.734375 -16.035156 C 2.734375 -15.730469 2.699219 -15.386719 2.699219 -15.007812 C 2.699219 -14.667969 2.699219 -14.324219 2.699219 -13.945312 C 2.699219 -13.640625 2.734375 -13.296875 2.734375 -12.917969 C 2.734375 -12.578125 2.773438 -12.234375 2.773438 -11.890625 C 2.773438 -11.550781 2.660156 -11.207031 2.699219 -10.867188 C 2.699219 -10.523438 2.773438 -10.144531 2.773438 -9.800781 C 2.773438 -9.460938 2.734375 -9.117188 2.734375 -8.777344 C 2.734375 -8.433594 2.8125 -8.09375 2.8125 -7.75 C 2.8125 -7.410156 2.699219 -7.066406 2.699219 -6.726562 C 2.699219 -6.382812 2.773438 -6.003906 2.773438 -5.699219 C 2.773438 -5.320312 2.734375 -4.976562 2.734375 -4.671875 C 2.734375 -4.292969 2.773438 -3.953125 2.773438 -3.648438 C 2.773438 -3.230469 2.773438 -2.886719 2.773438 -2.621094 C 2.773438 -2.203125 2.8125 -1.824219 2.886719 -1.519531 C 2.964844 -1.0625 3.078125 -0.722656 3.265625 -0.53125 C 3.496094 -0.304688 3.835938 -0.265625 4.292969 -0.191406 C 4.597656 -0.152344 4.9375 -0.0390625 5.355469 -0.0390625 C 5.699219 0 6.042969 -0.0742188 6.460938 -0.0390625 C 6.726562 -0.0390625 7.066406 0.0390625 7.410156 0.0390625 C 7.714844 0.0390625 8.054688 0.0390625 8.398438 0.0742188 C 8.699219 0.0742188 9.042969 0.0390625 9.347656 0.0390625 C 9.6875 0.0742188 10.03125 0.0390625 10.296875 0.0390625 C 10.675781 0 11.019531 -0.0390625 11.359375 -0.113281 C 11.703125 -0.152344 12.082031 -0.113281 12.425781 -0.226562 C 12.765625 -0.304688 13.070312 -0.53125 13.375 -0.644531 C 13.714844 -0.761719 14.019531 -0.910156 14.363281 -1.0625 C 14.667969 -1.214844 15.007812 -1.292969 15.3125 -1.480469 C 15.617188 -1.671875 15.84375 -1.976562 16.109375 -2.164062 C 16.375 -2.433594 16.640625 -2.621094 16.90625 -2.886719 C 17.136719 -3.152344 17.363281 -3.417969 17.554688 -3.722656 C 17.742188 -4.027344 17.894531 -4.332031 18.046875 -4.671875 C 18.160156 -4.976562 18.238281 -5.320312 18.351562 -5.625 C 18.464844 -5.964844 18.65625 -6.269531 18.730469 -6.609375 C 18.84375 -6.953125 18.882812 -7.257812 18.960938 -7.597656 C 19.035156 -7.941406 19.035156 -8.28125 19.074219 -8.625 C 19.074219 -8.96875 19.113281 -9.308594 19.113281 -9.652344 C 19.113281 -9.992188 19.1875 -10.335938 19.148438 -10.675781 C 19.148438 -11.019531 19.074219 -11.359375 19.035156 -11.703125 C 18.996094 -12.042969 18.921875 -12.386719 18.84375 -12.726562 C 18.769531 -13.070312 18.65625 -13.375 18.578125 -13.714844 C 18.464844 -14.058594 18.425781 -14.398438 18.3125 -14.703125 C 18.199219 -15.085938 18.125 -15.425781 17.972656 -15.769531 C 17.820312 -16.109375 17.589844 -16.414062 17.441406 -16.71875 C 17.25 -17.023438 16.984375 -17.289062 16.753906 -17.589844 C 16.527344 -17.859375 16.300781 -18.125 16.035156 -18.390625 C 15.769531 -18.617188 15.464844 -18.808594 15.160156 -18.996094 C 14.816406 -19.1875 14.550781 -19.414062 14.210938 -19.566406 C 13.867188 -19.679688 13.488281 -19.644531 13.109375 -19.71875 C 12.84375 -19.757812 12.5 -19.871094 12.160156 -19.871094 C 11.855469 -19.910156 11.511719 -19.910156 11.171875 -19.910156 C 10.867188 -19.949219 10.523438 -19.984375 10.183594 -19.984375 C 9.878906 -19.984375 9.535156 -19.949219 9.234375 -19.949219 C 8.890625 -19.984375 8.550781 -19.984375 8.246094 -19.984375 C 7.902344 -19.984375 7.5625 -20.023438 7.257812 -20.023438 C 6.914062 -19.984375 6.574219 -19.949219 6.269531 -19.949219 C 5.925781 -19.949219 5.585938 -19.949219 5.320312 -19.949219 C 4.902344 -19.910156 4.519531 -19.871094 4.21875 -19.757812 C 3.875 -19.605469 3.570312 -19.378906 3.382812 -19.113281 C 3.152344 -18.84375 2.964844 -18.542969 2.851562 -18.160156 C 2.773438 -17.820312 2.8125 -17.441406 2.773438 -17.058594 C 2.773438 -16.792969 2.734375 -16.453125 2.734375 -16.035156 Z M 6.761719 -5.355469 C 6.761719 -5.699219 6.6875 -6.042969 6.6875 -6.382812 C 6.6875 -6.726562 6.6875 -7.066406 6.6875 -7.410156 C 6.6875 -7.714844 6.726562 -8.054688 6.726562 -8.398438 C 6.726562 -8.738281 6.6875 -9.082031 6.726562 -9.421875 C 6.726562 -9.765625 6.648438 -10.105469 6.648438 -10.449219 C 6.648438 -10.753906 6.726562 -11.09375 6.726562 -11.4375 C 6.761719 -11.777344 6.726562 -12.121094 6.726562 -12.425781 C 6.726562 -12.765625 6.648438 -13.109375 6.648438 -13.449219 C 6.648438 -13.792969 6.648438 -14.097656 6.648438 -14.4375 C 6.648438 -14.78125 6.6875 -15.121094 6.6875 -15.464844 C 6.648438 -16.148438 6.878906 -16.261719 7.332031 -16.261719 C 7.636719 -16.261719 8.054688 -16.1875 8.585938 -16.1875 C 8.929688 -16.222656 9.308594 -16.261719 9.652344 -16.222656 C 9.992188 -16.1875 10.371094 -16.070312 10.714844 -15.957031 C 11.054688 -15.882812 11.359375 -15.730469 11.703125 -15.578125 C 12.007812 -15.425781 12.347656 -15.3125 12.652344 -15.121094 C 12.957031 -14.933594 13.261719 -14.703125 13.527344 -14.476562 C 13.753906 -14.210938 13.980469 -13.945312 14.210938 -13.640625 C 14.398438 -13.335938 14.589844 -13.03125 14.703125 -12.691406 C 14.816406 -12.347656 14.78125 -11.96875 14.816406 -11.625 C 14.855469 -11.324219 14.96875 -10.980469 14.96875 -10.675781 C 14.96875 -10.371094 14.894531 -10.03125 14.894531 -9.726562 C 14.894531 -9.382812 14.894531 -9.082031 14.894531 -8.777344 C 14.855469 -8.398438 14.78125 -8.054688 14.703125 -7.714844 C 14.628906 -7.332031 14.550781 -6.992188 14.398438 -6.6875 C 14.25 -6.34375 14.058594 -6.078125 13.832031 -5.8125 C 13.5625 -5.546875 13.296875 -5.355469 12.996094 -5.128906 C 12.691406 -4.9375 12.386719 -4.75 12.042969 -4.636719 C 11.742188 -4.484375 11.398438 -4.40625 11.019531 -4.332031 C 10.675781 -4.292969 10.335938 -4.253906 9.953125 -4.21875 C 9.613281 -4.179688 9.269531 -4.140625 8.890625 -4.140625 C 8.550781 -4.140625 8.207031 -4.21875 7.828125 -4.253906 C 7.484375 -4.292969 7.105469 -4.253906 6.726562 -4.332031 C 6.726562 -4.671875 6.800781 -5.015625 6.761719 -5.355469 Z M 6.761719 -5.355469" transform="translate(266.777 299.25)"/></g></g></g></svg>