<?xml version="1.0" encoding="UTF-8"?>
<svg id="Camada_2" xmlns="http://www.w3.org/2000/svg" viewBox="0 0 597.35 194.98">
  <defs>
    <style>
      .cls-1 {
        fill: #009fe3;
      }

      .cls-1, .cls-2 {
        fill-rule: evenodd;
      }

      .cls-2 {
        fill: #1d1d1b;
      }
    </style>
  </defs>
  <g id="Layer_1">
    <path class="cls-1" d="M489.42,29.54l16.13-27.93,16.12,27.93h-32.25ZM527.26,29.54l16.12-27.93,16.13,27.93h-32.25ZM470.5,62.31l16.13-27.93,16.13,27.93h-32.25ZM546.18,62.31l16.13-27.93,16.13,27.93h-32.25ZM508.34,62.31l16.13-27.93,16.13,27.93h-32.25ZM527.26,95.08l16.12-27.93,16.13,27.93h-32.25ZM597.35,32.77l-16.12,27.93-16.13-27.93h32.25ZM540.59,0l-16.13,27.93L508.34,0h32.25ZM559.52,32.77l-16.13,27.93-16.13-27.93s32.25,0,32.25,0h0ZM521.68,32.77l-16.12,27.93-16.13-27.93s32.25,0,32.25,0h0ZM540.59,65.54l-16.13,27.93-16.13-27.93s32.25,0,32.25,0h0ZM578.44,65.54l-16.13,27.93-16.13-27.93s32.25,0,32.25,0h0Z"/>
    <path class="cls-2" d="M96.63,157.02V62.34h24.82v11.24c3.57-4.58,7.73-8.03,12.54-10.32,4.82-2.29,10.2-3.45,16.11-3.45,10.46,0,18.29,2.71,23.49,8.15,5.2,5.44,7.79,13.58,7.79,24.52v64.54h-25.36v-57.22c0-6.81-1.16-11.66-3.45-14.54-2.29-2.91-6-4.37-11.18-4.37-5.98,0-10.7,1.78-14.18,5.35-3.48,3.57-5.23,8.44-5.23,14.6v56.18h-25.36ZM252.48,128.28h25.27c-2.56,9.99-7.71,17.79-15.46,23.45-7.76,5.66-17.21,8.5-28.36,8.5-13.7,0-24.57-4.6-32.58-13.8-8.01-9.2-12.01-21.67-12.01-37.43s3.95-27.71,11.83-36.65c7.9-8.95,18.7-13.41,32.4-13.41,14.53,0,25.75,4.39,33.65,13.2,7.89,8.79,11.83,21.31,11.83,37.57,0,1.81,0,3.15-.03,4.07-.03.89-.12,1.75-.24,2.56h-63.22c.35,7.43,2.17,13.02,5.43,16.79,3.27,3.77,8,5.65,14.15,5.65,4.37,0,7.94-.86,10.7-2.56,2.79-1.72,4.99-4.37,6.63-7.96h0ZM215.57,99.71h37.27c-.24-6.39-1.92-11.25-5.08-14.6-3.16-3.34-7.73-5-13.64-5-5.5,0-9.85,1.69-13.02,5.05-3.16,3.35-4.99,8.2-5.52,14.54h0ZM311.02,128.28c.59,3.76,2.26,6.65,5.03,8.65,3.24,2.34,8.11,3.54,14.62,3.54,4.94,0,8.76-.84,11.47-2.5,2.7-1.65,4.04-3.98,4.04-7.02,0-4.28-5.05-7.53-15.16-9.66-4.13-.87-7.4-1.64-9.84-2.26-12.33-3.15-20.86-6.84-25.66-11.15-4.78-4.29-7.19-10.11-7.19-17.42,0-9.69,3.52-17.35,10.49-23.01,6.99-5.67,16.47-8.5,28.42-8.5,12.66,0,22.63,2.82,29.85,8.44,7.23,5.64,11.05,13.56,11.53,23.78h-24.65c-.18-4.01-1.69-7.11-4.58-9.33-2.85-2.2-6.87-3.3-11.98-3.3-4.81,0-8.38.71-10.73,2.17-2.35,1.46-3.54,3.63-3.54,6.54,0,3.78,6.29,7.14,18.91,10.02,2.87.66,5.17,1.17,6.86,1.57,12.6,2.96,21.22,6.52,25.84,10.7,4.6,4.17,6.92,10.05,6.92,17.66,0,10.76-3.77,18.95-11.36,24.58-7.57,5.63-18.61,8.45-33.05,8.45-13.08,0-23.31-2.95-30.68-8.8-7.11-5.65-10.8-13.38-11.05-23.15h25.47ZM445.84,110.23c0-9.52-1.81-16.8-5.41-21.82-3.59-5.02-8.8-7.52-15.66-7.52s-11.86,2.5-15.37,7.49c-3.5,4.99-5.26,12.28-5.26,21.85,0,8.94,1.84,15.87,5.53,20.75,3.69,4.87,8.89,7.31,15.64,7.31,6.39,0,11.38-2.49,15.04-7.49,3.66-4.99,5.5-11.86,5.5-20.57h0ZM379.49,194.98V62.34h24.11v12.81c3.66-5.59,7.76-9.63,12.25-12.19,4.49-2.56,9.81-3.83,15.9-3.83,11.65,0,21.13,4.61,28.39,13.79,7.25,9.21,10.88,21.31,10.88,36.26s-3.63,27.47-10.88,36.89c-7.25,9.43-16.62,14.16-28.06,14.16-6.03,0-11.41-1.28-16.14-3.84-4.73-2.56-8.68-6.28-11.8-11.15v49.73h-24.64ZM84.75,62.34v94.68h-24.82v-11.24c-3.6,4.58-7.82,8.03-12.6,10.31-4.78,2.29-10.17,3.45-16.14,3.45-10.4,0-18.2-2.73-23.39-8.17-5.21-5.46-7.79-13.64-7.79-24.49V62.34h25.36v57.22c0,6.75,1.13,11.53,3.39,14.42,2.26,2.88,6,4.31,11.23,4.31,5.92,0,10.64-1.79,14.15-5.35,3.51-3.57,5.26-8.45,5.26-14.6v-56h25.36Z"/>
  </g>
</svg>